0
SECTION
2
HEADER
9
$INSUNITS
70
4
9
$ACADVER
1
AC1014
9
$HANDSEED
5
FFFF
0
ENDSEC
0
SECTION
2
TABLES
0
TABLE
2
VPORT
5
8
100
AcDbSymbolTable
0
ENDTAB
0
TABLE
2
LTYPE
5
5
100
AcDbSymbolTable
0
LTYPE
5
14
100
AcDbSymbolTableRecord
100
AcDbLinetypeTableRecord
2
BYBLOCK
70
0
0
LTYPE
5
15
100
AcDbSymbolTableRecord
100
AcDbLinetypeTableRecord
2
BYLAYER
70
0
0
LTYPE
5
16
100
AcDbSymbolTableRecord
100
AcDbLinetypeTableRecord
2
DASHED
70
0
3
Dashed __ __ __ __ __ __ __ __ __ __ __ __ __ _
72
65
73
2
40
0.75
49
0.5
74
0
49
-0.25
74
0
0
ENDTAB
0
TABLE
2
LAYER
5
2
100
AcDbSymbolTable
70
2
0
LAYER
5
50
100
AcDbSymbolTableRecord
100
AcDbLayerTableRecord
2
0
70
0
62
7
6
CONTINUOUS
0
ENDTAB
0
TABLE
2
STYLE
5
3
100
AcDbSymbolTable
70
1
0
STYLE
5
11
100
AcDbSymbolTableRecord
100
AcDbTextStyleTableRecord
2
STANDARD
70
0
0
ENDTAB
0
TABLE
2
VIEW
5
6
100
AcDbSymbolTable
70
0
0
ENDTAB
0
TABLE
2
UCS
5
7
100
AcDbSymbolTable
70
0
0
ENDTAB
0
TABLE
2
APPID
5
9
100
AcDbSymbolTable
70
2
0
APPID
5
12
100
AcDbSymbolTableRecord
100
AcDbRegAppTableRecord
2
ACAD
70
0
0
ENDTAB
0
TABLE
2
DIMSTYLE
5
A
100
AcDbSymbolTable
70
1
0
ENDTAB
0
TABLE
2
BLOCK_RECORD
5
1
100
AcDbSymbolTable
70
1
0
BLOCK_RECORD
5
1F
100
AcDbSymbolTableRecord
100
AcDbBlockTableRecord
2
*MODEL_SPACE
0
BLOCK_RECORD
5
1B
100
AcDbSymbolTableRecord
100
AcDbBlockTableRecord
2
*PAPER_SPACE
0
ENDTAB
0
ENDSEC
0
SECTION
2
BLOCKS
0
BLOCK
5
20
100
AcDbEntity
100
AcDbBlockBegin
2
*MODEL_SPACE
0
ENDBLK
5
21
100
AcDbEntity
100
AcDbBlockEnd
0
BLOCK
5
1C
100
AcDbEntity
100
AcDbBlockBegin
2
*PAPER_SPACE
0
ENDBLK
5
1D
100
AcDbEntity
100
AcDbBlockEnd
0
ENDSEC
0
SECTION
2
ENTITIES
0
LWPOLYLINE
5
100
100
AcDbEntity
8
0
100
AcDbPolyline
90
4
70
1
43
0.0
10
-25.000000000000306
20
61.927999999999955
10
-21.000000000000306
20
61.927999999999955
10
-21.000000000000306
20
36.927999999999962
10
-25.000000000000306
20
36.927999999999962
0
LWPOLYLINE
5
101
100
AcDbEntity
8
0
100
AcDbPolyline
90
4
70
1
43
0.0
10
-24.999999999999687
20
-62.92799999999999
10
-24.999999999999687
20
-37.92799999999999
10
-20.999999999999691
20
-37.92799999999999
10
-20.999999999999691
20
-62.92799999999999
0
LWPOLYLINE
5
102
100
AcDbEntity
8
0
100
AcDbPolyline
90
4
70
1
43
0.0
10
24.999999999972967
20
36.927999999977807
10
20.999999999972971
20
36.927999999981353
10
20.999999999995119
20
61.927999999981353
10
24.999999999995119
20
61.927999999977807
0
LWPOLYLINE
5
103
100
AcDbEntity
8
0
100
AcDbPolyline
90
4
70
1
43
0.0
10
24.999999999883869
20
-62.928000000022138
10
20.999999999883872
20
-62.928000000018606
10
20.999999999906024
20
-37.928000000018606
10
24.999999999906024
20
-37.928000000022138
0
SPLINE
5
104
100
AcDbEntity
8
0
100
AcDbSpline
70
0
71
3
72
10
73
6
74
0
42
0.000000001
43
0.0000000001
44
0.0000000001
40
0
40
0
40
0
40
0
40
1.9583002864408245
40
1.9583002864408245
40
3.9166005728816491
40
3.9166005728816491
40
3.9166005728816491
40
3.9166005728816491
10
33.0016629007444
20
-39.775420459124568
30
0
10
33.0016629007444
20
-46.30308808059398
30
0
10
32.469032343539659
20
-52.81988606700029
30
3.5527136788005009e-14
10
30.349117792410137
20
-65.701956576100514
30
3.5527136788005009e-14
10
28.765363803208622
20
-72.045778342810692
30
0
10
26.673583836417762
20
-78.229215990827583
30
0
0
LINE
5
105
100
AcDbEntity
8
0
100
AcDbLine
10
33.0016629007444
20
-39.775420459124568
30
0
11
33.001662900744392
21
49.619601787267804
31
0
0
SPLINE
5
106
100
AcDbEntity
8
0
100
AcDbSpline
70
0
71
3
72
10
73
6
74
0
42
0.000000001
43
0.0000000001
44
0.0000000001
40
0
40
0
40
0
40
0
40
1.2649833496876894
40
1.2649833496876894
40
2.5299666993753798
40
2.5299666993753798
40
2.5299666993753798
40
2.5299666993753798
10
27.959088636145196
20
74.214199321297542
30
0
10
29.618382309362129
20
70.337789354833603
30
0
10
30.8811374574403
20
66.303392183319602
30
0
10
32.574947467414503
20
58.042021441219582
30
0
10
33.001662900744407
20
53.83621295289344
30
0
10
33.001662900744407
20
49.619601787267804
30
0
0
SPLINE
5
107
100
AcDbEntity
8
0
100
AcDbSpline
70
0
71
3
72
14
73
10
74
0
42
0.000000001
43
0.0000000001
44
0.0000000001
40
1.7624235503125751
40
1.7624235503125751
40
1.7624235503125751
40
1.7624235503125751
40
2.038000771640526
40
2.038000771640526
40
2.1824442259088386
40
2.1824442259088386
40
2.2461825760037253
40
2.2461825760037253
40
2.3006481716987253
40
2.3006481716987253
40
2.3006481716987253
40
2.3006481716987253
10
27.959088636145196
20
74.214199321297542
30
0
10
24.638365777219889
20
81.972008197435997
30
0
10
23.245604242134092
20
88.598672938856453
30
0
10
21.476131188433328
20
97.134714193579612
30
0
10
20.946718932612335
20
99.708163550999245
30
0
10
19.931312644168486
20
102.82556257650268
30
0
10
19.554726595310136
20
103.7971072557223
30
0
10
18.677864702745588
20
105.45080143162151
30
0
10
18.194725878854136
20
106.17240267437553
30
0
10
17.601039959554825
20
106.79918634627438
30
0
0
SPLINE
5
108
100
AcDbEntity
8
0
100
AcDbSpline
70
0
71
3
72
10
73
6
74
0
42
0.000000001
43
0.0000000001
44
0.0000000001
40
0
40
0
40
0
40
0
40
0.06336011141988121
40
0.06336011141988121
40
0.12671560168362322
40
0.12671560168362322
40
0.12671560168362322
40
0.12671560168362322
10
17.60103996482616
20
106.79918635126737
30
0
10
17.510894877664679
20
106.99018232017764
30
0
10
17.400832067080877
20
107.17112611144066
30
0
10
17.144544533739243
20
107.50687315135268
30
0
10
16.999037334518857
20
107.66074177667184
30
0
10
16.838583775628834
20
107.79805072014184
30
0
0
SPLINE
5
109
100
AcDbEntity
8
0
100
AcDbSpline
70
0
71
3
72
10
73
6
74
0
42
0.000000001
43
0.0000000001
44
0.0000000001
40
0
40
0
40
0
40
0
40
0.39294457102590347
40
0.39294457102590347
40
0.77131043227350393
40
0.77131043227350393
40
0.77131043227350393
40
0.77131043227350393
10
16.838583775628823
20
107.79805072014183
30
0
10
15.843415801943308
20
108.64967074021007
30
0
10
14.802232446744112
20
109.44783893661894
30
0
10
12.661533901955675
20
110.87240572442366
30
0
10
11.569796019868328
20
111.50131387535588
30
0
10
10.432255677173378
20
112.04659546827375
30
0
0
SPLINE
5
110
100
AcDbEntity
8
0
100
AcDbSpline
70
0
71
3
72
10
73
6
74
0
42
0.000000001
43
0.0000000001
44
0.0000000001
40
0
40
0
40
0
40
0
40
0.076003850204435716
40
0.076003850204435716
40
0.17831910034362508
40
0.17831910034362508
40
0.17831910034362508
40
0.17831910034362508
10
10.432255677173888
20
112.04659546827351
30
0
10
10.203800494447536
20
112.1561057874012
30
0
10
9.974744067666272
20
112.2616461959818
30
0
10
9.4346400639870556
20
112.50055944848415
30
0
10
9.1237579554125059
20
112.63036702800454
30
0
10
8.8112617062106509
20
112.75322905448681
30
0
0
SPLINE
5
111
100
AcDbEntity
8
0
100
AcDbSpline
70
0
71
3
72
10
73
6
74
0
42
0.000000001
43
0.0000000001
44
0.0000000001
40
0
40
0
40
0
40
0
40
0.44736197983333592
40
0.44736197983333592
40
0.90451483816221123
40
0.90451483816221123
40
0.90451483816221123
40
0.90451483816221123
10
8.8112617062106366
20
112.75322905448681
30
0
10
7.4234635415590304
20
113.29886022699836
30
0
10
5.9993718546242985
20
113.70870871953804
30
0
10
3.0346291977156197
20
114.25712097266469
30
0
10
1.5236817558954741
20
114.38369283075266
30
0
10
2.2064184340489064e-11
20
114.37499999974092
30
0
0
SPLINE
5
112
100
AcDbEntity
8
0
100
AcDbSpline
70
0
71
3
72
10
73
6
74
0
42
0.000000001
43
0.0000000001
44
0.0000000001
40
-0.90451483816221123
40
-0.90451483816221123
40
-0.90451483816221123
40
-0.90451483816221123
40
-0.44736197983333592
40
-0.44736197983333592
40
-0
40
-0
40
-0
40
-0
10
-2.2068104546097815e-11
20
114.37499999974092
30
0
10
-1.5236817558954781
20
114.38369283075266
30
0
10
-3.0346291977156232
20
114.25712097266469
30
0
10
-5.999371854624302
20
113.70870871953804
30
0
10
-7.423463541559034
20
113.29886022699836
30
0
10
-8.8112617062106402
20
112.75322905448681
30
0
0
SPLINE
5
113
100
AcDbEntity
8
0
100
AcDbSpline
70
0
71
3
72
10
73
6
74
0
42
0.000000001
43
0.0000000001
44
0.0000000001
40
-0.17831910034362508
40
-0.17831910034362508
40
-0.17831910034362508
40
-0.17831910034362508
40
-0.076003850204435716
40
-0.076003850204435716
40
-0
40
-0
40
-0
40
-0
10
-8.8112617062106562
20
112.75322905448681
30
0
10
-9.1237579554125112
20
112.63036702800454
30
0
10
-9.4346400639870591
20
112.50055944848415
30
0
10
-9.9747440676662773
20
112.2616461959818
30
0
10
-10.203800494447542
20
112.1561057874012
30
0
10
-10.432255677173892
20
112.04659546827351
30
0
0
SPLINE
5
114
100
AcDbEntity
8
0
100
AcDbSpline
70
0
71
3
72
10
73
6
74
0
42
0.000000001
43
0.0000000001
44
0.0000000001
40
-0.77131043227350393
40
-0.77131043227350393
40
-0.77131043227350393
40
-0.77131043227350393
40
-0.39294457102590347
40
-0.39294457102590347
40
-0
40
-0
40
-0
40
-0
10
-10.432255677173384
20
112.04659546827375
30
0
10
-11.569796019868333
20
111.50131387535588
30
0
10
-12.661533901955679
20
110.87240572442366
30
0
10
-14.802232446744117
20
109.44783893661894
30
0
10
-15.843415801943312
20
108.64967074021007
30
0
10
-16.838583775628827
20
107.79805072014183
30
0
0
SPLINE
5
115
100
AcDbEntity
8
0
100
AcDbSpline
70
0
71
3
72
10
73
6
74
0
42
0.000000001
43
0.0000000001
44
0.0000000001
40
-0.12671560168362322
40
-0.12671560168362322
40
-0.12671560168362322
40
-0.12671560168362322
40
-0.06336011141988121
40
-0.06336011141988121
40
-0
40
-0
40
-0
40
-0
10
-16.838583775628837
20
107.79805072014184
30
0
10
-16.99903733451886
20
107.66074177667184
30
0
10
-17.144544533739246
20
107.50687315135268
30
0
10
-17.400832067080881
20
107.17112611144066
30
0
10
-17.510894877664683
20
106.99018232017764
30
0
10
-17.601039964826168
20
106.79918635126737
30
0
0
SPLINE
5
116
100
AcDbEntity
8
0
100
AcDbSpline
70
0
71
3
72
14
73
10
74
0
42
0.000000001
43
0.0000000001
44
0.0000000001
40
-2.3006481716987253
40
-2.3006481716987253
40
-2.3006481716987253
40
-2.3006481716987253
40
-2.2461825760037253
40
-2.2461825760037253
40
-2.1824442259088386
40
-2.1824442259088386
40
-2.038000771640526
40
-2.038000771640526
40
-1.7624235503125627
40
-1.7624235503125627
40
-1.7624235503125627
40
-1.7624235503125627
10
-17.601039959554829
20
106.79918634627438
30
0
10
-18.19472587885414
20
106.17240267437553
30
0
10
-18.677864702745591
20
105.45080143162151
30
0
10
-19.554726595310143
20
103.7971072557223
30
0
10
-19.931312644168489
20
102.82556257650268
30
0
10
-20.946718932612335
20
99.708163550999245
30
0
10
-21.476131188433328
20
97.134714193579612
30
0
10
-23.245604242134146
20
88.598672938856211
30
0
10
-24.63836577722002
20
81.9720081974354
30
0
10
-27.959088636145655
20
74.214199321296491
30
0
0
SPLINE
5
117
100
AcDbEntity
8
0
100
AcDbSpline
70
0
71
3
72
10
73
6
74
0
42
0.000000001
43
0.0000000001
44
0.0000000001
40
0
40
0
40
0
40
0
40
1.2649833496877383
40
1.2649833496877383
40
2.5299666993754699
40
2.5299666993754699
40
2.5299666993754699
40
2.5299666993754699
10
-33.001662900745231
20
49.619601787265886
30
0
10
-33.001662900745231
20
53.836212952891678
30
0
10
-32.574947467415292
20
58.042021441217969
30
0
10
-30.881137457440964
20
66.30339218331828
30
0
10
-29.618382309362715
20
70.337789354832424
30
0
10
-27.959088636145669
20
74.214199321296462
30
0
0
LINE
5
118
100
AcDbEntity
8
0
100
AcDbLine
10
-33.001662900745231
20
49.619601787265886
30
0
11
-33.001662900745238
21
-39.775420459122223
31
0
0
SPLINE
5
119
100
AcDbEntity
8
0
100
AcDbSpline
70
0
71
3
72
10
73
6
74
0
42
0.000000001
43
0.0000000001
44
0.0000000001
40
0
40
0
40
0
40
0
40
1.9583002864408592
40
1.9583002864408592
40
3.9166005728817224
40
3.9166005728817224
40
3.9166005728817224
40
3.9166005728817224
10
-26.673583836418331
20
-78.229215990825935
30
1.7763568394002505e-14
10
-28.765363803209269
20
-72.045778342808958
30
1.7763568394002505e-14
10
-30.349117792410809
20
-65.701956576098638
30
-3.5527136788005009e-14
10
-32.469032343540412
20
-52.81988606699818
30
-3.5527136788005009e-14
10
-33.001662900745245
20
-46.303088080591777
30
8.8817841970012523e-14
10
-33.001662900745252
20
-39.775420459122238
30
8.8817841970012523e-14
0
SPLINE
5
120
100
AcDbEntity
8
0
100
AcDbSpline
70
0
71
3
72
16
73
12
74
0
42
0.000000001
43
0.0000000001
44
0.0000000001
40
-1.5248686482448883
40
-1.5248686482448883
40
-1.5248686482448883
40
-1.5248686482448883
40
-0.55933974041569146
40
-0.55933974041569146
40
-0.26351095073312958
40
-0.26351095073312958
40
-0.13179233250902903
40
-0.13179233250902903
40
-0.057813106675923993
40
-0.057813106675923993
40
-0
40
-0
40
-0
40
-0
10
-26.673583836418334
20
-78.229215990825921
30
0
10
-23.58920070700465
20
-87.346853154444105
30
0
10
-21.539599559912478
20
-95.551327746837529
30
0
10
-18.967365679617885
20
-102.27863692150663
30
0
10
-18.365972211630176
20
-103.58612149004944
30
0
10
-17.463066502532151
20
-104.94008067244025
30
1.7763568394002505e-14
10
-17.156015081112248
20
-105.32020818165452
30
1.7763568394002505e-14
10
-16.632379172140098
20
-105.76185999178659
30
1.7763568394002505e-14
10
-16.422296799117881
20
-105.9007177683977
30
1.7763568394002505e-14
10
-16.01340769336278
20
-106.06132174658788
30
1.7763568394002505e-14
10
-15.827432854807688
20
-106.09999999999894
30
1.7763568394002505e-14
10
-15.634722499221274
20
-106.09999999999894
30
1.7763568394002505e-14
0
LINE
5
121
100
AcDbEntity
8
0
100
AcDbLine
10
-15.634722499221274
20
-106.09999999999894
30
1.7763568394002505e-14
11
15.634722499221269
21
-106.09999999999893
31
0
0
SPLINE
5
122
100
AcDbEntity
8
0
100
AcDbSpline
70
0
71
3
72
16
73
12
74
0
42
0.000000001
43
0.0000000001
44
0.0000000001
40
0
40
0
40
0
40
0
40
0.057813106675923993
40
0.057813106675923993
40
0.13179233250902903
40
0.13179233250902903
40
0.26351095073312958
40
0.26351095073312958
40
0.55933974041569146
40
0.55933974041569146
40
1.5248686482448299
40
1.5248686482448299
40
1.5248686482448299
40
1.5248686482448299
10
15.634722499221269
20
-106.09999999999894
30
1.7763568394002505e-14
10
15.827432854807684
20
-106.09999999999894
30
1.7763568394002505e-14
10
16.013407693362776
20
-106.06132174658788
30
1.7763568394002505e-14
10
16.422296799117873
20
-105.9007177683977
30
1.7763568394002505e-14
10
16.632379172140091
20
-105.76185999178659
30
1.7763568394002505e-14
10
17.156015081112244
20
-105.32020818165452
30
1.7763568394002505e-14
10
17.463066502532143
20
-104.94008067244025
30
1.7763568394002505e-14
10
18.365972211630172
20
-103.58612149004944
30
1.7763568394002505e-14
10
18.967365679617881
20
-102.27863692150663
30
1.7763568394002505e-14
10
21.539599559912347
20
-95.551327746837856
30
1.7763568394002505e-14
10
23.589200707004373
20
-87.346853154445085
30
0
10
26.67358383641777
20
-78.229215990827583
30
0
0
CIRCLE
5
123
100
AcDbEntity
8
0
100
AcDbCircle
10
-22.500000000870148
20
76.855871965108406
30
0
40
1.5000000000000036
210
-1.2819232272380881e-65
220
2.2803724246393591e-17
230
1
0
CIRCLE
5
124
100
AcDbEntity
8
0
100
AcDbCircle
10
-22.500000000870148
20
31.85587196510841
30
0
40
1.5000000000000036
210
-1.2819232272380881e-65
220
2.2803724246393591e-17
230
1
0
CIRCLE
5
125
100
AcDbEntity
8
0
100
AcDbCircle
10
22.499999999129802
20
76.85587196510842
30
0
40
1.5000000000000036
210
-1.2819232272380881e-65
220
2.2803724246393591e-17
230
1
0
CIRCLE
5
126
100
AcDbEntity
8
0
100
AcDbCircle
10
22.499999999129798
20
31.855871965108431
30
0
40
1.4999999999999991
210
-2.3234858493690367e-65
220
2.2803724246393591e-17
230
1
0
CIRCLE
5
127
100
AcDbEntity
8
0
100
AcDbCircle
10
11.155999999998023
20
-99.801076183868503
30
0
40
1.9999999999999996
210
0
220
2.2803724246393591e-17
230
1
0
CIRCLE
5
128
100
AcDbEntity
8
0
100
AcDbCircle
10
-14.194016906841142
20
104.87499999941598
30
0
40
1.9999999999999929
210
0
220
2.2803724246393591e-17
230
1
0
CIRCLE
5
129
100
AcDbEntity
8
0
100
AcDbCircle
10
-11.15599999999802
20
-99.801076183868503
30
0
40
1.9999999999999996
210
-3.2048080680952171e-66
220
2.2803724246393591e-17
230
1
0
CIRCLE
5
130
100
AcDbEntity
8
0
100
AcDbCircle
10
14.194016906841142
20
104.87499999941598
30
0
40
1.9999999999999929
210
0
220
2.2803724246393591e-17
230
1
0
ENDSEC
0
SECTION
2
OBJECTS
0
DICTIONARY
5
C
100
AcDbDictionary
3
ACAD_GROUP
350
D
3
ACAD_MLINESTYLE
350
17
0
DICTIONARY
5
D
100
AcDbDictionary
0
DICTIONARY
5
1A
330
C
100
AcDbDictionary
0
DICTIONARY
5
17
100
AcDbDictionary
0
ENDSEC
0
EOF
