0
SECTION
2
HEADER
9
$INSUNITS
70
4
9
$ACADVER
1
AC1014
9
$HANDSEED
5
FFFF
0
ENDSEC
0
SECTION
2
TABLES
0
TABLE
2
VPORT
5
8
100
AcDbSymbolTable
0
ENDTAB
0
TABLE
2
LTYPE
5
5
100
AcDbSymbolTable
0
LTYPE
5
14
100
AcDbSymbolTableRecord
100
AcDbLinetypeTableRecord
2
BYBLOCK
70
0
0
LTYPE
5
15
100
AcDbSymbolTableRecord
100
AcDbLinetypeTableRecord
2
BYLAYER
70
0
0
LTYPE
5
16
100
AcDbSymbolTableRecord
100
AcDbLinetypeTableRecord
2
DASHED
70
0
3
Dashed __ __ __ __ __ __ __ __ __ __ __ __ __ _
72
65
73
2
40
0.75
49
0.5
74
0
49
-0.25
74
0
0
ENDTAB
0
TABLE
2
LAYER
5
2
100
AcDbSymbolTable
70
2
0
LAYER
5
50
100
AcDbSymbolTableRecord
100
AcDbLayerTableRecord
2
0
70
0
62
7
6
CONTINUOUS
0
ENDTAB
0
TABLE
2
STYLE
5
3
100
AcDbSymbolTable
70
1
0
STYLE
5
11
100
AcDbSymbolTableRecord
100
AcDbTextStyleTableRecord
2
STANDARD
70
0
0
ENDTAB
0
TABLE
2
VIEW
5
6
100
AcDbSymbolTable
70
0
0
ENDTAB
0
TABLE
2
UCS
5
7
100
AcDbSymbolTable
70
0
0
ENDTAB
0
TABLE
2
APPID
5
9
100
AcDbSymbolTable
70
2
0
APPID
5
12
100
AcDbSymbolTableRecord
100
AcDbRegAppTableRecord
2
ACAD
70
0
0
ENDTAB
0
TABLE
2
DIMSTYLE
5
A
100
AcDbSymbolTable
70
1
0
ENDTAB
0
TABLE
2
BLOCK_RECORD
5
1
100
AcDbSymbolTable
70
1
0
BLOCK_RECORD
5
1F
100
AcDbSymbolTableRecord
100
AcDbBlockTableRecord
2
*MODEL_SPACE
0
BLOCK_RECORD
5
1B
100
AcDbSymbolTableRecord
100
AcDbBlockTableRecord
2
*PAPER_SPACE
0
ENDTAB
0
ENDSEC
0
SECTION
2
BLOCKS
0
BLOCK
5
20
100
AcDbEntity
100
AcDbBlockBegin
2
*MODEL_SPACE
0
ENDBLK
5
21
100
AcDbEntity
100
AcDbBlockEnd
0
BLOCK
5
1C
100
AcDbEntity
100
AcDbBlockBegin
2
*PAPER_SPACE
0
ENDBLK
5
1D
100
AcDbEntity
100
AcDbBlockEnd
0
ENDSEC
0
SECTION
2
ENTITIES
0
LWPOLYLINE
5
100
100
AcDbEntity
8
0
100
AcDbPolyline
90
8
70
1
43
0.0
10
15.200000000000198
20
-74.387744516468388
10
15.200000000000195
20
-92.137744516468416
42
-0.41421356237308982
10
14.200000000000198
20
-93.137744516468388
10
-14.200000000000191
20
-93.137744516468388
42
-0.41421356237309048
10
-15.200000000000193
20
-92.137744516468416
10
-15.200000000000189
20
-74.387744516468388
42
-0.41421356237309437
10
-14.200000000000195
20
-73.387744516468388
10
14.200000000000198
20
-73.387744516468388
42
-0.41421356237309503
0
LWPOLYLINE
5
101
100
AcDbEntity
8
0
100
AcDbPolyline
90
8
70
1
43
0.0
10
79.351642798264862
20
4.0002814612877993
10
81.851642798264876
20
4.0002814612878304
42
-0.41421356237309148
10
82.351642798264891
20
3.5002814612878295
10
82.35164279826499
20
-5.4997185387121696
42
-0.41421356237309825
10
81.851642798264976
20
-5.999718538712175
10
79.351642798264976
20
-5.9997185387121998
42
-0.41421356237309698
10
78.851642798264962
20
-5.4997185387122069
10
78.851642798264876
20
3.5002814612877948
42
-0.41421356237309243
0
LWPOLYLINE
5
102
100
AcDbEntity
8
0
100
AcDbPolyline
90
8
70
1
43
0.0
10
-81.851642798265217
20
4.000281461286944
10
-79.351642798265246
20
4.000281461286944
42
-0.41421356237309437
10
-78.851642798265246
20
3.5002814612869466
10
-78.851642798265232
20
-5.4997185387130543
42
-0.41421356237309503
10
-79.351642798265232
20
-5.9997185387130543
10
-81.851642798265232
20
-5.9997185387130614
42
-0.41421356237309503
10
-82.351642798265232
20
-5.4997185387130543
10
-82.351642798265217
20
3.5002814612869457
42
-0.4142135623730947
0
LWPOLYLINE
5
103
100
AcDbEntity
8
0
100
AcDbPolyline
90
8
70
1
43
0.0
10
61.85164279826494
20
3.5002814612876065
10
61.851642798265033
20
-5.4997185387123899
42
-0.41421356237309309
10
61.351642798265047
20
-5.9997185387123961
10
58.85164279826504
20
-5.9997185387124201
42
-0.41421356237309631
10
58.351642798265033
20
-5.4997185387124281
10
58.351642798264933
20
3.5002814612875714
42
-0.41421356237309309
10
58.851642798264919
20
4.0002814612875772
10
61.351642798264933
20
4.0002814612875994
42
-0.41421356237309731
0
LWPOLYLINE
5
104
100
AcDbEntity
8
0
100
AcDbPolyline
90
8
70
1
43
0.0
10
-58.351642798265303
20
3.5002814612869475
10
-58.351642798265296
20
-5.4997185387130534
42
-0.41421356237309503
10
-58.851642798265296
20
-5.9997185387130534
10
-61.351642798265303
20
-5.9997185387130516
42
-0.41421356237309437
10
-61.851642798265303
20
-5.4997185387130543
10
-61.85164279826531
20
3.5002814612869471
42
-0.4142135623730947
10
-61.351642798265317
20
4.0002814612869466
10
-58.851642798265303
20
4.000281461286944
42
-0.41421356237309404
0
LWPOLYLINE
5
105
100
AcDbEntity
8
0
100
AcDbPolyline
90
8
70
1
43
0.0
10
-8.7499999999999947
20
78.346303327994718
10
-8.7499999999999947
20
100.34630332799473
42
-0.41421356237309176
10
-7.2499999999999893
20
101.84630332799472
10
7.2500000000000053
20
101.84630332799472
42
-0.41421356237309503
10
8.7500000000000053
20
100.34630332799472
10
8.7500000000000089
20
78.346303327994718
42
-0.41421356237309503
10
7.2500000000000053
20
76.846303327994718
10
-7.2499999999999947
20
76.846303327994704
42
-0.41421356237309503
0
LWPOLYLINE
5
106
100
AcDbEntity
8
0
100
AcDbPolyline
90
8
70
1
43
0.0
10
10.515833722385661
20
58.846303327998157
10
10.515833722385659
20
33.846303327994676
42
-0.4142135623730947
10
9.5158337223856595
20
32.846303327994676
10
-9.5158337223856577
20
32.846303327994676
42
-0.41421356237309503
10
-10.515833722385658
20
33.846303327994683
10
-10.515833722385652
20
58.846303327998157
42
-0.41421356237309503
10
-9.5158337223856559
20
59.846303327998157
10
9.5158337223856613
20
59.846303327998157
42
-0.41421356237309537
0
LINE
5
107
100
AcDbEntity
8
0
100
AcDbLine
10
16.401586360285989
20
-65.700824548705953
30
-1.19206582382958e-07
11
16.401586360286039
21
-42.321779455975303
31
-1.1920754161565128e-07
0
ARC
5
108
100
AcDbEntity
8
0
100
AcDbCircle
10
17.901586360286043
20
-42.321779455975303
30
-1.1920753273386708e-07
40
1.499999999999998
210
1.8189943047438962e-14
220
1.5168840652955624e-14
230
1
100
AcDbArc
50
39.825186132976839
51
180
0
LINE
5
109
100
AcDbEntity
8
0
100
AcDbLine
10
19.053589464306398
20
-41.361108415333675
30
-1.1920756826100387e-07
11
28.978570205549413
21
-53.262798106757884
31
-1.1920707976287304e-07
0
SPLINE
5
110
100
AcDbEntity
8
0
100
AcDbSpline
70
0
71
3
72
14
73
10
74
0
42
0.000000001
43
0.0000000001
44
0.0000000001
40
0
40
0
40
0
40
0
40
0.058596671008038705
40
0.058596671008038705
40
0.11719334201607848
40
0.11719334201607848
40
0.1635184476568779
40
0.1635184476568779
40
0.20984355329767806
40
0.20984355329767806
40
0.20984355329767806
40
0.20984355329767806
10
28.978570205549413
20
-53.262798106757884
30
-1.1920712417179402e-07
10
29.103663816472583
20
-53.412805988727925
30
-1.1920711529000982e-07
10
29.198261589266007
20
-53.585813277467302
30
-1.1920711529000982e-07
10
29.315816208648776
20
-53.958350545468136
30
-1.1920709752644143e-07
10
29.33764916900461
20
-54.154318865398999
30
-1.1920709752644143e-07
10
29.308390622969284
20
-54.502832113811294
30
-1.1920707976287304e-07
10
29.271788471879468
20
-54.653794380657303
30
-1.1920707088108884e-07
10
29.153807624201093
20
-54.939204580833646
30
-1.1920705311752045e-07
10
29.073133280864177
20
-55.071948596905351
30
-1.1920705311752045e-07
10
28.97363070685978
20
-55.190032691780154
30
-1.1920704423573625e-07
0
SPLINE
5
111
100
AcDbEntity
8
0
100
AcDbSpline
70
0
71
3
72
10
73
6
74
0
42
0.000000001
43
0.0000000001
44
0.0000000001
40
-2.1063502942036378
40
-2.1063502942036378
40
-2.1063502942036378
40
-2.1063502942036378
40
-0.99974539030559706
40
-0.99974539030559706
40
-0.59662630916341353
40
-0.59662630916341353
40
-0.59662630916341353
40
-0.59662630916341353
10
28.973630706860256
20
-55.190032691779592
30
-1.1920704423573625e-07
10
26.590139613470388
20
-58.018626737926191
30
-1.1920693765432588e-07
10
24.149395473726685
20
-60.865660219220324
30
-1.1920681330934713e-07
10
20.828092433566706
20
-64.659754222367042
30
-1.1920666231901578e-07
10
19.928095620937484
20
-65.680045104790764
30
-1.1920666231901578e-07
10
19.022095328774093
20
-66.698050526876301
30
-1.1920662679187899e-07
0
SPLINE
5
112
100
AcDbEntity
8
0
100
AcDbSpline
70
0
71
3
72
20
73
16
74
0
42
0.000000001
43
0.0000000001
44
0.0000000001
40
0
40
0
40
0
40
0
40
0.058596671008042944
40
0.058596671008042944
40
0.11719334201608153
40
0.11719334201608153
40
0.17579001302412081
40
0.17579001302412081
40
0.23438668403216004
40
0.23438668403216004
40
0.29298335504019929
40
0.29298335504019929
40
0.32806703333978976
40
0.32806703333978976
40
0.36315071163938328
40
0.36315071163938328
40
0.36315071163938328
40
0.36315071163938328
10
16.401586360286004
20
-65.700824548705924
30
-1.1920666231901578e-07
10
16.401586360286004
20
-65.896146785399409
30
-1.1920665343723158e-07
10
16.439737136432932
20
-66.089601635051253
30
-1.1920663567366319e-07
10
16.588045455437776
20
-66.450998573474521
30
-1.1920661791009479e-07
10
16.696785089931716
20
-66.615485510538065
30
-1.1920661791009479e-07
10
16.971194052978589
20
-66.893519367446345
30
-1.192066001465264e-07
10
17.134239882280362
20
-67.004408132078851
30
-1.192066001465264e-07
10
17.493659514787165
20
-67.157446141594221
30
-1.192066001465264e-07
10
17.686597070406592
20
-67.198132259693949
30
-1.192065912647422e-07
10
18.077207907440261
20
-67.203258523402397
30
-1.192065912647422e-07
10
18.271146736353103
20
-67.167649659136003
30
-1.192066001465264e-07
10
18.561565929655714
20
-67.052898230148003
30
-1.192066001465264e-07
10
18.664931208199576
20
-66.997351029421836
30
-1.192066001465264e-07
10
18.85665021030864
20
-66.863377478431573
30
-1.192066001465264e-07
10
18.944347872307176
20
-66.785409585059014
30
-1.192066090283106e-07
10
19.022095328774121
20
-66.698050526876244
30
-1.192066090283106e-07
0
SPLINE
5
113
100
AcDbEntity
8
0
100
AcDbSpline
70
0
71
3
72
10
73
6
74
0
42
0.000000001
43
0.0000000001
44
0.0000000001
40
-1.513911892336212
40
-1.513911892336212
40
-1.513911892336212
40
-1.513911892336212
40
-1.1096745767631651
40
-1.1096745767631651
40
-0
40
-0
40
-0
40
-0
10
-19.022095328774064
20
-66.698050526876301
30
-1.1920661791009479e-07
10
-19.928095620937242
20
-65.680045104791006
30
-1.1920665343723158e-07
10
-20.828092433566432
20
-64.659754222367368
30
-1.1920669784615257e-07
10
-24.149395473726777
20
-60.865660219220231
30
-1.1920684883648391e-07
10
-26.590139613470694
20
-58.018626737925828
30
-1.1920693765432588e-07
10
-28.973630706860249
20
-55.190032691779592
30
-1.1920704423573625e-07
0
SPLINE
5
114
100
AcDbEntity
8
0
100
AcDbSpline
70
0
71
3
72
14
73
10
74
0
42
0.000000001
43
0.0000000001
44
0.0000000001
40
0
40
0
40
0
40
0
40
0.058596671008038705
40
0.058596671008038705
40
0.11719334201607848
40
0.11719334201607848
40
0.1635184476568779
40
0.1635184476568779
40
0.20984355329767806
40
0.20984355329767806
40
0.20984355329767806
40
0.20984355329767806
10
-28.978570205549413
20
-53.262798106757884
30
-1.1920712417179402e-07
10
-29.103663816472583
20
-53.412805988727925
30
-1.1920711529000982e-07
10
-29.198261589266007
20
-53.585813277467302
30
-1.1920711529000982e-07
10
-29.315816208648776
20
-53.958350545468136
30
-1.1920709752644143e-07
10
-29.33764916900461
20
-54.154318865398999
30
-1.1920709752644143e-07
10
-29.308390622969284
20
-54.502832113811294
30
-1.1920707976287304e-07
10
-29.271788471879468
20
-54.653794380657303
30
-1.1920707088108884e-07
10
-29.153807624201093
20
-54.939204580833646
30
-1.1920705311752045e-07
10
-29.073133280864177
20
-55.071948596905351
30
-1.1920705311752045e-07
10
-28.97363070685978
20
-55.190032691780154
30
-1.1920704423573625e-07
0
LINE
5
115
100
AcDbEntity
8
0
100
AcDbLine
10
-28.978570205549413
20
-53.262798106757884
30
-1.1920712417179402e-07
11
-19.05358946430637
21
-41.361108415333668
31
-1.1920758602457227e-07
0
ARC
5
116
100
AcDbEntity
8
0
100
AcDbCircle
10
-17.901586360286032
20
-42.321779455975282
30
-1.1920753273386708e-07
40
1.4999999999999991
210
0
220
0
230
1
100
AcDbArc
50
0
51
140.17481386702315
0
LINE
5
117
100
AcDbEntity
8
0
100
AcDbLine
10
-16.401586360286032
20
-42.321779455975282
30
-1.1920753273386708e-07
11
-16.401586360285986
21
-65.700824548705995
31
-1.1920661791009479e-07
0
SPLINE
5
118
100
AcDbEntity
8
0
100
AcDbSpline
70
0
71
3
72
20
73
16
74
0
42
0.000000001
43
0.0000000001
44
0.0000000001
40
0
40
0
40
0
40
0
40
0.058596671008039156
40
0.058596671008039156
40
0.11719334201607791
40
0.11719334201607791
40
0.17579001302411651
40
0.17579001302411651
40
0.23438668403215604
40
0.23438668403215604
40
0.29298335504019496
40
0.29298335504019496
40
0.32806703333978454
40
0.32806703333978454
40
0.36315071163937546
40
0.36315071163937546
40
0.36315071163937546
40
0.36315071163937546
10
-19.022095328774107
20
-66.698050526876301
30
-1.192066090283106e-07
10
-18.892241723077408
20
-66.84395740551642
30
-1.192066001465264e-07
10
-18.735130730741901
20
-66.963106038163971
30
-1.192065912647422e-07
10
-18.384080586093095
20
-67.134473772961982
30
-1.192065912647422e-07
10
-18.193497664499748
20
-67.185054506165145
30
-1.19206582382958e-07
10
-17.803670805134846
20
-67.210315628575771
30
-1.19206582382958e-07
10
-17.60815382461087
20
-67.184754507684602
30
-1.192065912647422e-07
10
-17.237922891003691
20
-67.060126419405492
30
-1.192065912647422e-07
10
-17.066748547437221
20
-66.96225096446905
30
-1.192065912647422e-07
10
-16.771551887819975
20
-66.706395464745924
30
-1.192066090283106e-07
10
-16.650351812729753
20
-66.550861537988609
30
-1.192066090283106e-07
10
-16.509695676264645
20
-66.272065825022949
30
-1.1920661791009479e-07
10
-16.469409936224718
20
-66.161852706627712
30
-1.1920661791009479e-07
10
-16.41526263231966
20
-65.934315550069854
30
-1.1920661791009479e-07
10
-16.401586360286004
20
-65.817770143037976
30
-1.1920663567366319e-07
10
-16.401586360286004
20
-65.700824548705995
30
-1.1920664455544738e-07
0
SPLINE
5
119
100
AcDbEntity
8
0
100
AcDbSpline
70
4
71
5
72
12
73
6
74
0
42
0.000000001
43
0.0000000001
44
0.0000000001
40
-1
40
-1
40
-1
40
-1
40
-1
40
-1
40
-0.94248573560815097
40
-0.94248573560815097
40
-0.94248573560815097
40
-0.94248573560815097
40
-0.94248573560815097
40
-0.94248573560815097
41
1
41
1
41
1
41
1
41
1
41
1
10
-2.2064013061040561e-11
20
114.37499999974096
30
-1.1921364340139462e-07
10
-1.8649609827056111
20
114.38563987949506
30
-1.1921364340139462e-07
10
-3.6780389641764568
20
114.2272038165944
30
-1.1921363451961042e-07
10
-5.439254289570961
20
113.89973525321672
30
-1.1921362563782623e-07
10
-7.1496970336803889
20
113.40649514430332
30
-1.1921359899247364e-07
10
-8.8112617062106366
20
112.75322905448687
30
-1.1921357234712104e-07
0
SPLINE
5
120
100
AcDbEntity
8
0
100
AcDbSpline
70
0
71
3
72
14
73
10
74
0
42
0.000000001
43
0.0000000001
44
0.0000000001
40
0
40
0
40
0
40
0
40
0.04950574450288335
40
0.04950574450288335
40
0.10580345320185272
40
0.10580345320185272
40
0.18353354624735779
40
0.18353354624735779
40
0.18412182305811059
40
0.18412182305811059
40
0.18412182305811059
40
0.18412182305811059
10
-8.8112617062106509
20
112.75322905448687
30
-1.1921358122890524e-07
10
-8.9648375227930259
20
112.69284869442758
30
-1.1921357234712104e-07
10
-9.1357673898459506
20
112.62379200793791
30
-1.1921357234712104e-07
10
-9.5288544501852819
20
112.45878661013518
30
-1.1921357234712104e-07
10
-9.7097457719723472
20
112.37943290649646
30
-1.1921356346533685e-07
10
-10.067535528826479
20
112.21897385257934
30
-1.1921355458355265e-07
10
-10.253199219768547
20
112.13238815723044
30
-1.1921355458355265e-07
10
-10.429605755436578
20
112.04786556883548
30
-1.1921355458355265e-07
10
-10.430930747677484
20
112.04723057512578
30
-1.1921355458355265e-07
10
-10.432255677173888
20
112.04659546827357
30
-1.1921355458355265e-07
0
SPLINE
5
121
100
AcDbEntity
8
0
100
AcDbSpline
70
4
71
5
72
13
73
7
74
0
42
0.000000001
43
0.0000000001
44
0.0000000001
40
-0.93113295770608451
40
-0.93113295770608451
40
-0.93113295770608451
40
-0.93113295770608451
40
-0.93113295770608451
40
-0.93113295770608451
40
-0.89999999999999991
40
-0.88352748181368468
40
-0.88352748181368468
40
-0.88352748181368468
40
-0.88352748181368468
40
-0.88352748181368468
40
-0.88352748181368468
41
1
41
1
41
1
41
1
41
1
41
1
41
1
10
-10.432255677173378
20
112.04659546827381
30
-1.1921355458355265e-07
10
-11.311037270462609
20
111.62535025258288
30
-1.1921353681998426e-07
10
-12.633428256407504
20
110.91117568206809
30
-1.1921351017463166e-07
10
-13.923980374912595
20
110.09237519239025
30
-1.1921347464749488e-07
10
-15.184173051451138
20
109.17346529811057
30
-1.1921344800214229e-07
10
-16.415771311872255
20
108.15987462162452
30
-1.192134035932213e-07
10
-16.838583775628823
20
107.79805072014187
30
-1.1921338582965291e-07
0
SPLINE
5
122
100
AcDbEntity
8
0
100
AcDbSpline
70
0
71
3
72
10
73
6
74
0
42
0.000000001
43
0.0000000001
44
0.0000000001
40
-0.25942475384445646
40
-0.25942475384445646
40
-0.25942475384445646
40
-0.25942475384445646
40
-0.18830904793026676
40
-0.18830904793026676
40
-0.13267082109720651
40
-0.13267082109720651
40
-0.13267082109720651
40
-0.13267082109720651
10
-16.83858377562882
20
107.79805072014187
30
-1.1921335030251612e-07
10
-17.018690788602854
20
107.64392323407002
30
-1.1921334142073192e-07
10
-17.179896547280538
20
107.46899014175476
30
-1.1921334142073192e-07
10
-17.427516921051836
20
107.12664312788829
30
-1.1921332365716353e-07
10
-17.521975435315042
20
106.96670525768725
30
-1.1921332365716353e-07
10
-17.60103996482616
20
106.79918635126741
30
-1.1921331477537933e-07
0
SPLINE
5
123
100
AcDbEntity
8
0
100
AcDbSpline
70
4
71
5
72
21
73
15
74
0
42
0.000000001
43
0.0000000001
44
0.0000000001
40
-1
40
-1
40
-1
40
-1
40
-1
40
-1
40
-0.89999999999999991
40
-0.79999999999999993
40
-0.69999999999999996
40
-0.59999999999999998
40
-0.5
40
-0.40000000000000002
40
-0.30000000000000004
40
-0.20000000000000001
40
-0.10000000000000001
40
-0
40
-0
40
-0
40
-0
40
-0
40
-0
41
1
41
1
41
1
41
1
41
1
41
1
41
1
41
1
41
1
41
1
41
1
41
1
41
1
41
1
41
1
10
-17.601039959554825
20
106.79918634627442
30
-1.1921330589359513e-07
10
-18.362281490213121
20
105.99550590468499
30
-1.1921327036645835e-07
10
-19.69174664944806
20
104.01301635330694
30
-1.1921319931218477e-07
10
-21.108257701511334
20
99.913126646820345
30
-1.1921303944006922e-07
10
-22.322806695687984
20
92.267146016656781
30
-1.1921274634119072e-07
10
-25.176396594185707
20
79.558790430455872
30
-1.1921225784305989e-07
10
-31.694475498511739
20
64.681163636928233
30
-1.1921168940887128e-07
10
-43.24468544836197
20
48.991374214500269
30
-1.1921108544754588e-07
10
-58.031369474275849
20
35.005874916347182
30
-1.1921054365870987e-07
10
-71.780263631459718
20
25.146656433018137
30
-1.192101617419894e-07
10
-82.958498814635263
20
19.041875453137301
30
-1.1920992193381608e-07
10
-89.036797548904175
20
16.296867369998395
30
-1.1920981535240571e-07
10
-91.903551117933389
20
14.806472556874443
30
-1.1920976206170053e-07
10
-93.057540670258859
20
13.972492948617033
30
-1.1920972653456374e-07
10
-93.445616064562941
20
13.59514527291833
30
-1.1920970877099535e-07
0
SPLINE
5
124
100
AcDbEntity
8
0
100
AcDbSpline
70
0
71
3
72
12
73
8
74
0
42
0.000000001
43
0.0000000001
44
0.0000000001
40
0.22767862229775535
40
0.22767862229775535
40
0.22767862229775535
40
0.22767862229775535
40
0.23438668398480011
40
0.23438668398480011
40
0.35158002597719884
40
0.35158002597719884
40
0.46495671111813947
40
0.46495671111813947
40
0.46495671111813947
40
0.46495671111813947
10
-93.445616073559066
20
13.595145282170215
30
-1.1920972653456374e-07
10
-93.461688577401503
20
13.579633147234944
30
-1.1920972653456374e-07
10
-93.477595566326798
20
13.563934041265693
30
-1.1920971765277955e-07
10
-93.768285016611571
20
13.270552875693621
30
-1.1920970877099535e-07
10
-93.986406345571709
20
12.942004358595279
30
-1.1920969100742695e-07
10
-94.279581049125596
20
12.231551366953731
30
-1.1920967324385856e-07
10
-94.356388998551949
20
11.858211736961392
30
-1.1920966436207436e-07
10
-94.361936052770574
20
11.48059243900317
30
-1.1920964659850597e-07
0
SPLINE
5
125
100
AcDbEntity
8
0
100
AcDbSpline
70
4
71
5
72
12
73
6
74
0
42
0.000000001
43
0.0000000001
44
0.0000000001
40
-0.0020651652190761855
40
-0.0020651652190761855
40
-0.0020651652190761855
40
-0.0020651652190761855
40
-0.0020651652190761855
40
-0.0020651652190761855
40
-0
40
-0
40
-0
40
-0
40
-0
40
-0
41
1
41
1
41
1
41
1
41
1
41
1
10
-94.361936052770943
20
11.480592439008033
30
-1.1920963771672177e-07
10
-94.362065530239065
20
11.460463623807302
30
-1.1920963771672177e-07
10
-94.36216261455256
20
11.440407570304183
30
-1.1920963771672177e-07
10
-94.362227324434457
20
11.420424313931168
30
-1.1920963771672177e-07
10
-94.362259674326594
20
11.400513882545615
30
-1.1920963771672177e-07
10
-94.362259674326594
20
11.380676296320546
30
-1.1920963771672177e-07
0
LINE
5
126
100
AcDbEntity
8
0
100
AcDbLine
10
-94.362259674326594
20
11.380676296320546
30
-1.1920963771672177e-07
11
-94.362259674326637
21
-12.678590176623901
31
-1.192089627011228e-07
0
SPLINE
5
127
100
AcDbEntity
8
0
100
AcDbSpline
70
4
71
5
72
12
73
6
74
0
42
0.000000001
43
0.0000000001
44
0.0000000001
40
0
40
0
40
0
40
0
40
0
40
0
40
0.0013023794137521701
40
0.0013023794137521701
40
0.0013023794137521701
40
0.0013023794137521701
40
0.0013023794137521701
40
0.0013023794137521701
41
1
41
1
41
1
41
1
41
1
41
1
10
-94.362259674326623
20
-12.678590176623905
30
-1.1920871401116528e-07
10
-94.362259674326623
20
-12.696832825158415
30
-1.1920871401116528e-07
10
-94.362219204328014
20
-12.715079090269798
30
-1.1920871401116528e-07
10
-94.362138261150392
20
-12.733328974560642
30
-1.1920871401116528e-07
10
-94.362016842911046
20
-12.751582479893294
30
-1.1920871401116528e-07
10
-94.361854949010819
20
-12.76983960739933
30
-1.1920871401116528e-07
0
SPLINE
5
128
100
AcDbEntity
8
0
100
AcDbSpline
70
0
71
3
72
10
73
6
74
0
42
0.000000001
43
0.0000000001
44
0.0000000001
40
0
40
0
40
0
40
0
40
0.05234373536110002
40
0.05234373536110002
40
0.10467860882487032
40
0.10467860882487032
40
0.10467860882487032
40
0.10467860882487032
10
-94.361854949010521
20
-12.769839607414255
30
-1.192086696022443e-07
10
-94.358989033618897
20
-12.944295186579204
30
-1.192086607204601e-07
10
-94.340909145974749
20
-13.118168652465673
30
-1.1920865183867591e-07
10
-94.274738462217655
20
-13.460765610364064
30
-1.1920863407510751e-07
10
-94.226778666794104
20
-13.628838025640428
30
-1.1920864295689171e-07
10
-94.164487130196903
20
-13.791787158215293
30
-1.1920863407510751e-07
0
SPLINE
5
129
100
AcDbEntity
8
0
100
AcDbSpline
70
0
71
3
72
12
73
8
74
0
42
0.000000001
43
0.0000000001
44
0.0000000001
40
0
40
0
40
0
40
0
40
0.11695341011132768
40
0.11695341011132768
40
0.18592242143607801
40
0.18592242143607801
40
0.25489462099695692
40
0.25489462099695692
40
0.25489462099695692
40
0.25489462099695692
10
-94.164487130178358
20
-13.79178715826381
30
-1.1920863407510751e-07
10
-94.02528343779737
20
-14.155931665890833
30
-1.1920861631153912e-07
10
-93.816425248499343
20
-14.489475117276822
30
-1.1920860742975492e-07
10
-93.392283334422942
20
-14.941341298276116
30
-1.1920858966618653e-07
10
-93.216197648698298
20
-15.09032380762012
30
-1.1920858966618653e-07
10
-92.833461728042096
20
-15.345143286514162
30
-1.1920857190261813e-07
10
-92.6280755276767
20
-15.450135746733277
30
-1.1920856302083394e-07
10
-92.412723178703146
20
-15.530638833872676
30
-1.1920856302083394e-07
0
SPLINE
5
130
100
AcDbEntity
8
0
100
AcDbSpline
70
0
71
3
72
24
73
20
74
0
42
0.000000001
43
0.0000000001
44
0.0000000001
40
0
40
0
40
0
40
0
40
0.38416885920845756
40
0.38416885920845756
40
1.5106704951862511
40
1.5106704951862511
40
2.420955173382437
40
2.420955173382437
40
3.4698006829500159
40
3.4698006829500159
40
4.2016363587334213
40
4.2016363587334213
40
4.5515917127647363
40
4.5515917127647363
40
4.714642134067681
40
4.714642134067681
40
4.7864722421598298
40
4.7864722421598298
40
4.8512829845387708
40
4.8512829845387708
40
4.8512829845387708
40
4.8512829845387708
10
-92.41272317870272
20
-15.530638833872715
30
-1.1920856302083394e-07
10
-91.266903835375913
20
-16.102424878811025
30
-1.1920854525726554e-07
10
-89.222331100911774
20
-16.814238446358512
30
-1.1920843867585518e-07
10
-79.587697327498987
20
-20.154035384306951
30
-1.1920831433087642e-07
10
-68.973724218132475
20
-23.807884388847469
30
-1.1920842091228678e-07
10
-50.264868186914185
20
-37.005274492117465
30
-1.1920790576880336e-07
10
-43.635761021573657
20
-44.182037347564901
30
-1.1920759490635646e-07
10
-31.944714666139795
20
-62.906033932392909
30
-1.1920687548183651e-07
10
-28.037540435745175
20
-73.710940326622435
30
-1.1920644027441085e-07
10
-23.008326163197243
20
-89.719524225142408
30
-1.1920581854951706e-07
10
-21.433638110267935
20
-95.548676191388253
30
-1.1920595177628002e-07
10
-19.212186771244234
20
-101.72702197584897
30
-1.192057119681067e-07
10
-18.508309541005378
20
-103.35145861027985
30
-1.1920574749524349e-07
10
-17.443742137970769
20
-104.97809368638937
30
-1.1920568532275411e-07
10
-17.089711618393341
20
-105.40030330331375
30
-1.1920567644096991e-07
10
-16.551735804557552
20
-105.81356683459974
30
-1.1920565867740152e-07
10
-16.371883947772513
20
-105.92248107746423
30
-1.1920564091383312e-07
10
-16.003059104390168
20
-106.06346825702418
30
-1.1920564091383312e-07
10
-15.822009784447367
20
-106.09999999999889
30
-1.1920509024321291e-07
10
-15.634722499221269
20
-106.09999999999889
30
-1.1920509024321291e-07
0
LINE
5
131
100
AcDbEntity
8
0
100
AcDbLine
10
-15.634722499221269
20
-106.09999999999891
30
-1.1920509024321291e-07
11
15.634722499221269
21
-106.10000000000053
31
-1.1920509024321291e-07
0
SPLINE
5
132
100
AcDbEntity
8
0
100
AcDbSpline
70
0
71
3
72
24
73
20
74
0
42
0.000000001
43
0.0000000001
44
0.0000000001
40
0
40
0
40
0
40
0
40
0.38416885920845756
40
0.38416885920845756
40
1.5106704951862511
40
1.5106704951862511
40
2.420955173382437
40
2.420955173382437
40
3.4698006829500159
40
3.4698006829500159
40
4.2016363587334213
40
4.2016363587334213
40
4.5515917127647363
40
4.5515917127647363
40
4.714642134067681
40
4.714642134067681
40
4.7864722421598298
40
4.7864722421598298
40
4.8512829845387708
40
4.8512829845387708
40
4.8512829845387708
40
4.8512829845387708
10
92.41272317870272
20
-15.530638833872711
30
-1.1920858966618653e-07
10
91.266903835375913
20
-16.102424878811021
30
-1.1920857190261813e-07
10
89.222331100911774
20
-16.814238446358512
30
-1.1920846532120777e-07
10
79.587697327499001
20
-20.154035384306951
30
-1.1920832321266062e-07
10
68.973724218132489
20
-23.807884388847469
30
-1.1920842979407098e-07
10
50.2648681869142
20
-37.005274492117472
30
-1.1920791465058755e-07
10
43.635761021573671
20
-44.182037347564894
30
-1.1920760378814066e-07
10
31.944714666139799
20
-62.906033932392909
30
-1.1920687548183651e-07
10
28.037540435745179
20
-73.710940326622435
30
-1.1920644027441085e-07
10
23.008326163197246
20
-89.719524225142408
30
-1.1920581854951706e-07
10
21.433638110267946
20
-95.548676191388253
30
-1.1920595177628002e-07
10
19.212186771244234
20
-101.72702197584897
30
-1.192057119681067e-07
10
18.508309541005378
20
-103.35145861027985
30
-1.1920574749524349e-07
10
17.443742137970773
20
-104.97809368638937
30
-1.1920568532275411e-07
10
17.089711618393345
20
-105.40030330331375
30
-1.1920567644096991e-07
10
16.551735804557556
20
-105.81356683459974
30
-1.1920565867740152e-07
10
16.371883947772517
20
-105.92248107746423
30
-1.1920564091383312e-07
10
16.003059104390175
20
-106.06346825702418
30
-1.1920564091383312e-07
10
15.822009784447371
20
-106.09999999999889
30
-1.1920509024321291e-07
10
15.634722499221274
20
-106.09999999999889
30
-1.1920509024321291e-07
0
SPLINE
5
133
100
AcDbEntity
8
0
100
AcDbSpline
70
0
71
3
72
12
73
8
74
0
42
0.000000001
43
0.0000000001
44
0.0000000001
40
0
40
0
40
0
40
0
40
0.11695341011132768
40
0.11695341011132768
40
0.18592242143607801
40
0.18592242143607801
40
0.25489462099695692
40
0.25489462099695692
40
0.25489462099695692
40
0.25489462099695692
10
94.164487130178358
20
-13.791787158263812
30
-1.192086607204601e-07
10
94.02528343779737
20
-14.155931665890831
30
-1.1920864295689171e-07
10
93.816425248499343
20
-14.48947511727682
30
-1.1920863407510751e-07
10
93.392283334422942
20
-14.941341298276114
30
-1.1920861631153912e-07
10
93.216197648698298
20
-15.090323807620118
30
-1.1920861631153912e-07
10
92.833461728042096
20
-15.34514328651416
30
-1.1920859854797072e-07
10
92.6280755276767
20
-15.450135746733276
30
-1.1920858966618653e-07
10
92.412723178703146
20
-15.530638833872674
30
-1.1920858966618653e-07
0
SPLINE
5
134
100
AcDbEntity
8
0
100
AcDbSpline
70
0
71
3
72
10
73
6
74
0
42
0.000000001
43
0.0000000001
44
0.0000000001
40
0
40
0
40
0
40
0
40
0.05234373536110002
40
0.05234373536110002
40
0.10467860882487032
40
0.10467860882487032
40
0.10467860882487032
40
0.10467860882487032
10
94.361854949010521
20
-12.769839607414257
30
-1.1920869624759689e-07
10
94.358989033618897
20
-12.944295186579208
30
-1.1920868736581269e-07
10
94.340909145974749
20
-13.118168652465677
30
-1.192086784840285e-07
10
94.274738462217655
20
-13.460765610364065
30
-1.192086607204601e-07
10
94.226778666794104
20
-13.62883802564043
30
-1.192086696022443e-07
10
94.164487130196903
20
-13.791787158215294
30
-1.192086607204601e-07
0
SPLINE
5
135
100
AcDbEntity
8
0
100
AcDbSpline
70
4
71
5
72
12
73
6
74
0
42
0.000000001
43
0.0000000001
44
0.0000000001
40
0
40
0
40
0
40
0
40
0
40
0
40
0.0013023794137521701
40
0.0013023794137521701
40
0.0013023794137521701
40
0.0013023794137521701
40
0.0013023794137521701
40
0.0013023794137521701
41
1
41
1
41
1
41
1
41
1
41
1
10
94.362259674326623
20
-12.678590176623906
30
-1.1920874065651788e-07
10
94.362259674326623
20
-12.696832825158417
30
-1.1920874065651788e-07
10
94.362219204328014
20
-12.7150790902698
30
-1.1920874065651788e-07
10
94.362138261150392
20
-12.733328974560646
30
-1.1920874065651788e-07
10
94.362016842911046
20
-12.751582479893296
30
-1.1920874065651788e-07
10
94.361854949010819
20
-12.769839607399332
30
-1.1920874065651788e-07
0
LINE
5
136
100
AcDbEntity
8
0
100
AcDbLine
10
94.362259674326623
20
-12.678590176623906
30
-1.1920874065651788e-07
11
94.362259674326594
21
11.380676294404939
31
-1.1920962883493758e-07
0
SPLINE
5
137
100
AcDbEntity
8
0
100
AcDbSpline
70
4
71
5
72
12
73
6
74
0
42
0.000000001
43
0.0000000001
44
0.0000000001
40
-0.0020651652190761855
40
-0.0020651652190761855
40
-0.0020651652190761855
40
-0.0020651652190761855
40
-0.0020651652190761855
40
-0.0020651652190761855
40
-0
40
-0
40
-0
40
-0
40
-0
40
-0
41
1
41
1
41
1
41
1
41
1
41
1
10
94.361936052770943
20
11.480592439008028
30
-1.1920966436207436e-07
10
94.36206553023905
20
11.4604636238073
30
-1.1920966436207436e-07
10
94.362162614552545
20
11.440407570304183
30
-1.1920966436207436e-07
10
94.362227324434457
20
11.420424313931166
30
-1.1920966436207436e-07
10
94.362259674326594
20
11.400513882545614
30
-1.1920966436207436e-07
10
94.362259674326594
20
11.380676296320544
30
-1.1920966436207436e-07
0
SPLINE
5
138
100
AcDbEntity
8
0
100
AcDbSpline
70
0
71
3
72
12
73
8
74
0
42
0.000000001
43
0.0000000001
44
0.0000000001
40
0.22767862229775535
40
0.22767862229775535
40
0.22767862229775535
40
0.22767862229775535
40
0.23438668398480011
40
0.23438668398480011
40
0.35158002597719884
40
0.35158002597719884
40
0.46495671111813947
40
0.46495671111813947
40
0.46495671111813947
40
0.46495671111813947
10
93.445616073559052
20
13.595145282170218
30
-1.1920975317991633e-07
10
93.461688577401475
20
13.579633147234954
30
-1.1920975317991633e-07
10
93.477595566326798
20
13.563934041265695
30
-1.1920974429813214e-07
10
93.768285016611571
20
13.270552875693625
30
-1.1920973541634794e-07
10
93.986406345571709
20
12.94200435859528
30
-1.1920971765277955e-07
10
94.279581049125596
20
12.231551366953727
30
-1.1920969988921115e-07
10
94.356388998551949
20
11.858211736961392
30
-1.1920969100742695e-07
10
94.361936052770574
20
11.480592439003164
30
-1.1920967324385856e-07
0
SPLINE
5
139
100
AcDbEntity
8
0
100
AcDbSpline
70
4
71
5
72
21
73
15
74
0
42
0.000000001
43
0.0000000001
44
0.0000000001
40
-1
40
-1
40
-1
40
-1
40
-1
40
-1
40
-0.89999999999999991
40
-0.79999999999999993
40
-0.69999999999999996
40
-0.59999999999999998
40
-0.5
40
-0.40000000000000002
40
-0.30000000000000004
40
-0.20000000000000001
40
-0.10000000000000001
40
-0
40
-0
40
-0
40
-0
40
-0
40
-0
41
1
41
1
41
1
41
1
41
1
41
1
41
1
41
1
41
1
41
1
41
1
41
1
41
1
41
1
41
1
10
17.601039959554829
20
106.79918634627442
30
-1.1921330589359513e-07
10
18.362281490213125
20
105.99550590468499
30
-1.1921327036645835e-07
10
19.691746649448064
20
104.01301635330694
30
-1.1921319931218477e-07
10
21.108257701511334
20
99.913126646820345
30
-1.1921303944006922e-07
10
22.322806695687987
20
92.267146016656781
30
-1.1921274634119072e-07
10
25.176396594185711
20
79.558790430455872
30
-1.1921225784305989e-07
10
31.694475498511743
20
64.681163636928233
30
-1.1921168940887128e-07
10
43.24468544836197
20
48.991374214500276
30
-1.1921109432933008e-07
10
58.031369474275856
20
35.005874916347182
30
-1.1921055254049406e-07
10
71.780263631459732
20
25.146656433018137
30
-1.1921017062377359e-07
10
82.958498814635263
20
19.041875453137301
30
-1.1920994857916867e-07
10
89.036797548904175
20
16.296867369998395
30
-1.192098419977583e-07
10
91.903551117933389
20
14.806472556874446
30
-1.1920978870705312e-07
10
93.057540670258859
20
13.972492948617035
30
-1.1920975317991633e-07
10
93.445616064562941
20
13.595145272918332
30
-1.1920973541634794e-07
0
SPLINE
5
140
100
AcDbEntity
8
0
100
AcDbSpline
70
0
71
3
72
10
73
6
74
0
42
0.000000001
43
0.0000000001
44
0.0000000001
40
-0.25942475384445646
40
-0.25942475384445646
40
-0.25942475384445646
40
-0.25942475384445646
40
-0.18830904793026676
40
-0.18830904793026676
40
-0.13267082109720651
40
-0.13267082109720651
40
-0.13267082109720651
40
-0.13267082109720651
10
16.838583775628823
20
107.79805072014187
30
-1.1921335030251612e-07
10
17.018690788602857
20
107.64392323407002
30
-1.1921334142073192e-07
10
17.179896547280546
20
107.46899014175476
30
-1.1921334142073192e-07
10
17.42751692105184
20
107.12664312788829
30
-1.1921332365716353e-07
10
17.521975435315046
20
106.96670525768725
30
-1.1921332365716353e-07
10
17.601039964826168
20
106.79918635126741
30
-1.1921331477537933e-07
0
SPLINE
5
141
100
AcDbEntity
8
0
100
AcDbSpline
70
4
71
5
72
13
73
7
74
0
42
0.000000001
43
0.0000000001
44
0.0000000001
40
-0.93113295770608451
40
-0.93113295770608451
40
-0.93113295770608451
40
-0.93113295770608451
40
-0.93113295770608451
40
-0.93113295770608451
40
-0.89999999999999991
40
-0.88352748181368468
40
-0.88352748181368468
40
-0.88352748181368468
40
-0.88352748181368468
40
-0.88352748181368468
40
-0.88352748181368468
41
1
41
1
41
1
41
1
41
1
41
1
41
1
10
10.432255677173384
20
112.04659546827381
30
-1.1921355458355265e-07
10
11.311037270462613
20
111.62535025258288
30
-1.1921353681998426e-07
10
12.633428256407509
20
110.91117568206809
30
-1.1921351017463166e-07
10
13.923980374912599
20
110.09237519239025
30
-1.1921347464749488e-07
10
15.184173051451141
20
109.17346529811057
30
-1.1921344800214229e-07
10
16.415771311872259
20
108.15987462162452
30
-1.192134035932213e-07
10
16.838583775628827
20
107.79805072014187
30
-1.1921338582965291e-07
0
SPLINE
5
142
100
AcDbEntity
8
0
100
AcDbSpline
70
0
71
3
72
14
73
10
74
0
42
0.000000001
43
0.0000000001
44
0.0000000001
40
0
40
0
40
0
40
0
40
0.04950574450288335
40
0.04950574450288335
40
0.10580345320185272
40
0.10580345320185272
40
0.18353354624735779
40
0.18353354624735779
40
0.18412182305811059
40
0.18412182305811059
40
0.18412182305811059
40
0.18412182305811059
10
8.8112617062106562
20
112.75322905448687
30
-1.1921358122890524e-07
10
8.9648375227930313
20
112.69284869442758
30
-1.1921357234712104e-07
10
9.1357673898459559
20
112.62379200793791
30
-1.1921357234712104e-07
10
9.5288544501852854
20
112.45878661013518
30
-1.1921357234712104e-07
10
9.7097457719723508
20
112.37943290649646
30
-1.1921356346533685e-07
10
10.067535528826483
20
112.21897385257934
30
-1.1921355458355265e-07
10
10.253199219768552
20
112.13238815723044
30
-1.1921355458355265e-07
10
10.429605755436581
20
112.04786556883548
30
-1.1921355458355265e-07
10
10.43093074767749
20
112.04723057512578
30
-1.1921355458355265e-07
10
10.432255677173892
20
112.04659546827357
30
-1.1921355458355265e-07
0
SPLINE
5
143
100
AcDbEntity
8
0
100
AcDbSpline
70
4
71
5
72
12
73
6
74
0
42
0.000000001
43
0.0000000001
44
0.0000000001
40
-1
40
-1
40
-1
40
-1
40
-1
40
-1
40
-0.94248573560815097
40
-0.94248573560815097
40
-0.94248573560815097
40
-0.94248573560815097
40
-0.94248573560815097
40
-0.94248573560815097
41
1
41
1
41
1
41
1
41
1
41
1
10
2.2068453461230261e-11
20
114.37499999974096
30
-1.1921364340139462e-07
10
1.8649609827056148
20
114.38563987949506
30
-1.1921364340139462e-07
10
3.6780389641764617
20
114.2272038165944
30
-1.1921363451961042e-07
10
5.4392542895709646
20
113.89973525321672
30
-1.1921362563782623e-07
10
7.1496970336803933
20
113.40649514430332
30
-1.1921359899247364e-07
10
8.8112617062106402
20
112.75322905448687
30
-1.1921357234712104e-07
0
LWPOLYLINE
5
144
100
AcDbEntity
8
0
100
AcDbPolyline
90
8
70
1
43
0.0
10
21.915833722385667
20
48.14630332799468
10
28.699625820764524
20
39.101247196822861
42
-0.162293178381819
10
28.999625818021148
20
38.201156476795482
10
28.999180990880802
20
30.846212607967281
42
-0.41419584829679856
10
27.499180993624179
20
29.34630332799469
10
22.015833722385661
20
29.34630332799469
42
-0.41421356237309503
10
21.015833722385658
20
30.346303327994693
10
21.015833722385654
20
47.846303327994676
42
-0.72075922005612714
0
ARC
5
145
100
AcDbEntity
8
0
100
AcDbCircle
10
26.807825835071824
20
-37.38774451646848
30
-1.1920797682307693e-07
40
1.4999999999999991
210
0
220
4.1448326252672534e-14
230
1
100
AcDbArc
50
90
51
219.82518613297677
0
LINE
5
146
100
AcDbEntity
8
0
100
AcDbLine
10
26.807825835071824
20
-35.88774451646848
30
-1.1920803899556631e-07
11
41.528165316942975
21
-35.887744516468338
31
-1.1920773701490361e-07
0
SPLINE
5
147
100
AcDbEntity
8
0
100
AcDbSpline
70
0
71
3
72
18
73
14
74
0
42
0.000000001
43
0.0000000001
44
0.0000000001
40
0
40
0
40
0
40
0
40
0.058596671008041265
40
0.058596671008041265
40
0.11719334201607987
40
0.11719334201607987
40
0.17579001302411879
40
0.17579001302411879
40
0.2343866840321579
40
0.2343866840321579
40
0.28536897558796626
40
0.28536897558796626
40
0.33635126714377606
40
0.33635126714377606
40
0.33635126714377606
40
0.33635126714377606
10
41.52816531694296
20
-35.887744516468338
30
-1.1920780806917719e-07
10
41.723487553636431
20
-35.887744516468338
30
-1.1920780806917719e-07
10
41.91694240328826
20
-35.925895292615287
30
-1.192077903056088e-07
10
42.278339341711529
20
-36.074203611620128
30
-1.192077903056088e-07
10
42.442826278775094
20
-36.182943246114064
30
-1.192077814238246e-07
10
42.720860135683353
20
-36.457352209160945
30
-1.1920776366025621e-07
10
42.831748900315851
20
-36.620398038462717
30
-1.1920776366025621e-07
10
42.984786909831229
20
-36.979817670969524
30
-1.1920774589668781e-07
10
43.02547302793095
20
-37.172755226588954
30
-1.1920774589668781e-07
10
43.03026622393795
20
-37.537986984229867
30
-1.1920772813311942e-07
10
43.003602710682614
20
-37.707063214744871
30
-1.1920772813311942e-07
10
42.894769834097872
20
-38.029049457667213
30
-1.1920771036955102e-07
10
42.813387665797087
20
-38.17963052336588
30
-1.1920773701490361e-07
10
42.708521257805771
20
-38.313357747180767
30
-1.1920772813311942e-07
0
SPLINE
5
148
100
AcDbEntity
8
0
100
AcDbSpline
70
0
71
3
72
8
73
4
74
0
42
0.000000001
43
0.0000000001
44
0.0000000001
40
-0.49321454999987779
40
-0.49321454999987779
40
-0.49321454999987779
40
-0.49321454999987779
40
-0.42195517139158745
40
-0.42195517139158745
40
-0.42195517139158745
40
-0.42195517139158745
10
35.480982899700912
20
-47.343054129290685
30
-1.1920722187142019e-07
10
37.936543837326859
20
-44.333972378120954
30
-1.1920733733461475e-07
10
40.365292206838852
20
-41.301478745599447
30
-1.192074705613777e-07
10
42.70852125750536
20
-38.313357747563849
30
-1.1920758602457227e-07
0
SPLINE
5
149
100
AcDbEntity
8
0
100
AcDbSpline
70
0
71
3
72
16
73
12
74
0
42
0.000000001
43
0.0000000001
44
0.0000000001
40
0
40
0
40
0
40
0
40
0.058596671008039218
40
0.058596671008039218
40
0.1171933420160782
40
0.1171933420160782
40
0.17579001302411745
40
0.17579001302411745
40
0.22040708120756786
40
0.22040708120756786
40
0.26502414939101832
40
0.26502414939101832
40
0.26502414939101832
40
0.26502414939101832
10
35.480982899700585
20
-47.343054129291112
30
-1.1920734621639895e-07
10
35.357490830218119
20
-47.494383191013824
30
-1.1920733733461475e-07
10
35.205621481415882
20
-47.620144717200532
30
-1.1920732845283055e-07
10
34.862224765677603
20
-47.806375220093884
30
-1.1920732845283055e-07
10
34.673980458509689
20
-47.865063731689403
30
-1.1920732845283055e-07
10
34.285591360748967
20
-47.906980474506184
30
-1.1920732845283055e-07
10
34.089159781619173
20
-47.889807958819723
30
-1.1920732845283055e-07
10
33.758694886723866
20
-47.794097646496319
30
-1.1920732845283055e-07
10
33.622786295389091
20
-47.731707665131431
30
-1.1920733733461475e-07
10
33.373789536578585
20
-47.568995022642554
30
-1.1920733733461475e-07
10
33.262080148791263
20
-47.469573356726642
30
-1.1920734621639895e-07
10
33.166830536964213
20
-47.355353354416366
30
-1.1920734621639895e-07
0
LINE
5
150
100
AcDbEntity
8
0
100
AcDbLine
10
33.166830536964213
20
-47.35535335441638
30
-1.1920734621639895e-07
11
25.655822731051465
21
-38.348415557110108
31
-1.1920793241415595e-07
0
ARC
5
151
100
AcDbEntity
8
0
100
AcDbCircle
10
-26.807825835071814
20
-37.387744516468487
30
-1.1920797682307693e-07
40
1.4999999999999958
210
-2.2737428809298637e-14
220
1.8961050816194673e-14
230
1
100
AcDbArc
50
-39.825186132977024
51
90
0
LINE
5
152
100
AcDbEntity
8
0
100
AcDbLine
10
-25.655822731051465
20
-38.348415557110116
30
-1.1920793241415595e-07
11
-33.166830536964213
21
-47.355353354416366
31
-1.1920730180747796e-07
0
SPLINE
5
153
100
AcDbEntity
8
0
100
AcDbSpline
70
0
71
3
72
16
73
12
74
0
42
0.000000001
43
0.0000000001
44
0.0000000001
40
0
40
0
40
0
40
0
40
0.058596671008039218
40
0.058596671008039218
40
0.1171933420160782
40
0.1171933420160782
40
0.17579001302411745
40
0.17579001302411745
40
0.22040708120756786
40
0.22040708120756786
40
0.26502414939101832
40
0.26502414939101832
40
0.26502414939101832
40
0.26502414939101832
10
-35.480982899700585
20
-47.343054129291112
30
-1.1920734621639895e-07
10
-35.357490830218119
20
-47.494383191013824
30
-1.1920733733461475e-07
10
-35.205621481415882
20
-47.620144717200532
30
-1.1920732845283055e-07
10
-34.862224765677603
20
-47.806375220093884
30
-1.1920732845283055e-07
10
-34.673980458509689
20
-47.865063731689403
30
-1.1920732845283055e-07
10
-34.285591360748967
20
-47.906980474506184
30
-1.1920732845283055e-07
10
-34.089159781619173
20
-47.889807958819723
30
-1.1920732845283055e-07
10
-33.758694886723866
20
-47.794097646496319
30
-1.1920732845283055e-07
10
-33.622786295389091
20
-47.731707665131431
30
-1.1920733733461475e-07
10
-33.373789536578585
20
-47.568995022642554
30
-1.1920733733461475e-07
10
-33.262080148791263
20
-47.469573356726642
30
-1.1920734621639895e-07
10
-33.166830536964213
20
-47.355353354416366
30
-1.1920734621639895e-07
0
SPLINE
5
154
100
AcDbEntity
8
0
100
AcDbSpline
70
0
71
3
72
8
73
4
74
0
42
0.000000001
43
0.0000000001
44
0.0000000001
40
-0.49321454999987779
40
-0.49321454999987779
40
-0.49321454999987779
40
-0.49321454999987779
40
-0.42195517139158745
40
-0.42195517139158745
40
-0.42195517139158745
40
-0.42195517139158745
10
-35.480982899700912
20
-47.343054129290685
30
-1.1920722187142019e-07
10
-37.936543837326859
20
-44.333972378120961
30
-1.1920733733461475e-07
10
-40.365292206838831
20
-41.301478745599454
30
-1.1920746167959351e-07
10
-42.708521257505339
20
-38.313357747563842
30
-1.1920757714278807e-07
0
SPLINE
5
155
100
AcDbEntity
8
0
100
AcDbSpline
70
0
71
3
72
18
73
14
74
0
42
0.000000001
43
0.0000000001
44
0.0000000001
40
0
40
0
40
0
40
0
40
0.058596671008041265
40
0.058596671008041265
40
0.11719334201607987
40
0.11719334201607987
40
0.17579001302411879
40
0.17579001302411879
40
0.2343866840321579
40
0.2343866840321579
40
0.28536897558796626
40
0.28536897558796626
40
0.33635126714377606
40
0.33635126714377606
40
0.33635126714377606
40
0.33635126714377606
10
-41.528165316942953
20
-35.887744516468338
30
-1.1920779918739299e-07
10
-41.723487553636424
20
-35.887744516468338
30
-1.1920779918739299e-07
10
-41.916942403288253
20
-35.92589529261528
30
-1.192077814238246e-07
10
-42.278339341711522
20
-36.074203611620128
30
-1.192077814238246e-07
10
-42.442826278775087
20
-36.182943246114064
30
-1.192077725420404e-07
10
-42.720860135683346
20
-36.457352209160938
30
-1.1920775477847201e-07
10
-42.831748900315844
20
-36.62039803846271
30
-1.1920775477847201e-07
10
-42.984786909831215
20
-36.979817670969517
30
-1.1920773701490361e-07
10
-43.025473027930943
20
-37.172755226588947
30
-1.1920773701490361e-07
10
-43.030266223937943
20
-37.53798698422986
30
-1.1920771925133522e-07
10
-43.0036027106826
20
-37.707063214744863
30
-1.1920771925133522e-07
10
-42.89476983409785
20
-38.029049457667213
30
-1.1920770148776683e-07
10
-42.813387665797073
20
-38.17963052336588
30
-1.1920772813311942e-07
10
-42.708521257805749
20
-38.313357747180767
30
-1.1920771925133522e-07
0
LINE
5
156
100
AcDbEntity
8
0
100
AcDbLine
10
-41.528165316942953
20
-35.887744516468338
30
-1.1920779918739299e-07
11
-26.807825835071814
21
-35.887744516468487
31
-1.1920803899556631e-07
0
LWPOLYLINE
5
157
100
AcDbEntity
8
0
100
AcDbPolyline
90
8
70
1
43
0.0
10
-28.699625820764521
20
39.101247196822861
10
-21.915833722385653
20
48.14630332799468
42
-0.72075922005612714
10
-21.015833722385654
20
47.846303327994676
10
-21.015833722385658
20
30.34630332799469
42
-0.41421356237309503
10
-22.015833722385661
20
29.346303327994686
10
-27.499180993624179
20
29.346303327994686
42
-0.41419584829679856
10
-28.999180990880802
20
30.846212607967274
10
-28.999625818021144
20
38.201156476795475
42
-0.162293178381819
0
CIRCLE
5
158
100
AcDbEntity
8
0
100
AcDbCircle
10
2.8347550059866146e-15
20
-66.124661172596618
30
1.1920915348121266e-07
40
1.749999999999974
210
-2.3014312569730243e-30
220
-3.8479636144077871e-14
230
-1
0
CIRCLE
5
159
100
AcDbEntity
8
0
100
AcDbCircle
10
4.4108255692001171e-16
20
13.875338827403374
30
1.1920917485300589e-07
40
1.7500000000000031
210
-2.2849232860210947e-30
220
-3.8479636144077871e-14
230
-1
0
CIRCLE
5
160
100
AcDbEntity
8
0
100
AcDbCircle
10
-27.590610431892856
20
12.500281461286949
30
1.1920916252905053e-07
40
1.55
210
-1.1102230246251345e-16
220
-3.8479636144077877e-14
230
-1
0
CIRCLE
5
161
100
AcDbEntity
8
0
100
AcDbCircle
10
-52.590610431892856
20
12.500281461286953
30
1.1920916863527717e-07
40
1.55
210
-1.1102230246251345e-16
220
-3.8479636144077877e-14
230
-1
0
CIRCLE
5
162
100
AcDbEntity
8
0
100
AcDbCircle
10
-33.590610431892848
20
15.500281461286951
30
1.1920917076898704e-07
40
1.4999999999999991
210
-1.1102230246251341e-16
220
-3.8479636144077871e-14
230
-1
0
CIRCLE
5
163
100
AcDbEntity
8
0
100
AcDbCircle
10
-40.649353323975319
20
15.500281461286887
30
1.1920917886709336e-07
40
1.5000000000000036
210
-1.1102230246251341e-16
220
-3.8479636144077871e-14
230
-1
0
CIRCLE
5
164
100
AcDbEntity
8
0
100
AcDbCircle
10
-11.155999999998025
20
-99.801076183868446
30
1.1920877832341511e-07
40
1.9999999999999996
210
-1.1102230246251342e-16
220
-3.8479636144077896e-14
230
-1
0
CIRCLE
5
165
100
AcDbEntity
8
0
100
AcDbCircle
10
-14.194016906841147
20
104.87499999941605
30
1.1920908224843397e-07
40
1.9999999999999929
210
-1.1102230246251347e-16
220
-3.8479636144077877e-14
230
-1
0
CIRCLE
5
166
100
AcDbEntity
8
0
100
AcDbCircle
10
-33.590610431892848
20
-28.999718538713047
30
1.1920912451952446e-07
40
1.4999999999999991
210
-1.1102230246251341e-16
220
-3.8479636144077871e-14
230
-1
0
CIRCLE
5
167
100
AcDbEntity
8
0
100
AcDbCircle
10
-40.649353323975049
20
-28.999718538713054
30
1.1920914149941497e-07
40
1.4999999999999947
210
-1.110223024625134e-16
220
-3.8479636144077871e-14
230
-1
0
CIRCLE
5
168
100
AcDbEntity
8
0
100
AcDbCircle
10
-27.590610431892856
20
-14.49971853871306
30
1.1920917119225958e-07
40
1.55
210
-1.1102230246251341e-16
220
-3.8479636144077877e-14
230
-1
0
CIRCLE
5
169
100
AcDbEntity
8
0
100
AcDbCircle
10
-52.590610431892856
20
-14.499718538713058
30
1.1920917729848622e-07
40
1.55
210
-1.1102230246251341e-16
220
-3.8479636144077877e-14
230
-1
0
CIRCLE
5
170
100
AcDbEntity
8
0
100
AcDbCircle
10
-89.3622596743256
20
9.6973558707431486
30
1.1920910365446114e-07
40
1.9999999999999929
210
-1.1102230246251342e-16
220
-3.8479636144077896e-14
230
-1
0
CIRCLE
5
171
100
AcDbEntity
8
0
100
AcDbCircle
10
-89.362259674326609
20
-10.76518792522103
30
1.1920910056690745e-07
40
1.9999999999999929
210
-1.1102230246251342e-16
220
-3.8479636144077896e-14
230
-1
0
CIRCLE
5
172
100
AcDbEntity
8
0
100
AcDbCircle
10
-12.000000000000565
20
4.2717352777949174
30
1.1920917891075644e-07
40
1.4999999999999969
210
-1.110223024625134e-16
220
-3.8479636144077871e-14
230
-1
0
CIRCLE
5
173
100
AcDbEntity
8
0
100
AcDbCircle
10
12.000000000000561
20
4.2717352777949174
30
1.1920918024302407e-07
40
1.4999999999999969
210
-2.3028986321687203e-30
220
-3.8479636144077871e-14
230
-1
0
CIRCLE
5
174
100
AcDbEntity
8
0
100
AcDbCircle
10
89.362259674326609
20
-10.765187925221031
30
1.1920908384275869e-07
40
1.9999999999999929
210
-2.2818779092940728e-30
220
-3.8479636144077896e-14
230
-1
0
CIRCLE
5
175
100
AcDbEntity
8
0
100
AcDbCircle
10
89.3622596743256
20
9.6973558707431504
30
1.1920908693031237e-07
40
1.9999999999999929
210
-2.2818779092940728e-30
220
-3.8479636144077896e-14
230
-1
0
CIRCLE
5
176
100
AcDbEntity
8
0
100
AcDbCircle
10
52.590610431892848
20
-14.49971853871306
30
1.1920917425543267e-07
40
1.55
210
-2.3049529574427297e-30
220
-3.8479636144077877e-14
230
-1
0
CIRCLE
5
177
100
AcDbEntity
8
0
100
AcDbCircle
10
27.590610431892848
20
-14.499718538713058
30
1.1920917425543267e-07
40
1.55
210
-2.3049529574427297e-30
220
-3.8479636144077877e-14
230
-1
0
CIRCLE
5
178
100
AcDbEntity
8
0
100
AcDbCircle
10
40.649353323975042
20
-28.999718538713051
30
1.1920913713061556e-07
40
1.4999999999999947
210
-2.302898632168722e-30
220
-3.8479636144077871e-14
230
-1
0
CIRCLE
5
179
100
AcDbEntity
8
0
100
AcDbCircle
10
33.590610431892841
20
-28.999718538713051
30
1.1920912824883137e-07
40
1.4999999999999991
210
-2.302898632168715e-30
220
-3.8479636144077871e-14
230
-1
0
CIRCLE
5
180
100
AcDbEntity
8
0
100
AcDbCircle
10
14.194016906841142
20
104.87499999941605
30
1.1920908382428641e-07
40
1.9999999999999929
210
-2.2387009673558491e-30
220
-3.8479636144077877e-14
230
-1
0
CIRCLE
5
181
100
AcDbEntity
8
0
100
AcDbCircle
10
11.155999999998023
20
-99.801076183868446
30
1.192087795619799e-07
40
1.9999999999999996
210
-2.2818779092941176e-30
220
-3.8479636144077896e-14
230
-1
0
CIRCLE
5
182
100
AcDbEntity
8
0
100
AcDbCircle
10
2.5368418884504922e-13
20
-26.124661172596628
30
1.1920916860800138e-07
40
1.7500000000000031
210
-2.3080344453537419e-30
220
-3.8479636144077871e-14
230
-1
0
CIRCLE
5
183
100
AcDbEntity
8
0
100
AcDbCircle
10
40.649353323975312
20
15.500281461286887
30
1.1920917449829396e-07
40
1.5000000000000036
210
-2.3028986321687084e-30
220
-3.8479636144077871e-14
230
-1
0
CIRCLE
5
184
100
AcDbEntity
8
0
100
AcDbCircle
10
33.590610431892841
20
15.500281461286951
30
1.1920917449829396e-07
40
1.4999999999999991
210
-2.302898632168715e-30
220
-3.8479636144077871e-14
230
-1
0
CIRCLE
5
185
100
AcDbEntity
8
0
100
AcDbCircle
10
52.590610431892848
20
12.500281461286951
30
1.1920916559222365e-07
40
1.55
210
-2.2618121266884546e-30
220
-3.8479636144077877e-14
230
-1
0
CIRCLE
5
186
100
AcDbEntity
8
0
100
AcDbCircle
10
27.590610431892848
20
12.500281461286951
30
1.1920916559222365e-07
40
1.55
210
-2.2618121266884546e-30
220
-3.8479636144077877e-14
230
-1
0
ENDSEC
0
SECTION
2
OBJECTS
0
DICTIONARY
5
C
100
AcDbDictionary
3
ACAD_GROUP
350
D
3
ACAD_MLINESTYLE
350
17
0
DICTIONARY
5
D
100
AcDbDictionary
0
DICTIONARY
5
1A
330
C
100
AcDbDictionary
0
DICTIONARY
5
17
100
AcDbDictionary
0
ENDSEC
0
EOF
