0
SECTION
2
HEADER
9
$INSUNITS
70
4
9
$ACADVER
1
AC1014
9
$HANDSEED
5
FFFF
0
ENDSEC
0
SECTION
2
TABLES
0
TABLE
2
VPORT
5
8
100
AcDbSymbolTable
0
ENDTAB
0
TABLE
2
LTYPE
5
5
100
AcDbSymbolTable
0
LTYPE
5
14
100
AcDbSymbolTableRecord
100
AcDbLinetypeTableRecord
2
BYBLOCK
70
0
0
LTYPE
5
15
100
AcDbSymbolTableRecord
100
AcDbLinetypeTableRecord
2
BYLAYER
70
0
0
LTYPE
5
16
100
AcDbSymbolTableRecord
100
AcDbLinetypeTableRecord
2
DASHED
70
0
3
Dashed __ __ __ __ __ __ __ __ __ __ __ __ __ _
72
65
73
2
40
0.75
49
0.5
74
0
49
-0.25
74
0
0
ENDTAB
0
TABLE
2
LAYER
5
2
100
AcDbSymbolTable
70
2
0
LAYER
5
50
100
AcDbSymbolTableRecord
100
AcDbLayerTableRecord
2
0
70
0
62
7
6
CONTINUOUS
0
ENDTAB
0
TABLE
2
STYLE
5
3
100
AcDbSymbolTable
70
1
0
STYLE
5
11
100
AcDbSymbolTableRecord
100
AcDbTextStyleTableRecord
2
STANDARD
70
0
0
ENDTAB
0
TABLE
2
VIEW
5
6
100
AcDbSymbolTable
70
0
0
ENDTAB
0
TABLE
2
UCS
5
7
100
AcDbSymbolTable
70
0
0
ENDTAB
0
TABLE
2
APPID
5
9
100
AcDbSymbolTable
70
2
0
APPID
5
12
100
AcDbSymbolTableRecord
100
AcDbRegAppTableRecord
2
ACAD
70
0
0
ENDTAB
0
TABLE
2
DIMSTYLE
5
A
100
AcDbSymbolTable
70
1
0
ENDTAB
0
TABLE
2
BLOCK_RECORD
5
1
100
AcDbSymbolTable
70
1
0
BLOCK_RECORD
5
1F
100
AcDbSymbolTableRecord
100
AcDbBlockTableRecord
2
*MODEL_SPACE
0
BLOCK_RECORD
5
1B
100
AcDbSymbolTableRecord
100
AcDbBlockTableRecord
2
*PAPER_SPACE
0
ENDTAB
0
ENDSEC
0
SECTION
2
BLOCKS
0
BLOCK
5
20
100
AcDbEntity
100
AcDbBlockBegin
2
*MODEL_SPACE
0
ENDBLK
5
21
100
AcDbEntity
100
AcDbBlockEnd
0
BLOCK
5
1C
100
AcDbEntity
100
AcDbBlockBegin
2
*PAPER_SPACE
0
ENDBLK
5
1D
100
AcDbEntity
100
AcDbBlockEnd
0
ENDSEC
0
SECTION
2
ENTITIES
0
LWPOLYLINE
5
100
100
AcDbEntity
8
0
100
AcDbPolyline
90
8
70
1
43
0.0
10
3.0526420441277509
20
-21.051873468896495
10
8.0237793719725339
20
-39.604410547815462
42
-0.4434728422618549
10
6.8182278547797468
20
-41.47276985167877
42
-0.081653203761893459
10
-6.8182278547797548
20
-41.472769851678763
42
-0.44347284226185629
10
-8.023779371972557
20
-39.604410547815448
10
-3.052642044127758
20
-21.051873468896488
42
-0.36040590139501671
10
-1.4918635392503772
20
-19.944280964232817
42
0.03734861420052156
10
1.4918635392503707
20
-19.944280964232817
42
-0.36040590139501738
0
LWPOLYLINE
5
101
100
AcDbEntity
8
0
100
AcDbPolyline
90
8
70
1
43
0.0
10
-13.169602293323287
20
16.705136199255914
10
-16.755866599876331
20
20.291400505808973
42
-0.45932285872425554
10
-16.583614339120839
20
22.560667885754192
42
-0.055194373087903266
10
-11.246304345846562
20
25.642165247119586
42
-0.45932285872425416
10
-9.1949350164568973
20
24.656706390820528
10
-7.8822711755730985
20
19.757778243383676
42
-0.36040590139501694
10
-8.680148758145771
20
18.018185744865011
42
0.037348614200522129
10
-11.264132206086938
20
16.52632220561463
42
-0.36040590139501677
0
LWPOLYLINE
5
102
100
AcDbEntity
8
0
100
AcDbPolyline
90
8
70
1
43
0.0
10
19.757778243383768
20
-7.882271175573222
10
24.656706390820627
20
-9.1949350164570287
42
-0.45932285872425493
10
25.642165247119696
20
-11.24630434584671
42
-0.055194373087902711
10
22.560667885754309
20
-16.583614339120953
42
-0.45932285872425532
10
20.291400505809072
20
-16.755866599876448
10
16.705136199256021
20
-13.169602293323397
42
-0.36040590139501699
10
16.52632220561474
20
-11.264132206087051
42
0.037348614200521373
10
18.018185744865104
20
-8.6801487581458918
42
-0.36040590139501683
0
LWPOLYLINE
5
103
100
AcDbEntity
8
0
100
AcDbPolyline
90
8
70
1
43
0.0
10
38.310315322302735
20
12.853408503417771
10
36.645263401237415
20
12.407259185812425
42
-0.38428924600208797
10
34.855868974165759
20
13.320672216738403
42
0.079447439625126154
10
28.963975022264009
20
23.525731894239996
42
-0.3842892460020898
10
29.06763334687021
20
25.532099440937351
10
30.286535950330187
20
26.751002044397332
42
-0.44347284226185563
10
32.507358329469241
20
26.641143456869166
42
-0.081653203761893792
10
39.325586184248962
20
14.831626394809261
42
-0.4434728422618559
0
LWPOLYLINE
5
104
100
AcDbEntity
8
0
100
AcDbPolyline
90
8
70
1
43
0.0
10
-30.286535950330197
20
26.751002044397328
10
-29.067633346870213
20
25.532099440937341
42
-0.38428924600208825
10
-28.963975022264023
20
23.525731894239996
42
0.079447439625126071
10
-34.855868974165745
20
13.320672216738421
42
-0.38428924600208886
10
-36.645263401237408
20
12.407259185812444
10
-38.310315322302721
20
12.853408503417807
42
-0.44347284226185513
10
-39.32558618424892
20
14.831626394809303
42
-0.081653203761893459
10
-32.507358329469213
20
26.641143456869134
42
-0.44347284226185557
0
LWPOLYLINE
5
105
100
AcDbEntity
8
0
100
AcDbPolyline
90
8
70
1
43
0.0
10
21.051873468896389
20
3.0526420441276381
10
25.950801616333237
20
4.365305885011435
42
-0.45932285872425466
10
27.829918684967431
20
3.081497361365277
42
-0.055194373087903266
10
27.82991868496741
20
-3.081497361365515
42
-0.4593228587242551
10
25.95080161633323
20
-4.3653058850116837
10
21.051873468896389
20
-3.0526420441278774
42
-0.36040590139501683
10
19.944280964232711
20
-1.4918635392504958
42
0.037348614200521747
10
19.944280964232711
20
1.4918635392502566
42
-0.36040590139501727
0
LWPOLYLINE
5
106
100
AcDbEntity
8
0
100
AcDbPolyline
90
8
70
1
43
0.0
10
-16.705136199256025
20
-13.169602293323388
10
-20.291400505809069
20
-16.755866599876445
42
-0.45932285872425499
10
-22.560667885754292
20
-16.583614339120938
42
-0.055194373087902933
10
-25.642165247119692
20
-11.246304345846676
42
-0.45932285872425532
10
-24.656706390820634
20
-9.1949350164570038
10
-19.757778243383783
20
-7.8822711755732016
42
-0.36040590139501694
10
-18.018185744865118
20
-8.6801487581458723
42
0.037348614200521373
10
-16.52632220561474
20
-11.264132206087041
42
-0.36040590139501627
0
LWPOLYLINE
5
107
100
AcDbEntity
8
0
100
AcDbPolyline
90
8
70
1
43
0.0
10
-39.604410547815334
20
8.0237793719724486
10
-37.939358626750007
20
7.5776300543671002
42
-0.38428924600208819
10
-36.846404110978639
20
5.8918939519016309
42
0.079447439625125987
10
-36.846404110978646
20
-5.8918939519018174
42
-0.38428924600209075
10
-37.939358626750021
20
-7.5776300543672974
10
-39.604410547815341
20
-8.0237793719726351
42
-0.44347284226185585
10
-41.472769851678606
20
-6.818227854779809
42
-0.081653203761893348
10
-41.472769851678649
20
6.8182278547796287
42
-0.44347284226185779
0
LWPOLYLINE
5
108
100
AcDbEntity
8
0
100
AcDbPolyline
90
8
70
1
43
0.0
10
26.751002044397442
20
30.28653595033008
10
25.532099440937461
20
29.067633346870096
42
-0.38428924600208825
10
23.52573189424011
20
28.963975022263895
42
0.079447439625126251
10
13.320672216738529
20
34.855868974165631
42
-0.38428924600208864
10
12.407259185812547
20
36.645263401237294
10
12.853408503417894
20
38.310315322302621
42
-0.4434728422618554
10
14.831626394809373
20
39.325586184248891
42
-0.081653203761893903
10
26.641143456869251
20
32.507358329469106
42
-0.44347284226185485
0
LWPOLYLINE
5
109
100
AcDbEntity
8
0
100
AcDbPolyline
90
8
70
1
43
0.0
10
13.16960229332328
20
-16.705136199256131
10
16.755866599876327
20
-20.29140050580919
42
-0.45932285872425554
10
16.583614339120835
20
-22.560667885754437
42
-0.055194373087902711
10
11.246304345846564
20
-25.642165247119799
42
-0.45932285872425455
10
9.1949350164568973
20
-24.656706390820741
10
7.8822711755730968
20
-19.757778243383889
42
-0.36040590139501671
10
8.6801487581457657
20
-18.018185744865221
42
0.037348614200521192
10
11.264132206086936
20
-16.526322205614846
42
-0.36040590139501694
0
LWPOLYLINE
5
110
100
AcDbEntity
8
0
100
AcDbPolyline
90
8
70
1
43
0.0
10
-3.0526420441277509
20
21.051873468896275
10
-4.3653058850115523
20
25.950801616333131
42
-0.4593228587242546
10
-3.0814973613653858
20
27.829918684967311
42
-0.055194373087903266
10
3.0814973613653813
20
27.829918684967303
42
-0.45932285872425577
10
4.365305885011554
20
25.950801616333127
10
3.0526420441277557
20
21.051873468896275
42
-0.36040590139501671
10
1.491863539250375
20
19.944280964232604
42
0.037348614200521935
10
-1.4918635392503679
20
19.944280964232604
42
-0.3604059013950166
0
LWPOLYLINE
5
111
100
AcDbEntity
8
0
100
AcDbPolyline
90
7
70
1
43
0.0
10
-19.757778243383775
20
7.8822711755729973
10
-24.656706390820631
20
9.1949350164568031
42
-0.45932285872425499
10
-25.64216524711966
20
11.246304345846465
42
-0.070785740100432051
10
-21.487680745881399
20
17.952146839948536
10
-16.705136199256032
20
13.16960229332317
42
-0.36040590139501666
10
-16.526322205614747
20
11.264132206086835
42
0.037348614200521747
10
-18.018185744865114
20
8.6801487581456644
42
-0.36040590139501633
0
LWPOLYLINE
5
112
100
AcDbEntity
8
0
100
AcDbPolyline
90
8
70
1
43
0.0
10
16.705136199256025
20
13.16960229332318
10
20.291400505809083
20
16.755866599876224
42
-0.4593228587242546
10
22.560667885754341
20
16.583614339120736
42
-0.055194373087903044
10
25.642165247119692
20
11.246304345846456
42
-0.45932285872425366
10
24.656706390820638
20
9.1949350164567889
10
19.757778243383783
20
7.8822711755729857
42
-0.36040590139501699
10
18.018185744865121
20
8.6801487581456573
42
0.037348614200522129
10
16.526322205614736
20
11.264132206086835
42
-0.36040590139501721
0
LWPOLYLINE
5
113
100
AcDbEntity
8
0
100
AcDbPolyline
90
8
70
1
43
0.0
10
-7.8822711755731047
20
-19.757778243383889
10
-9.1949350164569115
20
-24.656706390820734
42
-0.45932285872425516
10
-11.246304345846569
20
-25.642165247119788
42
-0.055194373087902822
10
-16.583614339120842
20
-22.560667885754416
42
-0.4593228587242556
10
-16.755866599876331
20
-20.291400505809179
10
-13.169602293323292
20
-16.705136199256124
42
-0.36040590139501727
10
-11.264132206086952
20
-16.526322205614846
42
0.03734861420052156
10
-8.6801487581457728
20
-18.018185744865228
42
-0.36040590139501738
0
LWPOLYLINE
5
114
100
AcDbEntity
8
0
100
AcDbPolyline
90
8
70
1
43
0.0
10
-12.853408503417887
20
38.310315322302621
10
-12.407259185812546
20
36.645263401237301
42
-0.3842892460020898
10
-13.320672216738522
20
34.855868974165638
42
0.079447439625126334
10
-23.525731894240117
20
28.963975022263892
42
-0.38428924600208747
10
-25.532099440937458
20
29.067633346870089
10
-26.751002044397442
20
30.286535950330077
42
-0.44347284226185496
10
-26.641143456869223
20
32.507358329469099
42
-0.081653203761893681
10
-14.831626394809383
20
39.325586184248849
42
-0.44347284226185446
0
LWPOLYLINE
5
115
100
AcDbEntity
8
0
100
AcDbPolyline
90
8
70
1
43
0.0
10
-26.751002044397456
20
-30.286535950330297
10
-25.532099440937476
20
-29.067633346870309
42
-0.38428924600208947
10
-23.525731894240121
20
-28.963975022264115
42
0.079447439625125987
10
-13.320672216738538
20
-34.855868974165858
42
-0.38428924600208958
10
-12.407259185812563
20
-36.645263401237528
10
-12.853408503417912
20
-38.310315322302849
42
-0.44347284226185546
10
-14.831626394809387
20
-39.325586184249076
42
-0.081653203761893459
10
-26.641143456869262
20
-32.507358329469326
42
-0.44347284226185618
0
LWPOLYLINE
5
116
100
AcDbEntity
8
0
100
AcDbPolyline
90
8
70
1
43
0.0
10
30.286535950330187
20
-26.751002044397563
10
29.067633346870206
20
-25.532099440937579
42
-0.3842892460020888
10
28.963975022264016
20
-23.525731894240231
42
0.079447439625125627
10
34.855868974165737
20
-13.320672216738663
42
-0.38428924600209052
10
36.645263401237415
20
-12.407259185812689
10
38.310315322302728
20
-12.853408503418034
42
-0.44347284226185518
10
39.325586184248998
20
-14.831626394809538
42
-0.081653203761893348
10
32.50735832946922
20
-26.641143456869369
42
-0.44347284226185679
0
LWPOLYLINE
5
117
100
AcDbEntity
8
0
100
AcDbPolyline
90
8
70
1
43
0.0
10
41.472769851678642
20
-6.8182278547798827
42
0.081653203761893736
10
41.472769851678649
20
6.8182278547796127
42
0.44347284226185429
10
39.604410547815348
20
8.023779371972422
10
37.939358626750021
20
7.5776300543670789
42
0.38428924600208964
10
36.846404110978675
20
5.8918939519016211
42
-0.079447439625126084
10
36.846404110978639
20
-5.8918939519018698
42
0.38428924600208914
10
37.939358626750007
20
-7.5776300543673418
10
39.604410547815334
20
-8.0237793719726849
42
0.44347284226185529
0
LWPOLYLINE
5
118
100
AcDbEntity
8
0
100
AcDbPolyline
90
8
70
1
43
0.0
10
12.853408503417885
20
-38.310315322302856
10
12.407259185812542
20
-36.645263401237528
42
-0.38428924600208858
10
13.320672216738521
20
-34.855868974165872
42
0.079447439625125987
10
23.525731894240106
20
-28.963975022264123
42
-0.38428924600208964
10
25.532099440937461
20
-29.067633346870323
10
26.751002044397453
20
-30.286535950330308
42
-0.44347284226185446
10
26.64114345686928
20
-32.507358329469341
42
-0.08165320376189357
10
14.831626394809373
20
-39.325586184249076
42
-0.44347284226185563
0
LWPOLYLINE
5
119
100
AcDbEntity
8
0
100
AcDbPolyline
90
8
70
1
43
0.0
10
-38.310315322302742
20
-12.853408503417986
10
-36.645263401237415
20
-12.407259185812642
42
-0.38428924600208858
10
-34.855868974165759
20
-13.320672216738622
42
0.079447439625126071
10
-28.963975022264023
20
-23.525731894240216
42
-0.38428924600208797
10
-29.06763334687021
20
-25.532099440937568
10
-30.286535950330201
20
-26.751002044397548
42
-0.44347284226185502
10
-32.507358329469213
20
-26.641143456869329
42
-0.081653203761893459
10
-39.325586184248976
20
-14.831626394809481
42
-0.44347284226185557
0
LWPOLYLINE
5
120
100
AcDbEntity
8
0
100
AcDbPolyline
90
8
70
1
43
0.0
10
8.0237793719725463
20
39.60441054781522
10
7.5776300543672068
20
37.939358626749907
42
-0.38428924600208952
10
5.8918939519017366
20
36.846404110978533
42
0.079447439625126334
10
-5.8918939519017304
20
36.846404110978533
42
-0.38428924600208958
10
-7.5776300543671997
20
37.939358626749907
10
-8.0237793719725445
20
39.60441054781522
42
-0.44347284226185463
10
-6.8182278547797441
20
41.472769851678528
42
-0.081653203761893792
10
6.8182278547797388
20
41.472769851678528
42
-0.44347284226185568
0
LWPOLYLINE
5
121
100
AcDbEntity
8
0
100
AcDbPolyline
90
8
70
1
43
0.0
10
7.8822711755731003
20
19.757778243383669
10
9.1949350164569061
20
24.656706390820524
42
-0.4593228587242551
10
11.246304345846578
20
25.642165247119593
42
-0.055194373087903266
10
16.583614339120849
20
22.560667885754199
42
-0.45932285872425527
10
16.755866599876338
20
20.291400505808962
10
13.169602293323283
20
16.705136199255918
42
-0.36040590139501699
10
11.264132206086941
20
16.526322205614637
42
0.037348614200521935
10
8.6801487581457692
20
18.018185744865004
42
-0.36040590139501605
0
LWPOLYLINE
5
122
100
AcDbEntity
8
0
100
AcDbPolyline
90
8
70
1
43
0.0
10
-27.829918684967421
20
3.0814973613652774
42
0.055194373087902836
10
-27.829918684967417
20
-3.0814973613654724
42
0.45932285872425549
10
-25.950801616333234
20
-4.3653058850116491
10
-21.051873468896389
20
-3.0526420441278512
42
0.36040590139501821
10
-19.9442809642327
20
-1.4918635392504589
42
-0.037348614200521567
10
-19.944280964232711
20
1.4918635392502737
42
0.36040590139501671
10
-21.051873468896382
20
3.0526420441276549
10
-25.950801616333234
20
4.3653058850114554
42
0.45932285872425693
0
CIRCLE
5
123
100
AcDbEntity
8
0
100
AcDbCircle
10
-10.606601717798235
20
10.60660171779813
30
-3.3380964659102119e-09
40
1.7500000000000027
210
3.8480080288856972e-30
220
-4.7184478546568887e-16
230
1
0
CIRCLE
5
124
100
AcDbEntity
8
0
100
AcDbCircle
10
-3.9903382876346358e-13
20
12.874999999739201
30
-3.3380964659102119e-09
40
3.875000000260731
210
3.8480080288856972e-30
220
-4.7184478546568887e-16
230
1
0
CIRCLE
5
125
100
AcDbEntity
8
0
100
AcDbCircle
10
0
20
0
30
0
40
51.029499999999999
210
3.8218153816420308e-30
220
-4.7184478546568887e-16
230
1
0
CIRCLE
5
126
100
AcDbEntity
8
0
100
AcDbCircle
10
-36.556857964828069
20
-28.785345850612835
30
-3.3381142294786059e-09
40
2.6312500000000001
210
-6.7296606509088891e-18
220
-4.7303140620945685e-16
230
1
0
CIRCLE
5
127
100
AcDbEntity
8
0
100
AcDbCircle
10
32.538995509743643
20
4.2437182183647408
30
-3.3382441255724871e-09
40
1.9999999999999929
210
3.8218153816411452e-30
220
-4.7184478546568887e-16
230
1
0
CIRCLE
5
128
100
AcDbEntity
8
0
100
AcDbCircle
10
32.538995509743749
20
-4.2437182183616446
30
-3.3379488062479368e-09
40
1.9999999999999973
210
3.8218153816411452e-30
220
-4.7184478546568887e-16
230
1
0
CIRCLE
5
129
100
AcDbEntity
8
0
100
AcDbCircle
10
-32.538995509743643
20
4.2437182183647444
30
-3.3382441255724871e-09
40
1.9999999999999929
210
3.8218153816429164e-30
220
-4.7184478546568887e-16
230
1
0
CIRCLE
5
130
100
AcDbEntity
8
0
100
AcDbCircle
10
-32.538995509743749
20
-4.2437182183616411
30
-3.3379488062479368e-09
40
1.9999999999999973
210
3.8218153816429164e-30
220
-4.7184478546568887e-16
230
1
0
CIRCLE
5
131
100
AcDbEntity
8
0
100
AcDbCircle
10
-10.606601717798211
20
-10.60660171779832
30
-3.3380992414677735e-09
40
1.7500000000000027
210
3.8218153816420308e-30
220
-4.7184478546568877e-16
230
1
0
CIRCLE
5
132
100
AcDbEntity
8
0
100
AcDbCircle
10
12.50000000000002
20
-1.2487902005618502e-13
30
-3.3380942454641627e-09
40
1.7500000000000038
210
3.8218153816420308e-30
220
-4.7184478546568877e-16
230
1
0
CIRCLE
5
133
100
AcDbEntity
8
0
100
AcDbCircle
10
0
20
0
30
0
40
4.2500000000000053
210
3.8218153816420308e-30
220
-4.7184478546568887e-16
230
1
0
CIRCLE
5
134
100
AcDbEntity
8
0
100
AcDbCircle
10
10.606601717798238
20
-10.606601717798343
30
-3.3380992414677735e-09
40
1.7500000000000027
210
3.8218153816420308e-30
220
-4.7184478546568877e-16
230
1
0
CIRCLE
5
135
100
AcDbEntity
8
0
100
AcDbCircle
10
10.606601717798211
20
10.606601717798107
30
-3.3380892494605519e-09
40
1.7500000000000027
210
3.8218153816420308e-30
220
-4.7184478546568877e-16
230
1
0
CIRCLE
5
136
100
AcDbEntity
8
0
100
AcDbCircle
10
-12.500000000000014
20
-9.4625442635149487e-14
30
-3.3380942454641627e-09
40
1.7500000000000027
210
3.8218153816420308e-30
220
-4.7184478546568877e-16
230
1
0
CIRCLE
5
137
100
AcDbEntity
8
0
100
AcDbCircle
10
1.8358040519202307e-14
20
-12.500000000000126
30
-3.338100143523981e-09
40
1.7500000000000027
210
3.8218153816420308e-30
220
-4.7184478546568877e-16
230
1
0
ENDSEC
0
SECTION
2
OBJECTS
0
DICTIONARY
5
C
100
AcDbDictionary
3
ACAD_GROUP
350
D
3
ACAD_MLINESTYLE
350
17
0
DICTIONARY
5
D
100
AcDbDictionary
0
DICTIONARY
5
1A
330
C
100
AcDbDictionary
0
DICTIONARY
5
17
100
AcDbDictionary
0
ENDSEC
0
EOF
