0
SECTION
2
HEADER
9
$INSUNITS
70
4
9
$ACADVER
1
AC1014
9
$HANDSEED
5
FFFF
0
ENDSEC
0
SECTION
2
TABLES
0
TABLE
2
VPORT
5
8
100
AcDbSymbolTable
0
ENDTAB
0
TABLE
2
LTYPE
5
5
100
AcDbSymbolTable
0
LTYPE
5
14
100
AcDbSymbolTableRecord
100
AcDbLinetypeTableRecord
2
BYBLOCK
70
0
0
LTYPE
5
15
100
AcDbSymbolTableRecord
100
AcDbLinetypeTableRecord
2
BYLAYER
70
0
0
LTYPE
5
16
100
AcDbSymbolTableRecord
100
AcDbLinetypeTableRecord
2
DASHED
70
0
3
Dashed __ __ __ __ __ __ __ __ __ __ __ __ __ _
72
65
73
2
40
0.75
49
0.5
74
0
49
-0.25
74
0
0
ENDTAB
0
TABLE
2
LAYER
5
2
100
AcDbSymbolTable
70
2
0
LAYER
5
50
100
AcDbSymbolTableRecord
100
AcDbLayerTableRecord
2
0
70
0
62
7
6
CONTINUOUS
0
ENDTAB
0
TABLE
2
STYLE
5
3
100
AcDbSymbolTable
70
1
0
STYLE
5
11
100
AcDbSymbolTableRecord
100
AcDbTextStyleTableRecord
2
STANDARD
70
0
0
ENDTAB
0
TABLE
2
VIEW
5
6
100
AcDbSymbolTable
70
0
0
ENDTAB
0
TABLE
2
UCS
5
7
100
AcDbSymbolTable
70
0
0
ENDTAB
0
TABLE
2
APPID
5
9
100
AcDbSymbolTable
70
2
0
APPID
5
12
100
AcDbSymbolTableRecord
100
AcDbRegAppTableRecord
2
ACAD
70
0
0
ENDTAB
0
TABLE
2
DIMSTYLE
5
A
100
AcDbSymbolTable
70
1
0
ENDTAB
0
TABLE
2
BLOCK_RECORD
5
1
100
AcDbSymbolTable
70
1
0
BLOCK_RECORD
5
1F
100
AcDbSymbolTableRecord
100
AcDbBlockTableRecord
2
*MODEL_SPACE
0
BLOCK_RECORD
5
1B
100
AcDbSymbolTableRecord
100
AcDbBlockTableRecord
2
*PAPER_SPACE
0
ENDTAB
0
ENDSEC
0
SECTION
2
BLOCKS
0
BLOCK
5
20
100
AcDbEntity
100
AcDbBlockBegin
2
*MODEL_SPACE
0
ENDBLK
5
21
100
AcDbEntity
100
AcDbBlockEnd
0
BLOCK
5
1C
100
AcDbEntity
100
AcDbBlockBegin
2
*PAPER_SPACE
0
ENDBLK
5
1D
100
AcDbEntity
100
AcDbBlockEnd
0
ENDSEC
0
SECTION
2
ENTITIES
0
LWPOLYLINE
5
100
100
AcDbEntity
8
0
100
AcDbPolyline
90
6
70
1
43
0.0
10
-28.000000000001009
20
-31.650323764006171
10
-28.000000000001009
20
-24.619000000001428
42
-0.41421356237309503
10
-27.000000000001009
20
-23.619000000001428
10
-10.177955342790124
20
-23.619000000001428
42
-0.81341311769839764
10
-9.9785922870828987
20
-24.57753502812805
10
-27.300636944293789
20
-32.108858792132786
42
-0.54012613573902213
0
LWPOLYLINE
5
101
100
AcDbEntity
8
0
100
AcDbPolyline
90
6
70
1
43
0.0
10
9.6779553427881311
20
-23.619000000001439
10
26.499999999998998
20
-23.619000000001439
42
-0.41421356237309503
10
27.499999999999002
20
-24.619000000001439
10
27.499999999999002
20
-31.650323764006171
42
-0.54012613573902213
10
26.800636944291774
20
-32.108858792132786
10
9.4785922870809056
20
-24.57753502812805
42
-0.81341311769839697
0
LWPOLYLINE
5
102
100
AcDbEntity
8
0
100
AcDbPolyline
90
18
70
1
43
0.0
10
-39.902538906799244
20
23.618999999998582
42
0.41421356237309503
10
-40.902538906799244
20
22.618999999998582
10
-40.902538906799251
20
-17.858392760716914
42
-0.4142135623730957
10
-41.902538906799251
20
-18.858392760716917
10
-42.500000000001009
20
-18.858392760716917
42
0.41421356237309437
10
-43.500000000001009
20
-19.858392760716917
10
-43.500000000001009
20
-35.119000000001449
42
0.41421356237309503
10
-42.500000000001009
20
-36.119000000001449
10
-30.871885167173065
20
-36.119000000001449
42
0.102892650593826
10
-27.283350164443018
20
-35.372630506280572
10
-1.4461783342443424
20
-24.139077536628967
42
-0.20798724079689035
10
0.94617833424235553
20
-24.139077536628967
10
26.783350164440989
20
-35.372630506280586
42
0.10289265059382614
10
30.371885167171051
20
-36.119000000001449
10
41.999999999998998
20
-36.119000000001449
42
0.4142135623730937
10
42.999999999998991
20
-35.119000000001456
10
42.999999999999012
20
22.618999999998579
42
0.41421356237309503
10
41.999999999999005
20
23.618999999998579
0
CIRCLE
5
103
100
AcDbEntity
8
0
100
AcDbCircle
10
9.0000000000000142
20
-1.1441617606066157e-13
30
-6.2942739909033207e-08
40
1.7500000000000038
210
1.116238180887738e-28
220
-4.7184478546579201e-16
230
1
0
CIRCLE
5
104
100
AcDbEntity
8
0
100
AcDbCircle
10
-9.7247214686425444e-15
20
-6.0000000000001137
30
-6.2942744349925306e-08
40
1.7500000000000038
210
1.116238180887738e-28
220
-4.7184478546579201e-16
230
1
0
CIRCLE
5
105
100
AcDbEntity
8
0
100
AcDbCircle
10
0
20
0
30
0
40
2.2500000000000049
210
6.2483542725805481e-43
220
-4.7184478546568877e-16
230
1
0
CIRCLE
5
106
100
AcDbEntity
8
0
100
AcDbCircle
10
-7.0601862095381014e-15
20
5.9999999999998881
30
-6.2942735468141109e-08
40
1.7500000000000038
210
1.116238180887738e-28
220
-4.7184478546579201e-16
230
1
0
CIRCLE
5
107
100
AcDbEntity
8
0
100
AcDbCircle
10
-9.0000000000000302
20
-1.1041937317201709e-13
30
-6.2942739909033207e-08
40
1.7500000000000038
210
1.116238180887738e-28
220
-4.7184478546579201e-16
230
1
0
CIRCLE
5
108
100
AcDbEntity
8
0
100
AcDbCircle
10
35.935459558025229
20
-16.000463604750063
30
-6.2943001921667019e-08
40
1.9999999999999973
210
-6.6613381477509337e-15
220
-4.7184478546568877e-16
230
1
0
CIRCLE
5
109
100
AcDbEntity
8
0
100
AcDbCircle
10
35.93545955802464
20
13.999536395249326
30
-6.294267329565173e-08
40
1.9999999999999973
210
-6.6613381477509337e-15
220
-4.7184478546568877e-16
230
1
0
CIRCLE
5
110
100
AcDbEntity
8
0
100
AcDbCircle
10
-17.065538906799322
20
15.999536395249097
30
-6.2942828726875177e-08
40
2.0499999999999963
210
-6.6613381477509337e-15
220
-4.7184478546568877e-16
230
1
0
CIRCLE
5
111
100
AcDbEntity
8
0
100
AcDbCircle
10
-17.065538906799326
20
-16.000463604750784
30
-6.2942486778183593e-08
40
2.0499999999999963
210
-6.6613381477509337e-15
220
-4.7184478546568877e-16
230
1
0
CIRCLE
5
112
100
AcDbEntity
8
0
100
AcDbCircle
10
-36.556857964828062
20
-28.785345850612831
30
-6.2942739909033207e-08
40
3.9687500000000013
210
1.0541738999180847e-19
220
-4.7304971174712843e-16
230
1
0
ENDSEC
0
SECTION
2
OBJECTS
0
DICTIONARY
5
C
100
AcDbDictionary
3
ACAD_GROUP
350
D
3
ACAD_MLINESTYLE
350
17
0
DICTIONARY
5
D
100
AcDbDictionary
0
DICTIONARY
5
1A
330
C
100
AcDbDictionary
0
DICTIONARY
5
17
100
AcDbDictionary
0
ENDSEC
0
EOF
