0
SECTION
2
HEADER
9
$INSUNITS
70
4
9
$ACADVER
1
AC1014
9
$HANDSEED
5
FFFF
0
ENDSEC
0
SECTION
2
TABLES
0
TABLE
2
VPORT
5
8
100
AcDbSymbolTable
0
ENDTAB
0
TABLE
2
LTYPE
5
5
100
AcDbSymbolTable
0
LTYPE
5
14
100
AcDbSymbolTableRecord
100
AcDbLinetypeTableRecord
2
BYBLOCK
70
0
0
LTYPE
5
15
100
AcDbSymbolTableRecord
100
AcDbLinetypeTableRecord
2
BYLAYER
70
0
0
LTYPE
5
16
100
AcDbSymbolTableRecord
100
AcDbLinetypeTableRecord
2
DASHED
70
0
3
Dashed __ __ __ __ __ __ __ __ __ __ __ __ __ _
72
65
73
2
40
0.75
49
0.5
74
0
49
-0.25
74
0
0
ENDTAB
0
TABLE
2
LAYER
5
2
100
AcDbSymbolTable
70
2
0
LAYER
5
50
100
AcDbSymbolTableRecord
100
AcDbLayerTableRecord
2
0
70
0
62
7
6
CONTINUOUS
0
ENDTAB
0
TABLE
2
STYLE
5
3
100
AcDbSymbolTable
70
1
0
STYLE
5
11
100
AcDbSymbolTableRecord
100
AcDbTextStyleTableRecord
2
STANDARD
70
0
0
ENDTAB
0
TABLE
2
VIEW
5
6
100
AcDbSymbolTable
70
0
0
ENDTAB
0
TABLE
2
UCS
5
7
100
AcDbSymbolTable
70
0
0
ENDTAB
0
TABLE
2
APPID
5
9
100
AcDbSymbolTable
70
2
0
APPID
5
12
100
AcDbSymbolTableRecord
100
AcDbRegAppTableRecord
2
ACAD
70
0
0
ENDTAB
0
TABLE
2
DIMSTYLE
5
A
100
AcDbSymbolTable
70
1
0
ENDTAB
0
TABLE
2
BLOCK_RECORD
5
1
100
AcDbSymbolTable
70
1
0
BLOCK_RECORD
5
1F
100
AcDbSymbolTableRecord
100
AcDbBlockTableRecord
2
*MODEL_SPACE
0
BLOCK_RECORD
5
1B
100
AcDbSymbolTableRecord
100
AcDbBlockTableRecord
2
*PAPER_SPACE
0
ENDTAB
0
ENDSEC
0
SECTION
2
BLOCKS
0
BLOCK
5
20
100
AcDbEntity
100
AcDbBlockBegin
2
*MODEL_SPACE
0
ENDBLK
5
21
100
AcDbEntity
100
AcDbBlockEnd
0
BLOCK
5
1C
100
AcDbEntity
100
AcDbBlockBegin
2
*PAPER_SPACE
0
ENDBLK
5
1D
100
AcDbEntity
100
AcDbBlockEnd
0
ENDSEC
0
SECTION
2
ENTITIES
0
ARC
5
100
100
AcDbEntity
8
0
100
AcDbCircle
10
-15.485958898685571
20
37.301882563411965
30
8.8817841970012523e-14
40
2.0000000000000031
210
0
220
0
230
1
100
AcDbArc
50
172.06974407424335
51
262.0697440742432
0
LINE
5
101
100
AcDbEntity
8
0
100
AcDbLine
10
-15.761894060179273
20
35.321009072587415
30
9.7699626167013776e-14
11
10.029078790356426
21
31.728333269939441
31
1.4210854715202004e-13
0
ARC
5
102
100
AcDbEntity
8
0
100
AcDbCircle
10
10.305013951850125
20
33.709206760764005
30
1.1546319456101628e-13
40
2.0000000000000075
210
1.8380974175637787e-15
220
1.319526815029811e-14
230
1
100
AcDbArc
50
262.06974407424343
51
352.0697440742432
0
LINE
5
103
100
AcDbEntity
8
0
100
AcDbLine
10
12.285887442674678
20
33.433271599270299
30
1.0658141036401503e-13
11
13.139380737016497
21
39.560298804524933
31
7.9936057773011271e-14
0
SPLINE
5
104
100
AcDbEntity
8
0
100
AcDbSpline
70
0
71
3
72
16
73
12
74
0
42
0.000000001
43
0.0000000001
44
0.0000000001
40
0
40
0
40
0
40
0
40
0.097661118346727416
40
0.097661118346727416
40
0.19532223669345528
40
0.19532223669345528
40
0.29298335504018269
40
0.29298335504018269
40
0.34369923754887133
40
0.34369923754887133
40
0.39441512005756069
40
0.39441512005756069
40
0.39441512005756069
40
0.39441512005756069
10
15.967420043979736
20
41.690482476199044
30
7.1054273576010019e-14
10
15.645124990329114
20
41.736311250765581
30
7.1054273576010019e-14
10
15.316959874302508
20
41.718750486514381
30
6.2172489379008766e-14
10
14.685832378206019
20
41.558826765901443
30
6.2172489379008766e-14
10
14.388903920989879
20
41.417992767473919
30
7.1054273576010019e-14
10
13.86574401321235
20
41.030434741317933
30
7.1054273576010019e-14
10
13.644514256513499
20
40.787415979554964
30
7.1054273576010019e-14
10
13.38862201194987
20
40.364168498649619
30
7.1054273576010019e-14
10
13.316055988050977
20
40.211001336592531
30
7.1054273576010019e-14
10
13.202951711826517
20
39.892374578325864
30
7.1054273576010019e-14
10
13.162704562400382
20
39.727735049900325
30
7.9936057773011271e-14
10
13.139380737016497
20
39.560298804524933
30
7.9936057773011271e-14
0
SPLINE
5
105
100
AcDbEntity
8
0
100
AcDbSpline
70
0
71
3
72
8
73
4
74
0
42
0.000000001
43
0.0000000001
44
0.0000000001
40
-0.84894290552139196
40
-0.84894290552139196
40
-0.84894290552139196
40
-0.84894290552139196
40
-0.61095006842816268
40
-0.61095006842816268
40
-0.61095006842816268
40
-0.61095006842816268
10
13.485955813650854
20
42.048279596722679
30
7.1054273576010019e-14
10
14.32363828485536
20
41.92586667590038
30
7.1054273576010019e-14
10
15.150020517637399
20
41.806712676443354
30
7.1054273576010019e-14
10
15.967420043979752
20
41.690482476199151
30
7.1054273576010019e-14
0
LINE
5
106
100
AcDbEntity
8
0
100
AcDbLine
10
13.485955813650854
20
42.048279596722679
30
7.1054273576010019e-14
11
14.233926981072004
21
47.417788323419153
31
-2.2204460492503131e-13
0
ARC
5
107
100
AcDbEntity
8
0
100
AcDbCircle
10
11.142291449869596
20
50.756094741680798
30
-2.3980817331903381e-13
40
4.550000000000006
210
3.3345858168254068e-15
220
2.030365882564933e-15
230
1
100
AcDbArc
50
31.33644010678951
51
312.80304804169708
0
LINE
5
108
100
AcDbEntity
8
0
100
AcDbLine
10
15.028574956742919
20
53.122378854843134
30
-2.5757174171303632e-13
11
15.886197092278586
21
59.279046037926122
31
-4.4408920985006262e-14
0
SPLINE
5
109
100
AcDbEntity
8
0
100
AcDbSpline
70
0
71
3
72
8
73
4
74
0
42
0.000000001
43
0.0000000001
44
0.0000000001
40
-0.25746251682522459
40
-0.25746251682522459
40
-0.25746251682522459
40
-0.25746251682522459
40
-0
40
-0
40
-0
40
-0
10
18.412724230525292
20
58.977400285472605
30
-4.4408920985006262e-14
10
17.580271736753524
20
59.078465327860215
30
-4.4408920985006262e-14
10
16.738549677195806
20
59.178962519545891
30
-4.4408920985006262e-14
10
15.886197092278586
20
59.279046037926122
30
-4.4408920985006262e-14
0
SPLINE
5
110
100
AcDbEntity
8
0
100
AcDbSpline
70
0
71
3
72
16
73
12
74
0
42
0.000000001
43
0.0000000001
44
0.0000000001
40
0
40
0
40
0
40
0
40
0.097661118346730358
40
0.097661118346730358
40
0.19532223669346083
40
0.19532223669346083
40
0.29298335504019041
40
0.29298335504019041
40
0.34554849764523582
40
0.34554849764523582
40
0.39811364025028101
40
0.39811364025028101
40
0.39811364025028101
40
0.39811364025028101
10
16.237935902379917
20
61.804096056387777
30
-6.2172489379008766e-14
10
16.193022341608817
20
61.481672189025581
30
-6.2172489379008766e-14
10
16.211514729895011
20
61.153558252422272
30
-5.3290705182007514e-14
10
16.373229642410251
20
60.522887339969564
30
-5.3290705182007514e-14
10
16.514906083934214
20
60.226359921785424
30
-4.4408920985006262e-14
10
16.903947853382142
20
59.704302439922976
30
-4.4408920985006262e-14
10
17.147593729946038
20
59.48376353031459
30
-4.4408920985006262e-14
10
17.576850083456161
20
59.225899700035505
30
-4.4408920985006262e-14
10
17.736120080816814
20
59.151711480444995
30
-4.4408920985006262e-14
10
18.067545382476041
20
59.037863086313777
30
-4.4408920985006262e-14
10
18.238784293982423
20
58.998517703212549
30
-4.4408920985006262e-14
10
18.412724230525296
20
58.97740028547264
30
-4.4408920985006262e-14
0
LINE
5
111
100
AcDbEntity
8
0
100
AcDbLine
10
16.237935902379917
20
61.804096056387777
30
-6.2172489379008766e-14
11
17.15614304303848
21
68.395688712323675
31
-1.0658141036401503e-13
0
ARC
5
112
100
AcDbEntity
8
0
100
AcDbCircle
10
15.17526955221393
20
68.671623873817381
30
-9.7699626167013776e-14
40
1.9999999999999978
210
4.3984227167660542e-15
220
-6.1269913918795184e-16
230
1
100
AcDbArc
50
-7.9302559257568568
51
82.069744074243218
0
LINE
5
113
100
AcDbEntity
8
0
100
AcDbLine
10
15.451204713707632
20
70.652497364641931
30
-1.1546319456101628e-13
11
-10.339768136828072
21
74.24517316728992
31
-1.4210854715202004e-13
0
ARC
5
114
100
AcDbEntity
8
0
100
AcDbCircle
10
-10.615703298321771
20
72.264299676465356
30
-1.1546319456101628e-13
40
2.0000000000000031
210
1.8380974175637866e-15
220
1.3195268150298137e-14
230
1
100
AcDbArc
50
82.069744074243388
51
172.06974407424318
0
LINE
5
115
100
AcDbEntity
8
0
100
AcDbLine
10
-12.596576789146328
20
72.540234837959062
30
-1.0658141036401503e-13
11
-13.744676436909689
21
64.298298055533522
31
-7.9936057773011271e-14
0
SPLINE
5
116
100
AcDbEntity
8
0
100
AcDbSpline
70
0
71
3
72
14
73
10
74
0
42
0.000000001
43
0.0000000001
44
0.0000000001
40
0
40
0
40
0
40
0
40
0.097661118346732134
40
0.097661118346732134
40
0.19532223669346419
40
0.19532223669346419
40
0.28293607206811627
40
0.28293607206811627
40
0.37054990744276867
40
0.37054990744276867
40
0.37054990744276867
40
0.37054990744276867
10
-16.334691585926823
20
62.145814059331592
30
-5.3290705182007514e-14
10
-16.009492699432357
20
62.130979558709797
30
-5.3290705182007514e-14
10
-15.684505383698186
20
62.179805457879709
30
-5.3290705182007514e-14
10
-15.071539016759923
20
62.399281528890342
30
-5.3290705182007514e-14
10
-14.789420258116246
20
62.56783338986849
30
-6.2172489379008766e-14
10
-14.330554669042533
20
62.981175081735913
30
-6.2172489379008766e-14
10
-14.149483241552325
20
63.213157868827459
30
-7.1054273576010019e-14
10
-13.875637503724729
20
63.729076711119291
30
-7.1054273576010019e-14
10
-13.784969333264993
20
64.009044848994989
30
-7.1054273576010019e-14
10
-13.744676436909682
20
64.298298055533522
30
-7.1054273576010019e-14
0
SPLINE
5
117
100
AcDbEntity
8
0
100
AcDbSpline
70
0
71
3
72
8
73
4
74
0
42
0.000000001
43
0.0000000001
44
0.0000000001
40
-0.7496342876227754
40
-0.7496342876227754
40
-0.7496342876227754
40
-0.7496342876227754
40
-0.63797593841304046
40
-0.63797593841304046
40
-0.63797593841304046
40
-0.63797593841304046
10
-14.060644833448263
20
62.030035405553001
30
-5.3290705182007514e-14
10
-14.679449889420301
20
62.064333345239845
30
-5.3290705182007514e-14
10
-15.451086396961394
20
62.105506922322363
30
-5.3290705182007514e-14
10
-16.334691585926823
20
62.145814059331592
30
-5.3290705182007514e-14
0
SPLINE
5
118
100
AcDbEntity
8
0
100
AcDbSpline
70
0
71
3
72
11
73
7
74
0
42
0.000000001
43
0.0000000001
44
0.0000000001
40
-33.235673202024969
40
-33.235673202024969
40
-33.235673202024969
40
-33.235673202024969
40
-32.709966599575765
40
-32.709966599575765
40
-32.709966599575765
40
-32.162955213667644
40
-32.162955213667644
40
-32.162955213667644
40
-32.162955213667644
10
-13.018878938557565
20
61.970624509579189
30
-3.5527136788005009e-14
10
-13.179524770410726
20
61.980026914114234
30
-3.5527136788005009e-14
10
-13.346588472698549
20
61.989700480848711
30
-5.3290705182007514e-14
10
-13.519672401446467
20
61.999586041491085
30
-5.3290705182007514e-14
10
-13.699770728743816
20
62.009872224072396
30
-5.3290705182007514e-14
10
-13.880128171219175
20
62.020030074250023
30
-4.4408920985006262e-14
10
-14.060644833448565
20
62.030035405547601
30
-4.4408920985006262e-14
0
LINE
5
119
100
AcDbEntity
8
0
100
AcDbLine
10
-13.018878938557565
20
61.970624509579189
30
-3.5527136788005009e-14
11
-13.490954772053414
21
58.581703361695041
31
-1.7763568394002505e-14
0
ARC
5
120
100
AcDbEntity
8
0
100
AcDbCircle
10
-11.141364240370944
20
54.685304468687789
30
8.8817841970012523e-15
40
4.5500000000000131
210
4.2794899192011352e-15
220
3.9975147844484163e-15
230
1
100
AcDbArc
50
-136.951157449997
51
121.0906455984838
0
LINE
5
121
100
AcDbEntity
8
0
100
AcDbLine
10
-14.466377101419539
20
51.579376350739537
30
3.5527136788005009e-14
11
-15.113501981847934
21
46.933819351209181
31
3.5527136788005009e-14
0
SPLINE
5
122
100
AcDbEntity
8
0
100
AcDbSpline
70
0
71
3
72
11
73
7
74
0
42
0.000000001
43
0.0000000001
44
0.0000000001
40
-0.3983101272345218
40
-0.3983101272345218
40
-0.3983101272345218
40
-0.3983101272345218
40
-0.3476216808089736
40
-0.3476216808089736
40
-0.3476216808089736
40
-0.3005092973132748
40
-0.3005092973132748
40
-0.3005092973132748
40
-0.3005092973132748
10
-16.133962250027363
20
47.146178319918697
30
3.5527136788005009e-14
10
-15.95728567566524
20
47.109110297996196
30
3.5527136788005009e-14
10
-15.780664331956082
20
47.072222329555572
30
3.5527136788005009e-14
10
-15.604164476106941
20
47.035508719203975
30
3.5527136788005009e-14
10
-15.440116660833809
20
47.001385249017595
30
3.5527136788005009e-14
10
-15.276542192890297
20
46.967489021366987
30
3.5527136788005009e-14
10
-15.113501981847733
20
46.933819351209145
30
3.5527136788005009e-14
0
SPLINE
5
123
100
AcDbEntity
8
0
100
AcDbSpline
70
0
71
3
72
8
73
4
74
0
42
0.000000001
43
0.0000000001
44
0.0000000001
40
-0.2120269905557296
40
-0.2120269905557296
40
-0.2120269905557296
40
-0.2120269905557296
40
-0.083465551543869157
40
-0.083465551543869157
40
-0.083465551543869157
40
-0.083465551543869157
10
-18.39239618980827
20
47.631089880193862
30
3.5527136788005009e-14
10
-17.522764617298744
20
47.439365708063839
30
3.5527136788005009e-14
10
-16.75660180567651
20
47.276812596289815
30
3.5527136788005009e-14
10
-16.133962250027867
20
47.146178319916515
30
3.5527136788005009e-14
0
SPLINE
5
124
100
AcDbEntity
8
0
100
AcDbSpline
70
0
71
3
72
14
73
10
74
0
42
0.000000001
43
0.0000000001
44
0.0000000001
40
0
40
0
40
0
40
0
40
0.097661118346732148
40
0.097661118346732148
40
0.19532223669346457
40
0.19532223669346457
40
0.28472967026306562
40
0.28472967026306562
40
0.37413710383266663
40
0.37413710383266663
40
0.37413710383266663
40
0.37413710383266663
10
-16.454543828456373
20
44.844798724361453
30
5.3290705182007514e-14
10
-16.409630267685273
20
45.16722259172365
30
5.3290705182007514e-14
10
-16.428122655971467
20
45.495336528326966
30
5.3290705182007514e-14
10
-16.589837568486708
20
46.126007440779674
30
5.3290705182007514e-14
10
-16.731514010010674
20
46.422534858963829
30
4.4408920985006262e-14
10
-17.104116134979218
20
46.92253188338028
30
4.4408920985006262e-14
10
-17.323502074769188
20
47.127742522572689
30
4.4408920985006262e-14
10
-17.824129163520858
20
47.45123532398209
30
4.4408920985006262e-14
10
-18.10136042561534
20
47.566926396813081
30
3.5527136788005009e-14
10
-18.39239618980827
20
47.631089880193862
30
3.5527136788005009e-14
0
LINE
5
125
100
AcDbEntity
8
0
100
AcDbLine
10
-16.454543828456373
20
44.844798724361453
30
5.3290705182007514e-14
11
-17.466832389510124
21
37.577817724905664
31
8.8817841970012523e-14
0
CIRCLE
5
126
100
AcDbEntity
8
0
100
AcDbCircle
10
-8.0113610643014752
20
68.923043357547527
30
-1.3322676295501878e-13
40
1.9999999999999973
210
1.5144605574887667e-16
220
6.4308534197905584e-15
230
1
0
CIRCLE
5
127
100
AcDbEntity
8
0
100
AcDbCircle
10
11.817399875240575
20
66.311484512242188
30
-1.0658141036401503e-13
40
2.000000000000004
210
1.5144605574887667e-16
220
6.4308534197905584e-15
230
1
0
CIRCLE
5
128
100
AcDbEntity
8
0
100
AcDbCircle
10
1.9650684682528388
20
63.862527450304512
30
-6.2172489379008766e-14
40
4.5500000000000025
210
-1.0679227617252211e-24
220
6.4308534194732217e-15
230
1
0
CIRCLE
5
129
100
AcDbEntity
8
0
100
AcDbCircle
10
-1.964141258754265
20
41.578871760064082
30
-1.7763568394002505e-13
40
4.5500000000000016
210
1.514460557488767e-16
220
6.4308534197905584e-15
230
1
0
CIRCLE
5
130
100
AcDbEntity
8
0
100
AcDbCircle
10
-11.928699332259461
20
39.179901948234452
30
9.7699626167013776e-14
40
2.0000000000000018
210
1.5144605574887667e-16
220
6.4308534197905584e-15
230
1
0
CIRCLE
5
131
100
AcDbEntity
8
0
100
AcDbCircle
10
7.9000616072825904
20
36.56834310292912
30
8.8817841970012523e-14
40
1.9999999999999984
210
1.514460557488767e-16
220
6.4308534197905591e-15
230
1
0
SPLINE
5
132
100
AcDbEntity
8
0
100
AcDbSpline
70
0
71
3
72
14
73
10
74
0
42
0.000000001
43
0.0000000001
44
0.0000000001
40
0
40
0
40
0
40
0
40
0.097661118346731718
40
0.097661118346731718
40
0.19532223669346438
40
0.19532223669346438
40
0.28293607206811699
40
0.28293607206811699
40
0.37054990744277072
40
0.37054990744277072
40
0.37054990744277072
40
0.37054990744277072
10
-13.744676436909691
20
64.298298055533493
30
0
10
-13.789589997680791
20
63.975874188171289
30
0
10
-13.897050711267676
20
63.665305485863335
30
0
10
-14.224969161394839
20
63.102840373336377
30
0
10
-14.442291818822529
20
62.856321436160307
30
0
10
-14.932609651342526
20
62.480825222884214
30
0
10
-15.193805174340003
20
62.345253197280933
30
0
10
-15.751117912769828
20
62.170421130594264
30
0
10
-16.042948851585106
20
62.132505718024966
30
0
10
-16.334691585926834
20
62.145814059331563
30
0
0
SPLINE
5
133
100
AcDbEntity
8
0
100
AcDbSpline
70
0
71
3
72
30
73
26
74
0
42
0.000000001
43
0.0000000001
44
0.0000000001
40
-48.998215857268789
40
-48.998215857268789
40
-48.998215857268789
40
-48.998215857268789
40
-43.59110861300902
40
-43.59110861300902
40
-38.115062444076742
40
-38.115062444076742
40
-32.020155308952596
40
-32.020155308952596
40
-27.47071985923154
40
-27.47071985923154
40
-24.567892095541747
40
-24.567892095541747
40
-21.207114692216258
40
-21.207114692216258
40
-18.129537219786904
40
-18.129537219786904
40
-14.717564611449426
40
-14.717564611449426
40
-9.8476728099765509
40
-9.8476728099765509
40
-5.5691806126950318
40
-5.5691806126950318
40
-2.9156209754924585
40
-2.9156209754924585
40
-0.59638470104660979
40
-0.59638470104660979
40
-0.59638470104660979
40
-0.59638470104660979
10
-18.39239618980827
20
47.631089880193827
30
0
10
-21.967537886513991
20
48.419286978501141
30
0
10
-25.63009566367182
20
49.319198649835414
30
0
10
-32.005351209579068
20
51.267616722643375
30
0
10
-33.966471299965519
20
52.055876559812887
30
0
10
-36.628453633153264
20
53.304380060124871
30
0
10
-37.51481092080666
20
53.912190525485855
30
0
10
-38.415422703563507
20
54.615561810118571
30
0
10
-38.765005721535871
20
54.948535747465279
30
0
10
-39.252240658216749
20
55.716009110732905
30
0
10
-39.440661790822027
20
56.099117794896607
30
0
10
-39.668353281953259
20
57.095218856350023
30
0
10
-39.640106159650635
20
57.559411357451935
30
0
10
-39.548396701356467
20
58.168298848332121
30
0
10
-39.453466735306435
20
58.569449465572134
30
0
10
-38.971978624554808
20
59.480231664709073
30
0
10
-38.640598672572736
20
59.831390949936527
30
0
10
-37.954606816410227
20
60.418885435020051
30
0
10
-37.495700370668366
20
60.670090769826423
30
0
10
-36.201899343386323
20
61.152332223066423
30
0
10
-35.301243551114275
20
61.455679907717979
30
0
10
-32.861302191611458
20
61.862297026256734
30
0
10
-31.467886567423598
20
62.072430061303407
30
0
10
-26.282138875616198
20
62.34116793926728
30
0
10
-22.614959776662047
20
62.432299180436146
30
0
10
-16.334691585926823
20
62.145814059331556
30
0
0
SPLINE
5
134
100
AcDbEntity
8
0
100
AcDbSpline
70
0
71
3
72
14
73
10
74
0
42
0.000000001
43
0.0000000001
44
0.0000000001
40
0
40
0
40
0
40
0
40
0.097661118346731607
40
0.097661118346731607
40
0.19532223669346338
40
0.19532223669346338
40
0.28472967026306517
40
0.28472967026306517
40
0.37413710383266707
40
0.37413710383266707
40
0.37413710383266707
40
0.37413710383266707
10
-18.392396189808274
20
47.631089880193827
30
0
10
-18.074493336821774
20
47.561003117898935
30
0
10
-17.773319311554307
20
47.42949292695527
30
0
10
-17.238333282037928
20
47.058430316381184
30
0
10
-17.009636035821107
20
46.822425457552619
30
0
10
-16.670539771379836
20
46.299125265121589
30
0
10
-16.554493051626451
20
46.022042685644344
30
0
10
-16.425419278399009
20
45.440136305183955
30
0
10
-16.413426070755101
20
45.139973416095884
30
0
10
-16.454543828456373
20
44.844798724361411
30
0
0
LINE
5
135
100
AcDbEntity
8
0
100
AcDbLine
10
-16.398906770924448
20
45.244204047611412
30
0
11
-17.466832389510209
21
37.577817724905572
31
-1.8932661725304283e-28
0
ARC
5
136
100
AcDbEntity
8
0
100
AcDbCircle
10
-15.485958898685649
20
37.301882563411873
30
-8.8817841970012523e-15
40
2.0000000000000075
210
4.3984227167659398e-15
220
-6.1269913918793666e-16
230
1
100
AcDbArc
50
172.0697440742434
51
262.06974407424292
0
LINE
5
137
100
AcDbEntity
8
0
100
AcDbLine
10
10.029078790356426
20
31.728333269939423
30
0
11
-15.761894060179362
21
35.321009072587316
31
-8.8817841970012997e-15
0
ARC
5
138
100
AcDbEntity
8
0
100
AcDbCircle
10
10.305013951850125
20
33.709206760763983
30
0
40
2.0000000000000075
210
-5.4276228826019611e-30
220
7.560664543066027e-31
230
1
100
AcDbArc
50
262.06974407424332
51
352.0697440742432
0
LINE
5
139
100
AcDbEntity
8
0
100
AcDbLine
10
12.285887442674678
20
33.433271599270277
30
1.09600596055081e-29
11
13.139380737016378
21
39.560298804524841
31
1.4199496293978212e-28
0
SPLINE
5
140
100
AcDbEntity
8
0
100
AcDbSpline
70
0
71
3
72
16
73
12
74
0
42
0.000000001
43
0.0000000001
44
0.0000000001
40
0
40
0
40
0
40
0
40
0.097661118346727332
40
0.097661118346727332
40
0.19532223669345464
40
0.19532223669345464
40
0.29298335504018236
40
0.29298335504018236
40
0.34369923754887133
40
0.34369923754887133
40
0.39441512005756058
40
0.39441512005756058
40
0.39441512005756058
40
0.39441512005756058
10
13.139380737016497
20
39.560298804524898
30
0
10
13.184294297787599
20
39.88272267188708
30
0
10
13.29175501137448
20
40.193291374195027
30
0
10
13.619673461501629
20
40.755756486721936
30
0
10
13.836996118929314
20
41.002275423897991
30
0
10
14.353903417055058
20
41.39813443653766
30
0
10
14.648546142246788
20
41.543689884080628
30
0
10
15.125983475058703
20
41.67281332950391
30
0
10
15.293230234940376
20
41.700282014696278
30
0
10
15.630698123634994
20
41.721042854847425
30
0
10
15.800050692176439
20
41.714281576452819
30
0
10
15.967420043979736
20
41.690482476199008
30
0
0
SPLINE
5
141
100
AcDbEntity
8
0
100
AcDbSpline
70
0
71
3
72
12
73
8
74
0
42
0.000000001
43
0.0000000001
44
0.0000000001
40
-20.045095977672588
40
-20.045095977672588
40
-20.045095977672588
40
-20.045095977672588
40
-19.265412291719407
40
-19.265412291719407
40
-18.638105677971232
40
-18.638105677971232
40
-18.448443819354033
40
-18.448443819354033
40
-18.448443819354033
40
-18.448443819354033
10
119.02943370162873
20
36.925669514863358
30
0
10
109.61918305394619
20
35.679274999381349
30
0
10
97.241710098082734
20
34.916634067634398
30
0
10
62.051613892570757
20
36.430163893867842
30
0
10
44.066974344861634
20
38.100016432565823
30
0
10
24.953162820454324
20
40.454960175265029
30
0
10
20.450071249450289
20
41.053071478950145
30
0
10
15.967420043979775
20
41.690482476199108
30
0
0
SPLINE
5
142
100
AcDbEntity
8
0
100
AcDbSpline
70
0
71
3
72
12
73
8
74
0
42
0.000000001
43
0.0000000001
44
0.0000000001
40
-9.3474373282470768
40
-9.3474373282470768
40
-9.3474373282470768
40
-9.3474373282470768
40
-8.9560541342030895
40
-8.9560541342030895
40
-5.2899986709079672
40
-5.2899986709079672
40
0
40
0
40
0
40
0
10
18.41272423052526
20
58.977400285472548
30
0
10
19.730829209487744
20
58.817373933738452
30
0
10
21.035293851968063
20
58.654738506236512
30
0
10
34.338715907799958
20
56.962211772759581
30
0
10
47.702965311153861
20
54.970619657593325
30
0
10
82.543610834964696
20
48.451204632924259
30
0
10
102.74366115540104
20
43.686431363564402
30
0
10
119.02943370162873
20
36.925669514863358
30
0
0
SPLINE
5
143
100
AcDbEntity
8
0
100
AcDbSpline
70
0
71
3
72
16
73
12
74
0
42
0.000000001
43
0.0000000001
44
0.0000000001
40
0
40
0
40
0
40
0
40
0.097661118346727888
40
0.097661118346727888
40
0.1953222366934575
40
0.1953222366934575
40
0.29298335504018691
40
0.29298335504018691
40
0.34554849764523299
40
0.34554849764523299
40
0.39811364025027801
40
0.39811364025027801
40
0.39811364025027801
40
0.39811364025027801
10
18.412724230525281
20
58.97740028547264
30
0
10
18.089560097678323
20
59.016634472442703
30
0
10
17.777148899233278
20
59.118614700447807
30
0
10
17.209001750292899
20
59.436586916049492
30
0
10
16.958697596205553
20
59.649538915956661
30
0
10
16.553805869353543
20
60.159401840938003
30
0
10
16.403089282180623
20
60.451438198552587
30
0
10
16.263872502166205
20
60.932451150724802
30
0
10
16.232988770652412
20
61.105416520417855
30
0
10
16.207898640990905
20
61.454951458327834
30
0
10
16.213761617190482
20
61.630554560508173
30
0
10
16.237935902379917
20
61.804096056387749
30
0
0
LINE
5
144
100
AcDbEntity
8
0
100
AcDbLine
10
15.028574956742917
20
53.122378854843113
30
0
11
17.15614304303848
21
68.395688712323661
31
-1.8268290471636852e-28
0
ARC
5
145
100
AcDbEntity
8
0
100
AcDbCircle
10
15.17526955221393
20
68.671623873817367
30
0
40
1.9999999999999987
210
9.2087039067958313e-29
220
-9.7896250939133258e-31
230
1
100
AcDbArc
50
-7.9302559257568568
51
82.069744074243189
0
LINE
5
146
100
AcDbEntity
8
0
100
AcDbLine
10
-10.339768136828159
20
74.245173167289792
30
0
11
15.451204713707634
21
70.652497364641917
31
-2.3470851113329305e-29
0
ARC
5
147
100
AcDbEntity
8
0
100
AcDbCircle
10
-10.615703298321858
20
72.264299676465242
30
-8.8817841970012523e-15
40
2.0000000000000031
210
-6.126991391871331e-16
220
-4.3984227167661567e-15
230
1
100
AcDbArc
50
82.069744074243332
51
172.06974407424318
0
LINE
5
148
100
AcDbEntity
8
0
100
AcDbLine
10
-12.596576789146416
20
72.540234837958948
30
-8.8817841969996446e-15
11
-13.751259045008419
21
64.251043063409398
31
-2.2088105346188331e-28
0
CIRCLE
5
149
100
AcDbEntity
8
0
100
AcDbCircle
10
-23.243117666082497
20
55.655718949743608
30
0
40
2.9999999999999933
210
-3.7635239075017149e-30
220
1.2095867214594123e-29
230
1
0
CIRCLE
5
150
100
AcDbEntity
8
0
100
AcDbCircle
10
41.944430429901224
20
47.073989914530365
30
0
40
3.0000000000000067
210
-3.7635239075017177e-30
220
1.2095867214594112e-29
230
1
0
CIRCLE
5
151
100
AcDbEntity
8
0
100
AcDbCircle
10
71.935659782045846
20
43.125741955363878
30
0
40
3.0000000000000022
210
-3.763523907501717e-30
220
1.2095867214594116e-29
230
1
0
ENDSEC
0
SECTION
2
OBJECTS
0
DICTIONARY
5
C
100
AcDbDictionary
3
ACAD_GROUP
350
D
3
ACAD_MLINESTYLE
350
17
0
DICTIONARY
5
D
100
AcDbDictionary
0
DICTIONARY
5
1A
330
C
100
AcDbDictionary
0
DICTIONARY
5
17
100
AcDbDictionary
0
ENDSEC
0
EOF
