0
SECTION
2
HEADER
9
$INSUNITS
70
4
9
$ACADVER
1
AC1014
9
$HANDSEED
5
FFFF
0
ENDSEC
0
SECTION
2
TABLES
0
TABLE
2
VPORT
5
8
100
AcDbSymbolTable
0
ENDTAB
0
TABLE
2
LTYPE
5
5
100
AcDbSymbolTable
0
LTYPE
5
14
100
AcDbSymbolTableRecord
100
AcDbLinetypeTableRecord
2
BYBLOCK
70
0
0
LTYPE
5
15
100
AcDbSymbolTableRecord
100
AcDbLinetypeTableRecord
2
BYLAYER
70
0
0
LTYPE
5
16
100
AcDbSymbolTableRecord
100
AcDbLinetypeTableRecord
2
DASHED
70
0
3
Dashed __ __ __ __ __ __ __ __ __ __ __ __ __ _
72
65
73
2
40
0.75
49
0.5
74
0
49
-0.25
74
0
0
ENDTAB
0
TABLE
2
LAYER
5
2
100
AcDbSymbolTable
70
2
0
LAYER
5
50
100
AcDbSymbolTableRecord
100
AcDbLayerTableRecord
2
0
70
0
62
7
6
CONTINUOUS
0
ENDTAB
0
TABLE
2
STYLE
5
3
100
AcDbSymbolTable
70
1
0
STYLE
5
11
100
AcDbSymbolTableRecord
100
AcDbTextStyleTableRecord
2
STANDARD
70
0
0
ENDTAB
0
TABLE
2
VIEW
5
6
100
AcDbSymbolTable
70
0
0
ENDTAB
0
TABLE
2
UCS
5
7
100
AcDbSymbolTable
70
0
0
ENDTAB
0
TABLE
2
APPID
5
9
100
AcDbSymbolTable
70
2
0
APPID
5
12
100
AcDbSymbolTableRecord
100
AcDbRegAppTableRecord
2
ACAD
70
0
0
ENDTAB
0
TABLE
2
DIMSTYLE
5
A
100
AcDbSymbolTable
70
1
0
ENDTAB
0
TABLE
2
BLOCK_RECORD
5
1
100
AcDbSymbolTable
70
1
0
BLOCK_RECORD
5
1F
100
AcDbSymbolTableRecord
100
AcDbBlockTableRecord
2
*MODEL_SPACE
0
BLOCK_RECORD
5
1B
100
AcDbSymbolTableRecord
100
AcDbBlockTableRecord
2
*PAPER_SPACE
0
ENDTAB
0
ENDSEC
0
SECTION
2
BLOCKS
0
BLOCK
5
20
100
AcDbEntity
100
AcDbBlockBegin
2
*MODEL_SPACE
0
ENDBLK
5
21
100
AcDbEntity
100
AcDbBlockEnd
0
BLOCK
5
1C
100
AcDbEntity
100
AcDbBlockBegin
2
*PAPER_SPACE
0
ENDBLK
5
1D
100
AcDbEntity
100
AcDbBlockEnd
0
ENDSEC
0
SECTION
2
ENTITIES
0
ARC
5
100
100
AcDbEntity
8
0
100
AcDbCircle
10
19.079999999977201
20
33.220940427603395
30
4.8567211585748282e-07
40
2.0000000000000018
210
0
220
-6.6613381477509329e-15
230
1
100
AcDbArc
50
-90
51
0
0
LINE
5
101
100
AcDbEntity
8
0
100
AcDbLine
10
21.079999999977201
20
33.220940427603395
30
4.8567212473926702e-07
11
21.079999999977201
21
39.289123868297679
31
4.8567207144856184e-07
0
SPLINE
5
102
100
AcDbEntity
8
0
100
AcDbSpline
70
0
71
3
72
16
73
12
74
0
42
0.000000001
43
0.0000000001
44
0.0000000001
40
0
40
0
40
0
40
0
40
0.058596671008038767
40
0.058596671008038767
40
0.11719334201607753
40
0.11719334201607753
40
0.17579001302411651
40
0.17579001302411651
40
0.21593255140642581
40
0.21593255140642581
40
0.25607508978873594
40
0.25607508978873594
40
0.25607508978873594
40
0.25607508978873594
10
22.77727494800471
20
40.77609481451038
30
4.8567202703964085e-07
10
22.583649287263068
20
40.801782937238599
30
4.8567202703964085e-07
10
22.386857331784526
20
40.789406070375122
30
4.8567202703964085e-07
10
22.009094489511625
20
40.689915670910388
30
4.8567202703964085e-07
10
21.831735221386062
20
40.603753320754485
30
4.8567202703964085e-07
10
21.520027033913117
20
40.368293960248081
30
4.8567202703964085e-07
10
21.388658214732075
20
40.221248069719302
30
4.8567202259874875e-07
10
21.221012449731145
20
39.938013336993876
30
4.8567202259874875e-07
10
21.1685692600377
20
39.814260013180551
30
4.8567202259874875e-07
10
21.097904704285817
20
39.55614116885716
30
4.8567202259874875e-07
10
21.079999999977201
20
39.422932329572042
30
4.8567200483518036e-07
10
21.079999999977201
20
39.289123868297679
30
4.8567200483518036e-07
0
SPLINE
5
103
100
AcDbEntity
8
0
100
AcDbSpline
70
0
71
3
72
12
73
8
74
0
42
0.000000001
43
0.0000000001
44
0.0000000001
40
-9.0875554838146702
40
-9.0875554838146702
40
-9.0875554838146702
40
-9.0875554838146702
40
-8.8820689983187631
40
-8.8820689983187631
40
-8.6350033832691384
40
-8.6350033832691384
40
-8.2752380106886907
40
-8.2752380106886907
40
-8.2752380106886907
40
-8.2752380106886907
10
119.26095062683143
20
36.914214341937111
30
4.8567205368499344e-07
10
109.62682039173087
20
35.638166812995841
30
4.8567204480320925e-07
10
99.004747723072654
20
35.255726454814258
30
4.8567259547382946e-07
10
74.589399906829811
20
35.656677074525746
30
4.8567259103293736e-07
10
61.630193178044948
20
36.672148279878257
30
4.8567259547382946e-07
10
42.511587569345402
20
38.334573842908966
30
4.8567259991472156e-07
10
31.962391779029169
20
39.557514552345822
30
4.8567204036231715e-07
10
22.777274948004678
20
40.776094814510401
30
4.8567204924410134e-07
0
SPLINE
5
104
100
AcDbEntity
8
0
100
AcDbSpline
70
0
71
3
72
10
73
6
74
0
42
0.000000001
43
0.0000000001
44
0.0000000001
40
-8.3326670763531681
40
-8.3326670763531681
40
-8.3326670763531681
40
-8.3326670763531681
40
-8.1512747928661486
40
-8.1512747928661486
40
-8.0382743565659212
40
-8.0382743565659212
40
-8.0382743565659212
40
-8.0382743565659212
10
119.26095062683159
20
36.914214341937068
30
4.8567202703964085e-07
10
109.53590677946096
20
40.951401109416452
30
4.8567205368499344e-07
10
95.556910665371646
20
45.602996753411951
30
4.856721957935406e-07
10
55.455230628303866
20
53.717919049151241
30
4.8567224020246158e-07
10
39.00160605131142
20
56.385992075111211
30
4.8567212029837492e-07
10
22.827077018449696
20
58.44800193929936
30
4.8567212918015912e-07
0
SPLINE
5
105
100
AcDbEntity
8
0
100
AcDbSpline
70
0
71
3
72
14
73
10
74
0
42
0.000000001
43
0.0000000001
44
0.0000000001
40
0
40
0
40
0
40
0
40
0.078128894677384333
40
0.078128894677384333
40
0.15625778935477125
40
0.15625778935477125
40
0.22292655231608915
40
0.22292655231608915
40
0.28959531527740739
40
0.28959531527740739
40
0.28959531527740739
40
0.28959531527740739
10
21.079999999977087
20
60.431944974120491
30
4.8567214694372751e-07
10
21.079999999977087
20
60.171515325195877
30
4.8567214694372751e-07
10
21.130867701506343
20
59.913575525660114
30
4.8567213806194331e-07
10
21.328612126846132
20
59.431712941095753
30
4.8567213806194331e-07
10
21.473598306171379
20
59.212397025011008
30
4.8567213362105122e-07
10
21.812642951547247
20
58.868873659843658
30
4.8567213362105122e-07
10
21.994024338693077
20
58.737824941531699
30
4.8567212918015912e-07
10
22.392404610887358
20
58.540755294944319
30
4.8567212918015912e-07
10
22.606631971921196
20
58.476105376470841
30
4.8567213806194331e-07
10
22.827077018449948
20
58.448001939299331
30
4.8567213806194331e-07
0
LINE
5
106
100
AcDbEntity
8
0
100
AcDbLine
10
21.079999999977087
20
60.431944974120491
30
4.8567214694372751e-07
11
21.079999999977201
21
72.320940427603361
31
4.8567222687978528e-07
0
ARC
5
107
100
AcDbEntity
8
0
100
AcDbCircle
10
19.079999999977201
20
72.320940427603361
30
4.8567211585748282e-07
40
1.9999999999999996
210
-5.551115123125784e-14
220
0
230
1
100
AcDbArc
50
0
51
90
0
LINE
5
108
100
AcDbEntity
8
0
100
AcDbLine
10
19.079999999977201
20
74.320940427603347
30
4.8567212029837492e-07
11
-17.10300000002276
21
74.320940427603347
31
4.8567222243889319e-07
0
ARC
5
109
100
AcDbEntity
8
0
100
AcDbCircle
10
-17.10300000002276
20
72.320940427603361
30
4.8567213806194331e-07
40
1.9999999999999929
210
0
220
-4.21884749357561e-14
230
1
100
AcDbArc
50
90
51
180
0
LINE
5
110
100
AcDbEntity
8
0
100
AcDbLine
10
-19.10300000002276
20
72.320940427603361
30
4.8567212918015912e-07
11
-19.103000000022753
21
64.300148903707139
31
4.8567216470729591e-07
0
SPLINE
5
111
100
AcDbEntity
8
0
100
AcDbSpline
70
0
71
3
72
16
73
12
74
0
42
0.000000001
43
0.0000000001
44
0.0000000001
40
0
40
0
40
0
40
0
40
0.078128894677385152
40
0.078128894677385152
40
0.15625778935477064
40
0.15625778935477064
40
0.23438668403215485
40
0.23438668403215485
40
0.27645940107786948
40
0.27645940107786948
40
0.31853211812358306
40
0.31853211812358306
40
0.31853211812358306
40
0.31853211812358306
10
-21.138596983416672
20
62.300465715106199
30
4.8567216470729591e-07
10
-20.87820858803277
20
62.295830460162165
30
4.8567216470729591e-07
10
-20.619404279268068
20
62.342099164577235
30
4.856721735890801e-07
10
-20.134098471970972
20
62.531235838862557
30
4.856721735890801e-07
10
-19.912236761468442
20
62.672295559039206
30
4.856721780299722e-07
10
-19.535071587587073
20
63.031518108118512
30
4.856721780299722e-07
10
-19.383374028841438
20
63.246246573660549
30
4.856721780299722e-07
10
-19.219871169825581
20
63.612040091907872
30
4.856721780299722e-07
10
-19.176267509577642
20
63.745739453698619
30
4.856721824708643e-07
10
-19.117750946019513
20
64.020052274711347
30
4.856721824708643e-07
10
-19.103000000022767
20
64.159906513554745
30
4.8567220023443269e-07
10
-19.103000000022767
20
64.300148903707139
30
4.8567220023443269e-07
0
SPLINE
5
112
100
AcDbEntity
8
0
100
AcDbSpline
70
0
71
3
72
28
73
24
74
0
42
0.000000001
43
0.0000000001
44
0.0000000001
40
-7.9158533867521124
40
-7.9158533867521124
40
-7.9158533867521124
40
-7.9158533867521124
40
-7.8988654559259963
40
-7.8988654559259963
40
-7.8503697980762785
40
-7.8503697980762785
40
-7.8209098904601131
40
-7.8209098904601131
40
-7.7941889499958013
40
-7.7941889499958013
40
-7.7730799081597253
40
-7.7730799081597253
40
-7.7471522275372635
40
-7.7471522275372635
40
-7.7174113348621542
40
-7.7174113348621542
40
-7.6775125505151225
40
-7.6775125505151225
40
-7.6247639929165398
40
-7.6247639929165398
40
-7.5492080774444821
40
-7.5492080774444821
40
-7.1806953980309922
40
-7.1806953980309922
40
-7.1806953980309922
40
-7.1806953980309922
10
-21.138596983459436
20
62.300465715106967
30
4.8567214694372751e-07
10
-22.480003502550719
20
62.324344510436163
30
4.8567214694372751e-07
10
-23.726628443479925
20
62.329167142157686
30
4.8567226240692207e-07
10
-28.191856210931533
20
62.280680569403337
30
4.8567226240692207e-07
10
-31.486854166879308
20
62.099402999725513
30
4.8567226240692207e-07
10
-35.612097889036811
20
61.294878045511879
30
4.8567225796602997e-07
10
-36.537337015758126
20
60.947286948001178
30
4.856721913526485e-07
10
-37.445015028343576
20
60.550580741915013
30
4.856721913526485e-07
10
-37.858675504607916
20
60.317718397882331
30
4.856721869117564e-07
10
-38.570275674128936
20
59.652194442580218
30
4.856721824708643e-07
10
-38.825809345719946
20
59.31918513738573
30
4.856721957935406e-07
10
-39.250663672514456
20
58.488005801218193
30
4.856721869117564e-07
10
-39.346204606987911
20
58.046738370320696
30
4.856721735890801e-07
10
-39.424053359454412
20
57.289924375944814
30
4.8567216470729591e-07
10
-39.398016843044353
20
56.881209894813267
30
4.856721735890801e-07
10
-39.166688110836297
20
55.952623917666457
30
4.8567216470729591e-07
10
-38.925480006246993
20
55.529951929888441
30
4.8567215138461961e-07
10
-38.445147558625848
20
54.852747602285127
30
4.8567214694372751e-07
10
-38.085697830357873
20
54.494900235373834
30
4.8567214694372751e-07
10
-36.557302888651705
20
53.41298577153529
30
4.8567213806194331e-07
10
-35.487309504209257
20
52.866531107660684
30
4.8567221799800109e-07
10
-30.955142084176575
20
50.773241350131798
30
4.8567220467532479e-07
10
-25.034879724023796
20
49.214591506051626
30
4.8567205368499344e-07
10
-20.647950362916745
20
48.189572283921564
30
4.8567204924410134e-07
0
SPLINE
5
113
100
AcDbEntity
8
0
100
AcDbSpline
70
0
71
3
72
14
73
10
74
0
42
0.000000001
43
0.0000000001
44
0.0000000001
40
0
40
0
40
0
40
0
40
0.0781288946773845
40
0.0781288946773845
40
0.15625778935476964
40
0.15625778935476964
40
0.21259274386680499
40
0.21259274386680499
40
0.26892769837884001
40
0.26892769837884001
40
0.26892769837884001
40
0.26892769837884001
10
-19.103000000022746
20
46.242027720177354
30
4.8567207144856184e-07
10
-19.103000000022746
20
46.502457369101968
30
4.8567207144856184e-07
10
-19.153867701552009
20
46.760397168637731
30
4.8567208033034603e-07
10
-19.351612126891794
20
47.242259753202077
30
4.8567208033034603e-07
10
-19.496598306217049
20
47.461575669286816
30
4.8567208477123813e-07
10
-19.811446272736333
20
47.780582721750058
30
4.8567208477123813e-07
10
-19.96152308834008
20
47.894992627072611
30
4.8567208921213023e-07
10
-20.289159454669047
20
48.078580493737171
30
4.8567208921213023e-07
10
-20.465092305566564
20
48.146846949575647
30
4.8567207588945394e-07
10
-20.64795036291433
20
48.189572283921009
30
4.8567207588945394e-07
0
LINE
5
114
100
AcDbEntity
8
0
100
AcDbLine
10
-19.103000000022746
20
46.242027720177354
30
4.8567207144856184e-07
11
-19.103000000022757
21
33.220940427603395
31
4.8567211141659072e-07
0
ARC
5
115
100
AcDbEntity
8
0
100
AcDbCircle
10
-17.10300000002276
20
33.220940427603395
30
4.8567213806194331e-07
40
1.9999999999999973
210
-1.3322676295501897e-14
220
0
230
1
100
AcDbArc
50
180
51
270
0
LINE
5
116
100
AcDbEntity
8
0
100
AcDbLine
10
-17.10300000002276
20
31.220940427603388
30
4.8567213362105122e-07
11
19.079999999977201
21
31.220940427603388
31
4.8567210253480653e-07
0
CIRCLE
5
117
100
AcDbEntity
8
0
100
AcDbCircle
10
23.011474620737399
20
55.64522175440672
30
-4.8567201530600885e-07
40
2.9999999999999938
210
1.2246467999898389e-16
220
6.4066671882646829e-15
230
-1
0
CIRCLE
5
118
100
AcDbEntity
8
0
100
AcDbCircle
10
13.999536395272374
20
36.720698795318391
30
-4.8567200442377212e-07
40
2.0999999999999885
210
-2.6205030172712978e-16
220
1.3625429879745132e-15
230
-1
0
CIRCLE
5
119
100
AcDbEntity
8
0
100
AcDbCircle
10
-16.00046360472685
20
36.720698795318057
30
-4.8567124560097628e-07
40
2.0499999999999887
210
-8.3566553111679487e-16
220
6.4066671882646821e-15
230
-1
0
CIRCLE
5
120
100
AcDbEntity
8
0
100
AcDbCircle
10
-42.17597655185638
20
47.062756512956256
30
-4.8567180473610526e-07
40
3.0000000000000071
210
1.2246467999898387e-16
220
6.4066671882646829e-15
230
-1
0
CIRCLE
5
121
100
AcDbEntity
8
0
100
AcDbCircle
10
-72.167161311871041
20
43.114169842935297
30
-4.8567180859695671e-07
40
3.0000000000000071
210
1.2246467999898387e-16
220
6.4066671882646821e-15
230
-1
0
CIRCLE
5
122
100
AcDbEntity
8
0
100
AcDbCircle
10
-16.000463604725667
20
68.720698795318071
30
-4.8567136472258015e-07
40
2.0999999999999752
210
-2.6205030172712978e-16
220
1.362542987974513e-15
230
-1
0
CIRCLE
5
123
100
AcDbEntity
8
0
100
AcDbCircle
10
13.999536395272383
20
68.720698795318441
30
-4.8567196970418066e-07
40
2.0999999999999752
210
-2.6205030172712978e-16
220
1.362542987974513e-15
230
-1
0
ENDSEC
0
SECTION
2
OBJECTS
0
DICTIONARY
5
C
100
AcDbDictionary
3
ACAD_GROUP
350
D
3
ACAD_MLINESTYLE
350
17
0
DICTIONARY
5
D
100
AcDbDictionary
0
DICTIONARY
5
1A
330
C
100
AcDbDictionary
0
DICTIONARY
5
17
100
AcDbDictionary
0
ENDSEC
0
EOF
