0
SECTION
2
HEADER
9
$INSUNITS
70
4
9
$ACADVER
1
AC1014
9
$HANDSEED
5
FFFF
0
ENDSEC
0
SECTION
2
TABLES
0
TABLE
2
VPORT
5
8
100
AcDbSymbolTable
0
ENDTAB
0
TABLE
2
LTYPE
5
5
100
AcDbSymbolTable
0
LTYPE
5
14
100
AcDbSymbolTableRecord
100
AcDbLinetypeTableRecord
2
BYBLOCK
70
0
0
LTYPE
5
15
100
AcDbSymbolTableRecord
100
AcDbLinetypeTableRecord
2
BYLAYER
70
0
0
LTYPE
5
16
100
AcDbSymbolTableRecord
100
AcDbLinetypeTableRecord
2
DASHED
70
0
3
Dashed __ __ __ __ __ __ __ __ __ __ __ __ __ _
72
65
73
2
40
0.75
49
0.5
74
0
49
-0.25
74
0
0
ENDTAB
0
TABLE
2
LAYER
5
2
100
AcDbSymbolTable
70
2
0
LAYER
5
50
100
AcDbSymbolTableRecord
100
AcDbLayerTableRecord
2
0
70
0
62
7
6
CONTINUOUS
0
ENDTAB
0
TABLE
2
STYLE
5
3
100
AcDbSymbolTable
70
1
0
STYLE
5
11
100
AcDbSymbolTableRecord
100
AcDbTextStyleTableRecord
2
STANDARD
70
0
0
ENDTAB
0
TABLE
2
VIEW
5
6
100
AcDbSymbolTable
70
0
0
ENDTAB
0
TABLE
2
UCS
5
7
100
AcDbSymbolTable
70
0
0
ENDTAB
0
TABLE
2
APPID
5
9
100
AcDbSymbolTable
70
2
0
APPID
5
12
100
AcDbSymbolTableRecord
100
AcDbRegAppTableRecord
2
ACAD
70
0
0
ENDTAB
0
TABLE
2
DIMSTYLE
5
A
100
AcDbSymbolTable
70
1
0
ENDTAB
0
TABLE
2
BLOCK_RECORD
5
1
100
AcDbSymbolTable
70
1
0
BLOCK_RECORD
5
1F
100
AcDbSymbolTableRecord
100
AcDbBlockTableRecord
2
*MODEL_SPACE
0
BLOCK_RECORD
5
1B
100
AcDbSymbolTableRecord
100
AcDbBlockTableRecord
2
*PAPER_SPACE
0
ENDTAB
0
ENDSEC
0
SECTION
2
BLOCKS
0
BLOCK
5
20
100
AcDbEntity
100
AcDbBlockBegin
2
*MODEL_SPACE
0
ENDBLK
5
21
100
AcDbEntity
100
AcDbBlockEnd
0
BLOCK
5
1C
100
AcDbEntity
100
AcDbBlockBegin
2
*PAPER_SPACE
0
ENDBLK
5
1D
100
AcDbEntity
100
AcDbBlockEnd
0
ENDSEC
0
SECTION
2
ENTITIES
0
LWPOLYLINE
5
100
100
AcDbEntity
8
0
100
AcDbPolyline
90
8
70
1
43
0.0
10
-16.402777182313898
20
42.188658801179983
10
-16.402777182313894
20
76.188658801180011
42
-0.4142135623730942
10
-13.402777182313896
20
79.188658801179997
10
13.497222817686618
20
79.188658801179997
42
-0.41421356237304363
10
16.497222817686101
20
76.188658801180011
10
16.497222817686104
20
42.18865880117999
42
-0.41421356237309531
10
13.497222817686104
20
39.18865880117999
10
-13.402777182313898
20
39.18865880117999
42
-0.41421356237309398
0
SPLINE
5
101
100
AcDbEntity
8
0
100
AcDbSpline
70
0
71
3
72
10
73
6
74
0
42
0.000000001
43
0.0000000001
44
0.0000000001
40
0
40
0
40
0
40
0
40
0.063359710057228624
40
0.063359710057228624
40
0.12671450080876909
40
0.12671450080876909
40
0.12671450080876909
40
0.12671450080876909
10
17.601039947323599
20
106.7991863405007
30
3.2673863614718357e-12
10
17.510895376701388
20
106.99018107380203
30
3.276268145668837e-12
10
17.400832188263649
20
107.17112599106281
30
3.2851499298658382e-12
10
17.144545011025603
20
107.50687247527621
30
3.2984726061613401e-12
10
16.999038066082719
20
107.66074115063147
30
3.3029134982598407e-12
10
16.838583775628827
20
107.79805072014094
30
3.3073543903583413e-12
0
SPLINE
5
102
100
AcDbEntity
8
0
100
AcDbSpline
70
4
71
5
72
13
73
7
74
0
42
0.000000001
43
0.0000000001
44
0.0000000001
40
0.88352748181368468
40
0.88352748181368468
40
0.88352748181368468
40
0.88352748181368468
40
0.88352748181368468
40
0.88352748181368468
40
0.89999999999999991
40
0.93113295770608451
40
0.93113295770608451
40
0.93113295770608451
40
0.93113295770608451
40
0.93113295770608451
40
0.93113295770608451
41
1
41
1
41
1
41
1
41
1
41
1
41
1
10
16.83858377562882
20
107.79805072014094
30
3.305133944309091e-12
10
16.415771311872252
20
108.15987462162357
30
3.3228975127030935e-12
10
15.184173051451136
20
109.17346529810963
30
3.3628655415895992e-12
10
13.923980374912592
20
110.09237519238931
30
3.3939517862791035e-12
10
12.633428256407502
20
110.91117568206714
30
3.4294789230671086e-12
10
11.311037270462608
20
111.62535025258194
30
3.4561242756581123e-12
10
10.432255677173377
20
112.04659546827287
30
3.4694469519536142e-12
0
SPLINE
5
103
100
AcDbEntity
8
0
100
AcDbSpline
70
0
71
3
72
14
73
10
74
0
42
0.000000001
43
0.0000000001
44
0.0000000001
40
-0.18412182305811059
40
-0.18412182305811059
40
-0.18412182305811059
40
-0.18412182305811059
40
-0.18353354624735779
40
-0.18353354624735779
40
-0.10580345320185272
40
-0.10580345320185272
40
-0.04950574450288335
40
-0.04950574450288335
40
-0
40
-0
40
-0
40
-0
10
10.432255677173885
20
112.04659546827261
30
3.4716673980028645e-12
10
10.430930747677483
20
112.04723057512483
30
3.4716673980028645e-12
10
10.429605755436576
20
112.04786556883454
30
3.4716673980028645e-12
10
10.253199219768545
20
112.13238815722949
30
3.4738878440521148e-12
10
10.067535528826477
20
112.2189738525784
30
3.4783287361506154e-12
10
9.7097457719723437
20
112.37943290649552
30
3.4849900742983664e-12
10
9.5288544501852801
20
112.45878661013423
30
3.4872105203476167e-12
10
9.1357673898459506
20
112.62379200793697
30
3.4938718584953676e-12
10
8.9648375227930259
20
112.69284869442664
30
3.4960923045446179e-12
10
8.8112617062106491
20
112.75322905448591
30
3.4983127505938683e-12
0
SPLINE
5
104
100
AcDbEntity
8
0
100
AcDbSpline
70
4
71
5
72
12
73
6
74
0
42
0.000000001
43
0.0000000001
44
0.0000000001
40
0.94248573560815097
40
0.94248573560815097
40
0.94248573560815097
40
0.94248573560815097
40
0.94248573560815097
40
0.94248573560815097
40
1
40
1
40
1
40
1
40
1
40
1
41
1
41
1
41
1
41
1
41
1
41
1
10
8.8112617062106349
20
112.75322905448591
30
3.4994229736184934e-12
10
7.1496970336803862
20
113.4064951443024
30
3.5238478801602469e-12
10
5.4392542895709584
20
113.89973525321578
30
3.5416114485542494e-12
10
3.6780389641764542
20
114.22720381659346
30
3.5538239018251261e-12
10
1.8649609827056084
20
114.38563987949411
30
3.5593750169482519e-12
10
2.2062035476271314e-11
20
114.37499999974003
30
3.560485239972877e-12
0
SPLINE
5
105
100
AcDbEntity
8
0
100
AcDbSpline
70
4
71
5
72
12
73
6
74
0
42
0.000000001
43
0.0000000001
44
0.0000000001
40
0.94248573560815097
40
0.94248573560815097
40
0.94248573560815097
40
0.94248573560815097
40
0.94248573560815097
40
0.94248573560815097
40
1
40
1
40
1
40
1
40
1
40
1
41
1
41
1
41
1
41
1
41
1
41
1
10
-8.8112617062106366
20
112.75322905448591
30
3.4994229736184934e-12
10
-7.1496970336803898
20
113.4064951443024
30
3.5238478801602469e-12
10
-5.4392542895709619
20
113.89973525321578
30
3.5416114485542494e-12
10
-3.6780389641764581
20
114.22720381659346
30
3.5538239018251261e-12
10
-1.8649609827056124
20
114.38563987949411
30
3.5593750169482519e-12
10
-2.206599064579657e-11
20
114.37499999974003
30
3.560485239972877e-12
0
SPLINE
5
106
100
AcDbEntity
8
0
100
AcDbSpline
70
0
71
3
72
14
73
10
74
0
42
0.000000001
43
0.0000000001
44
0.0000000001
40
-0.18412182305811059
40
-0.18412182305811059
40
-0.18412182305811059
40
-0.18412182305811059
40
-0.18353354624735779
40
-0.18353354624735779
40
-0.10580345320185272
40
-0.10580345320185272
40
-0.04950574450288335
40
-0.04950574450288335
40
-0
40
-0
40
-0
40
-0
10
-10.432255677173888
20
112.04659546827261
30
3.4716673980028645e-12
10
-10.430930747677486
20
112.04723057512483
30
3.4716673980028645e-12
10
-10.42960575543658
20
112.04786556883454
30
3.4716673980028645e-12
10
-10.25319921976855
20
112.13238815722949
30
3.4738878440521148e-12
10
-10.067535528826479
20
112.2189738525784
30
3.4783287361506154e-12
10
-9.709745771972349
20
112.37943290649552
30
3.4849900742983664e-12
10
-9.5288544501852854
20
112.45878661013423
30
3.4872105203476167e-12
10
-9.1357673898459542
20
112.62379200793697
30
3.4938718584953676e-12
10
-8.9648375227930295
20
112.69284869442664
30
3.4960923045446179e-12
10
-8.8112617062106544
20
112.75322905448591
30
3.4983127505938683e-12
0
SPLINE
5
107
100
AcDbEntity
8
0
100
AcDbSpline
70
4
71
5
72
13
73
7
74
0
42
0.000000001
43
0.0000000001
44
0.0000000001
40
0.88352748181368468
40
0.88352748181368468
40
0.88352748181368468
40
0.88352748181368468
40
0.88352748181368468
40
0.88352748181368468
40
0.89999999999999991
40
0.93113295770608451
40
0.93113295770608451
40
0.93113295770608451
40
0.93113295770608451
40
0.93113295770608451
40
0.93113295770608451
41
1
41
1
41
1
41
1
41
1
41
1
41
1
10
-16.838583775628827
20
107.79805072014094
30
3.305133944309091e-12
10
-16.415771311872259
20
108.15987462162357
30
3.3228975127030935e-12
10
-15.18417305145114
20
109.17346529810963
30
3.3628655415895992e-12
10
-13.923980374912595
20
110.09237519238931
30
3.3939517862791035e-12
10
-12.633428256407505
20
110.91117568206714
30
3.4294789230671086e-12
10
-11.311037270462609
20
111.62535025258194
30
3.4561242756581123e-12
10
-10.43225567717338
20
112.04659546827287
30
3.4694469519536142e-12
0
SPLINE
5
108
100
AcDbEntity
8
0
100
AcDbSpline
70
0
71
3
72
10
73
6
74
0
42
0.000000001
43
0.0000000001
44
0.0000000001
40
-0.12671450080876909
40
-0.12671450080876909
40
-0.12671450080876909
40
-0.12671450080876909
40
-0.063359710057228624
40
-0.063359710057228624
40
-0
40
-0
40
-0
40
-0
10
-16.83858377562883
20
107.79805072014094
30
3.3073543903583413e-12
10
-16.999038066082722
20
107.66074115063147
30
3.3029134982598407e-12
10
-17.144545011025606
20
107.50687247527621
30
3.2984726061613401e-12
10
-17.400832188263657
20
107.17112599106281
30
3.2851499298658382e-12
10
-17.510895376701392
20
106.99018107380203
30
3.276268145668837e-12
10
-17.601039947323603
20
106.7991863405007
30
3.2673863614718357e-12
0
SPLINE
5
109
100
AcDbEntity
8
0
100
AcDbSpline
70
0
71
3
72
22
73
18
74
0
42
0.000000001
43
0.0000000001
44
0.0000000001
40
-2.3006481716987253
40
-2.3006481716987253
40
-2.3006481716987253
40
-2.3006481716987253
40
-2.2461825760037253
40
-2.2461825760037253
40
-2.1824442259088386
40
-2.1824442259088386
40
-2.038000771640526
40
-2.038000771640526
40
-1.7372796702618432
40
-1.7372796702618432
40
-1.2883381294619212
40
-1.2883381294619212
40
-0.68874148828386694
40
-0.68874148828386694
40
-0.14982658899668447
40
-0.14982658899668447
40
-0
40
-0
40
-0
40
-0
10
-17.601039959554818
20
106.79918634627387
30
3.2518432391270835e-12
10
-18.194725878854129
20
106.17240267437504
30
3.2296387786345804e-12
10
-18.677864702745577
20
105.45080143162102
30
3.2029934260435766e-12
10
-19.554726595310129
20
103.7971072557218
30
3.1363800445660672e-12
10
-19.931312644168479
20
102.82556257650216
30
3.1008529077780622e-12
10
-20.94671893261232
20
99.708163550998734
30
2.9809488211185453e-12
10
-21.476131188433314
20
97.134714193579129
30
2.8832491949515315e-12
10
-23.351530975745693
20
88.087676195392874
30
2.5324187191699821e-12
10
-24.889435655582794
20
80.75207420532081
30
2.2526425169644426e-12
10
-34.93249561891146
20
59.090378015708026
30
1.4177548024463249e-12
10
-44.271965573969297
20
48.307880706597295
30
1.0047518372857667e-12
10
-65.126203357919678
20
29.063436141039666
30
2.631228568361621e-13
10
-75.866373363978113
20
22.989823430729182
30
2.7755575615628914e-14
10
-86.106726332061228
20
17.566640607969845
30
-1.8096635301390052e-13
10
-89.794429996930276
20
15.96688691103256
30
-2.4313884239290928e-13
10
-92.566645723039528
20
14.30310883382608
30
-3.0531133177191805e-13
10
-93.087557105601931
20
13.943306269234796
30
-3.1863400806741993e-13
10
-93.445616064562927
20
13.595145272917783
30
-3.3195668436292181e-13
0
SPLINE
5
110
100
AcDbEntity
8
0
100
AcDbSpline
70
0
71
3
72
12
73
8
74
0
42
0.000000001
43
0.0000000001
44
0.0000000001
40
-0.23700180151780437
40
-0.23700180151780437
40
-0.23700180151780437
40
-0.23700180151780437
40
-0.17692507113566186
40
-0.17692507113566186
40
-0.11689381873714032
40
-0.11689381873714032
40
-0
40
-0
40
-0
40
-0
10
-93.445616064562941
20
13.595145272917787
30
-3.3195668436292181e-13
10
-93.589702423056167
20
13.456082645842894
30
-3.3639757646142243e-13
10
-93.719501192661866
20
13.302943762816682
30
-3.4527936065842368e-13
10
-93.946561933348661
20
12.973217109738089
30
-3.5860203695392556e-13
10
-94.043282380629876
20
12.797469211869384
30
-3.6304292905242619e-13
10
-94.274638651046814
20
12.254988008781245
30
-3.8524738954492932e-13
10
-94.356212912765173
20
11.870195989039217
30
-3.985700658404312e-13
10
-94.361936055853533
20
11.480591959771631
30
-4.163336342344337e-13
0
SPLINE
5
111
100
AcDbEntity
8
0
100
AcDbSpline
70
4
71
5
72
12
73
6
74
0
42
0.000000001
43
0.0000000001
44
0.0000000001
40
0
40
0
40
0
40
0
40
0
40
0
40
0.0020651553855001131
40
0.0020651553855001131
40
0.0020651553855001131
40
0.0020651553855001131
40
0.0020651553855001131
40
0.0020651553855001131
41
1
41
1
41
1
41
1
41
1
41
1
10
-94.362259674326609
20
11.380676296319612
30
-4.0301095793893182e-13
10
-94.362259674326609
20
11.400513788085211
30
-4.0190073491430667e-13
10
-94.362227324742548
20
11.42042412431757
30
-4.0079051188968151e-13
10
-94.362162615476933
20
11.440407284843957
30
-3.9968028886505635e-13
10
-94.362065532088138
20
11.460463241807442
30
-3.985700658404312e-13
10
-94.361936055853533
20
11.48059195977612
30
-3.9745984281580604e-13
0
LINE
5
112
100
AcDbEntity
8
0
100
AcDbLine
10
-94.362259674326609
20
11.380676296319612
30
-4.0301095793893182e-13
11
-94.362259674326651
21
-12.678590176624841
31
-1.3389289676979388e-12
0
SPLINE
5
113
100
AcDbEntity
8
0
100
AcDbSpline
70
4
71
5
72
12
73
6
74
0
42
0.000000001
43
0.0000000001
44
0.0000000001
40
0
40
0
40
0
40
0
40
0
40
0
40
0.0013023794136182883
40
0.0013023794136182883
40
0.0013023794136182883
40
0.0013023794136182883
40
0.0013023794136182883
40
0.0013023794136182883
41
1
41
1
41
1
41
1
41
1
41
1
10
-94.362259674326637
20
-12.678590176624841
30
-1.3267165144270621e-12
10
-94.362259674326637
20
-12.696832825157474
30
-1.3267165144270621e-12
10
-94.362219204328028
20
-12.715079090266981
30
-1.3267165144270621e-12
10
-94.362138261150434
20
-12.733328974555945
30
-1.3267165144270621e-12
10
-94.362016842911117
20
-12.751582479886721
30
-1.3256062914024369e-12
10
-94.361854949010933
20
-12.769839607390878
30
-1.3267165144270621e-12
0
SPLINE
5
114
100
AcDbEntity
8
0
100
AcDbSpline
70
0
71
3
72
10
73
6
74
0
42
0.000000001
43
0.0000000001
44
0.0000000001
40
0
40
0
40
0
40
0
40
0.05233487346376986
40
0.05233487346376986
40
0.1046786088248693
40
0.1046786088248693
40
0.1046786088248693
40
0.1046786088248693
10
-94.164487130196918
20
-13.791787158216238
30
-1.3877787807814457e-12
10
-94.226778666794132
20
-13.628838025641375
30
-1.3811174426336947e-12
10
-94.27473846221767
20
-13.460765610365009
30
-1.3777867735598193e-12
10
-94.340909145974763
20
-13.118168652466624
30
-1.3644640972643174e-12
10
-94.358989033618911
20
-12.944295186580151
30
-1.3522516439934407e-12
10
-94.361854949010535
20
-12.769839607415204
30
-1.3455903058456897e-12
0
SPLINE
5
115
100
AcDbEntity
8
0
100
AcDbSpline
70
0
71
3
72
12
73
8
74
0
42
0.000000001
43
0.0000000001
44
0.0000000001
40
0
40
0
40
0
40
0
40
0.1170718644934295
40
0.1170718644934295
40
0.18599809653973232
40
0.18599809653973232
40
0.25489719753804418
40
0.25489719753804418
40
0.25489719753804418
40
0.25489719753804418
10
-92.412723178703189
20
-15.530638833873612
30
-1.4566126083082054e-12
10
-92.778257425514013
20
-15.39399469944134
30
-1.4510614931850796e-12
10
-93.113641140675867
20
-15.187331699599172
30
-1.5465406733028431e-12
10
-93.568651771698654
20
-14.766197474750387
30
-1.5309975509580909e-12
10
-93.718777862716095
20
-14.591284996288351
30
-1.4555023852835802e-12
10
-93.976108858191893
20
-14.210706533157424
30
-1.439959262938828e-12
10
-94.082480149074726
20
-14.0063105019135
30
-1.3933298959045715e-12
10
-94.164487114954468
20
-13.791787152445007
30
-1.3855583347321954e-12
0
SPLINE
5
116
100
AcDbEntity
8
0
100
AcDbSpline
70
0
71
3
72
24
73
20
74
0
42
0.000000001
43
0.0000000001
44
0.0000000001
40
0
40
0
40
0
40
0
40
0.057813106675923771
40
0.057813106675923771
40
0.13179233250902828
40
0.13179233250902828
40
0.26351095073277953
40
0.26351095073277953
40
0.55933974041255707
40
0.55933974041255707
40
1.6029704505876998
40
1.6029704505876998
40
2.8105965769335093
40
2.8105965769335093
40
3.7261706335505353
40
3.7261706335505353
40
4.428322549399339
40
4.428322549399339
40
5.0432691803065524
40
5.0432691803065524
40
5.0432691803065524
40
5.0432691803065524
10
-15.634722499221279
20
-106.09999999999982
30
-4.9382720135326963e-12
10
-15.827432854807689
20
-106.09999999999982
30
-4.9382720135326963e-12
10
-16.013407693362783
20
-106.06132174658875
30
-4.9404924595819466e-12
10
-16.422296799117888
20
-105.90071776839856
30
-4.9349413444588208e-12
10
-16.632379172140112
20
-105.76185999178745
30
-4.9227288911879441e-12
10
-17.156015081111349
20
-105.32020818165617
30
-4.9049653227939416e-12
10
-17.463066502531063
20
-104.94008067244273
30
-4.8872017543999391e-12
10
-18.365972211628389
20
-103.58612149005302
30
-4.8361314952671819e-12
10
-18.967365679615646
20
-102.27863692151347
30
-4.8305803801440561e-12
10
-21.698869291678552
20
-95.134780582925288
30
-4.5552450700370173e-12
10
-23.921202219260252
20
-85.99950361306287
30
-3.9779290972319359e-12
10
-31.51801100398675
20
-64.428854578882778
30
-3.1474822748123188e-12
10
-36.686903269184185
20
-53.534904029652537
30
-2.6978419498391304e-12
10
-50.434807208567143
20
-37.004957454139635
30
-2.0616841567289157e-12
10
-57.370865539357169
20
-31.362399182530734
30
-1.8895995879120164e-12
10
-71.645023201345396
20
-23.295620245067255
30
-1.5798473640415978e-12
10
-77.663628881305144
20
-20.907196087929194
30
-1.4366285938649526e-12
10
-87.048593490509759
20
-17.527906417670781
30
-1.3067324999838092e-12
10
-90.712347308010067
20
-16.379159326806704
30
-1.4843681839238343e-12
10
-92.412723178702748
20
-15.530638833873645
30
-1.4521717162097048e-12
0
LINE
5
117
100
AcDbEntity
8
0
100
AcDbLine
10
-15.634722499221279
20
-106.09999999999982
30
-4.9382720135326963e-12
11
15.634722499221247
21
-106.10000000000149
31
-4.9193982221140686e-12
0
SPLINE
5
118
100
AcDbEntity
8
0
100
AcDbSpline
70
0
71
3
72
24
73
20
74
0
42
0.000000001
43
0.0000000001
44
0.0000000001
40
0
40
0
40
0
40
0
40
0.057813106675923771
40
0.057813106675923771
40
0.13179233250902828
40
0.13179233250902828
40
0.26351095073277953
40
0.26351095073277953
40
0.55933974041255707
40
0.55933974041255707
40
1.6029704505876998
40
1.6029704505876998
40
2.8105965769335093
40
2.8105965769335093
40
3.7261706335505353
40
3.7261706335505353
40
4.428322549399339
40
4.428322549399339
40
5.0432691803065524
40
5.0432691803065524
40
5.0432691803065524
40
5.0432691803065524
10
15.634722499221251
20
-106.09999999999982
30
-4.9382720135326963e-12
10
15.827432854807665
20
-106.09999999999982
30
-4.9382720135326963e-12
10
16.013407693362755
20
-106.06132174658875
30
-4.9404924595819466e-12
10
16.422296799117859
20
-105.90071776839856
30
-4.9349413444588208e-12
10
16.632379172140084
20
-105.76185999178745
30
-4.9227288911879441e-12
10
17.15601508111132
20
-105.32020818165617
30
-4.9049653227939416e-12
10
17.463066502531031
20
-104.94008067244273
30
-4.8872017543999391e-12
10
18.36597221162836
20
-103.58612149005302
30
-4.8361314952671819e-12
10
18.967365679615618
20
-102.27863692151347
30
-4.8305803801440561e-12
10
21.698869291678523
20
-95.134780582925288
30
-4.5552450700370173e-12
10
23.921202219260227
20
-85.99950361306287
30
-3.9779290972319359e-12
10
31.518011003986722
20
-64.428854578882778
30
-3.1474822748123188e-12
10
36.686903269184164
20
-53.534904029652537
30
-2.6978419498391304e-12
10
50.434807208567129
20
-37.004957454139635
30
-2.0616841567289157e-12
10
57.370865539357148
20
-31.362399182530744
30
-1.8895995879120164e-12
10
71.645023201345381
20
-23.295620245067266
30
-1.5798473640415978e-12
10
77.663628881305129
20
-20.907196087929201
30
-1.4366285938649526e-12
10
87.048593490509745
20
-17.527906417670792
30
-1.3067324999838092e-12
10
90.712347308010038
20
-16.379159326806715
30
-1.4843681839238343e-12
10
92.41272317870272
20
-15.530638833873656
30
-1.4521717162097048e-12
0
SPLINE
5
119
100
AcDbEntity
8
0
100
AcDbSpline
70
0
71
3
72
12
73
8
74
0
42
0.000000001
43
0.0000000001
44
0.0000000001
40
0
40
0
40
0
40
0
40
0.1170718644934295
40
0.1170718644934295
40
0.18599809653973232
40
0.18599809653973232
40
0.25489719753804418
40
0.25489719753804418
40
0.25489719753804418
40
0.25489719753804418
10
92.412723178703175
20
-15.530638833873622
30
-1.4566126083082054e-12
10
92.778257425513999
20
-15.39399469944135
30
-1.4510614931850796e-12
10
93.113641140675853
20
-15.187331699599182
30
-1.5465406733028431e-12
10
93.56865177169864
20
-14.766197474750397
30
-1.5309975509580909e-12
10
93.718777862716081
20
-14.591284996288362
30
-1.4555023852835802e-12
10
93.976108858191878
20
-14.210706533157435
30
-1.439959262938828e-12
10
94.082480149074712
20
-14.006310501913511
30
-1.3933298959045715e-12
10
94.164487114954454
20
-13.791787152445018
30
-1.3855583347321954e-12
0
SPLINE
5
120
100
AcDbEntity
8
0
100
AcDbSpline
70
0
71
3
72
10
73
6
74
0
42
0.000000001
43
0.0000000001
44
0.0000000001
40
0
40
0
40
0
40
0
40
0.05233487346376986
40
0.05233487346376986
40
0.1046786088248693
40
0.1046786088248693
40
0.1046786088248693
40
0.1046786088248693
10
94.164487130196903
20
-13.791787158216248
30
-1.3877787807814457e-12
10
94.226778666794104
20
-13.628838025641386
30
-1.3811174426336947e-12
10
94.274738462217655
20
-13.460765610365019
30
-1.3777867735598193e-12
10
94.340909145974749
20
-13.118168652466636
30
-1.3644640972643174e-12
10
94.358989033618897
20
-12.944295186580161
30
-1.3522516439934407e-12
10
94.361854949010521
20
-12.769839607415214
30
-1.3455903058456897e-12
0
SPLINE
5
121
100
AcDbEntity
8
0
100
AcDbSpline
70
4
71
5
72
12
73
6
74
0
42
0.000000001
43
0.0000000001
44
0.0000000001
40
0
40
0
40
0
40
0
40
0
40
0
40
0.0013023794136182883
40
0.0013023794136182883
40
0.0013023794136182883
40
0.0013023794136182883
40
0.0013023794136182883
40
0.0013023794136182883
41
1
41
1
41
1
41
1
41
1
41
1
10
94.362259674326623
20
-12.678590176624851
30
-1.3267165144270621e-12
10
94.362259674326623
20
-12.696832825157484
30
-1.3267165144270621e-12
10
94.362219204328014
20
-12.715079090266991
30
-1.3267165144270621e-12
10
94.36213826115042
20
-12.733328974555958
30
-1.3267165144270621e-12
10
94.362016842911089
20
-12.751582479886732
30
-1.3256062914024369e-12
10
94.361854949010905
20
-12.769839607390889
30
-1.3267165144270621e-12
0
LINE
5
122
100
AcDbEntity
8
0
100
AcDbLine
10
94.362259674326623
20
-12.678590176624851
30
-1.3267165144270621e-12
11
94.362259674326594
21
11.380676296319601
31
-4.1744385725905886e-13
0
SPLINE
5
123
100
AcDbEntity
8
0
100
AcDbSpline
70
4
71
5
72
12
73
6
74
0
42
0.000000001
43
0.0000000001
44
0.0000000001
40
0
40
0
40
0
40
0
40
0
40
0
40
0.0020651553855002011
40
0.0020651553855002011
40
0.0020651553855002011
40
0.0020651553855002011
40
0.0020651553855002011
40
0.0020651553855002011
41
1
41
1
41
1
41
1
41
1
41
1
10
94.362259674326594
20
11.380676296319601
30
-4.0301095793893182e-13
10
94.362259674326594
20
11.400513788085201
30
-4.0190073491430667e-13
10
94.36222732474252
20
11.420424124317561
30
-4.0079051188968151e-13
10
94.362162615476919
20
11.44040728484395
30
-3.9968028886505635e-13
10
94.362065532088181
20
11.460463241807444
30
-3.985700658404312e-13
10
94.361936055853562
20
11.48059195977612
30
-3.985700658404312e-13
0
SPLINE
5
124
100
AcDbEntity
8
0
100
AcDbSpline
70
0
71
3
72
12
73
8
74
0
42
0.000000001
43
0.0000000001
44
0.0000000001
40
0
40
0
40
0
40
0
40
0.11689381873714032
40
0.11689381873714032
40
0.17692507113566186
40
0.17692507113566186
40
0.23700180151780437
40
0.23700180151780437
40
0.23700180151780437
40
0.23700180151780437
10
94.361936055853562
20
11.480591959771235
30
-4.0079051188968151e-13
10
94.356212912765187
20
11.870195989038823
30
-3.8302694349567901e-13
10
94.274638651046828
20
12.254988008780849
30
-3.6970426720017713e-13
10
94.04328238062989
20
12.797469211868984
30
-3.47499806707674e-13
10
93.946561933348676
20
12.973217109737689
30
-3.4305891460917337e-13
10
93.71950119266188
20
13.302943762816282
30
-3.2973623831367149e-13
10
93.589702423056181
20
13.456082645842496
30
-3.2085445411667024e-13
10
93.445616064562955
20
13.595145272917385
30
-3.1641356201816961e-13
0
SPLINE
5
125
100
AcDbEntity
8
0
100
AcDbSpline
70
0
71
3
72
22
73
18
74
0
42
0.000000001
43
0.0000000001
44
0.0000000001
40
0
40
0
40
0
40
0
40
0.14982658899668447
40
0.14982658899668447
40
0.68874148828386694
40
0.68874148828386694
40
1.2883381294619212
40
1.2883381294619212
40
1.7372796702618432
40
1.7372796702618432
40
2.038000771640526
40
2.038000771640526
40
2.1824442259088386
40
2.1824442259088386
40
2.2461825760037253
40
2.2461825760037253
40
2.3006481716987253
40
2.3006481716987253
40
2.3006481716987253
40
2.3006481716987253
10
93.445616064562941
20
13.595145272917383
30
-3.1641356201816961e-13
10
93.087557105601945
20
13.943306269234396
30
-3.0309088572266774e-13
10
92.566645723039542
20
14.303108833825679
30
-2.8976820942716586e-13
10
89.79442999693029
20
15.966886911032161
30
-2.2759572004815709e-13
10
86.106726332061243
20
17.566640607969447
30
-1.6542323066914832e-13
10
75.866373363978084
20
22.989823430728784
30
4.3298697960381105e-14
10
65.126203357919664
20
29.063436141039265
30
2.7866597918091429e-13
10
44.27196557396929
20
48.307880706596904
30
1.0202949596305189e-12
10
34.932495618911467
20
59.090378015707643
30
1.4332979247910771e-12
10
24.889435655582801
20
80.752074205320412
30
2.2681856393091948e-12
10
23.351530975745703
20
88.087676195392476
30
2.5479618415147343e-12
10
21.476131188433328
20
97.134714193578731
30
2.8987923172962837e-12
10
20.946718932612335
20
99.70816355099835
30
2.9964919434632975e-12
10
19.931312644168486
20
102.82556257650178
30
3.1163960301228144e-12
10
19.554726595310139
20
103.7971072557214
30
3.1519231669108194e-12
10
18.677864702745588
20
105.45080143162062
30
3.2185365483883288e-12
10
18.19472587885414
20
106.17240267437465
30
3.2451819009793326e-12
10
17.601039959554829
20
106.79918634627349
30
3.2673863614718357e-12
0
LINE
5
126
100
AcDbEntity
8
0
100
AcDbLine
10
36.347000000106974
20
2.5328699777634783e-05
30
-8.5709217501062085e-13
11
36.346964940366043
21
-4.1525456525342106
31
-1.0191847366058937e-12
0
SPLINE
5
127
100
AcDbEntity
8
0
100
AcDbSpline
70
0
71
3
72
10
73
6
74
0
42
0.000000001
43
0.0000000001
44
0.0000000001
40
0
40
0
40
0
40
0
40
0.68789881818853227
40
0.68789881818853227
40
1.3757976363770683
40
1.3757976363770683
40
1.3757976363770683
40
1.3757976363770683
10
35.288805830445028
20
-17.854408697941434
30
-1.538769112130467e-12
10
35.64085116181743
20
-15.58859868412376
30
-1.4510614931850796e-12
10
35.905446552902887
20
-13.310062985340236
30
-1.3411494137471891e-12
10
36.258559322030912
20
-8.7376855831008893
30
-1.1657341758564144e-12
10
36.346945580829946
20
-6.4455417130809192
30
-1.1213252548714081e-12
10
36.34696494036605
20
-4.1525456525341902
30
-1.0336176359260207e-12
0
LINE
5
128
100
AcDbEntity
8
0
100
AcDbLine
10
35.288805830445028
20
-17.854408697941434
30
-1.538769112130467e-12
11
34.256305183568131
21
-24.499718538713555
31
-1.7996715229173788e-12
0
LINE
5
129
100
AcDbEntity
8
0
100
AcDbLine
10
34.256305183568131
20
-24.499718538713555
30
-1.7996715229173788e-12
11
34.254640894336099
21
-24.499718538713566
31
-1.7819079545233762e-12
0
SPLINE
5
130
100
AcDbEntity
8
0
100
AcDbSpline
70
4
71
5
72
16
73
10
74
0
42
0.000000001
43
0.0000000001
44
0.0000000001
40
0
40
0
40
0
40
0
40
0
40
0
40
0.20000000000000001
40
0.40000000000000002
40
0.60000000000000009
40
0.80000000000000004
40
1
40
1
40
1
40
1
40
1
40
1
41
1
41
1
41
1
41
1
41
1
41
1
41
1
41
1
41
1
41
1
10
34.254640894336099
20
-24.499718538713566
30
-1.7819079545233762e-12
10
33.649479150027226
20
-28.399082460311035
30
-1.9328982858723975e-12
10
32.524718522840949
20
-35.657664003901587
30
-2.2104540420286867e-12
10
31.093741346375445
20
-44.92647692366247
30
-2.5679458559579871e-12
10
29.373048043424216
20
-54.425766329230086
30
-2.9343194540842887e-12
10
25.629777254325418
20
-62.648806435862767
30
-3.2496227930778332e-12
10
19.206163698967352
20
-66.730797330611551
30
-3.4072744625746054e-12
10
11.109468575791974
20
-68.321363125563181
30
-3.4694469519536142e-12
10
3.990317190655412
20
-68.675000000000068
30
-3.4827696282491161e-12
10
-1.8337175489052425e-13
20
-68.675000000000068
30
-3.4827696282491161e-12
0
SPLINE
5
131
100
AcDbEntity
8
0
100
AcDbSpline
70
4
71
5
72
16
73
10
74
0
42
0.000000001
43
0.0000000001
44
0.0000000001
40
0
40
0
40
0
40
0
40
0
40
0
40
0.20000000000000001
40
0.40000000000000002
40
0.60000000000000009
40
0.80000000000000004
40
1
40
1
40
1
40
1
40
1
40
1
41
1
41
1
41
1
41
1
41
1
41
1
41
1
41
1
41
1
41
1
10
-34.254640894336113
20
-24.499718538713566
30
-1.7819079545233762e-12
10
-33.649479150027247
20
-28.399082460311035
30
-1.9328982858723975e-12
10
-32.524718522840963
20
-35.657664003901587
30
-2.2104540420286867e-12
10
-31.093741346375474
20
-44.92647692366247
30
-2.5679458559579871e-12
10
-29.373048043424244
20
-54.425766329230086
30
-2.9343194540842887e-12
10
-25.629777254325443
20
-62.648806435862767
30
-3.2496227930778332e-12
10
-19.206163698967377
20
-66.730797330611551
30
-3.4072744625746054e-12
10
-11.109468575792
20
-68.321363125563181
30
-3.4694469519536142e-12
10
-3.9903171906554364
20
-68.675000000000068
30
-3.4827696282491161e-12
10
1.5909395289953365e-13
20
-68.675000000000068
30
-3.4827696282491161e-12
0
LINE
5
132
100
AcDbEntity
8
0
100
AcDbLine
10
-34.254640894336113
20
-24.499718538713566
30
-1.7819079545233762e-12
11
-34.256305183568145
21
-24.499718538713555
31
-1.7819079545233762e-12
0
LINE
5
133
100
AcDbEntity
8
0
100
AcDbLine
10
-35.28880583044505
20
-17.854408697941444
30
-1.5443202272535927e-12
11
-34.256305183568145
21
-24.499718538713555
31
-1.7819079545233762e-12
0
SPLINE
5
134
100
AcDbEntity
8
0
100
AcDbSpline
70
0
71
3
72
10
73
6
74
0
42
0.000000001
43
0.0000000001
44
0.0000000001
40
0
40
0
40
0
40
0
40
0.68789881818853227
40
0.68789881818853227
40
1.3757976363770683
40
1.3757976363770683
40
1.3757976363770683
40
1.3757976363770683
10
-35.288805830445042
20
-17.85440869794143
30
-1.538769112130467e-12
10
-35.640851161817444
20
-15.588598684123756
30
-1.4510614931850796e-12
10
-35.905446552902909
20
-13.310062985340231
30
-1.3411494137471891e-12
10
-36.258559322030933
20
-8.7376855831008839
30
-1.1657341758564144e-12
10
-36.346945580829967
20
-6.4455417130809147
30
-1.1213252548714081e-12
10
-36.346964940366071
20
-4.1525456525341866
30
-1.0336176359260207e-12
0
LINE
5
135
100
AcDbEntity
8
0
100
AcDbLine
10
-36.346964940366064
20
-4.1525456525341866
30
-1.0336176359260207e-12
11
-36.347000000106995
21
2.532869978144614e-05
31
-8.5709217501062085e-13
0
SPLINE
5
136
100
AcDbEntity
8
0
100
AcDbSpline
70
4
71
5
72
21
73
15
74
0
42
0.000000001
43
0.0000000001
44
0.0000000001
40
0
40
0
40
0
40
0
40
0
40
0
40
0.10000000000000001
40
0.20000000000000001
40
0.30000000000000004
40
0.40000000000000002
40
0.5
40
0.59999999999999998
40
0.69999999999999996
40
0.79999999999999993
40
0.89999999999999991
40
1
40
1
40
1
40
1
40
1
40
1
41
1
41
1
41
1
41
1
41
1
41
1
41
1
41
1
41
1
41
1
41
1
41
1
41
1
41
1
41
1
10
-36.346999999991276
20
2.5331616360950975e-05
30
-8.404388296412435e-13
10
-35.989678339024074
20
2.5721157912986348
30
-7.4051875742497941e-13
10
-34.995133770797352
20
7.2397747055511319
30
-5.6288307348495437e-13
10
-32.66366589370147
20
12.811806016532515
30
-3.47499806707674e-13
10
-27.961218652473061
20
17.608330825708556
30
-1.6320278461989801e-13
10
-19.913449685533308
20
20.387993484717022
30
-5.6621374255882984e-14
10
-10.34630115968984
20
21.289066541283663
30
-2.1094237467877974e-14
10
6.477661681864292e-05
20
21.421718555892689
30
-1.6653345369377348e-14
10
10.346418425363566
20
21.289035021376208
30
-2.1094237467877974e-14
10
19.913535404101129
20
20.387941274026986
30
-5.6621374255882984e-14
10
27.961264896638092
20
17.608274074290712
30
-1.6320278461989801e-13
10
32.663684827902543
20
12.811761351196232
30
-3.47499806707674e-13
10
34.995139709982219
20
7.2397486128667063
30
-5.6288307348495437e-13
10
35.989679646698278
20
2.5721063761737288
30
-7.4051875742497941e-13
10
36.34699999999124
20
2.5328699738330544e-05
30
-8.404388296412435e-13
0
LWPOLYLINE
5
137
100
AcDbEntity
8
0
100
AcDbPolyline
90
8
70
1
43
0.0
10
-62.194609235515408
20
-12.812742975489126
42
0.41421356237309559
10
-58.194609235515394
20
-8.8127429754891278
10
-58.194609235515394
20
7.5287085860309197
42
0.4142135623730952
10
-62.194609235515401
20
11.528708586030925
10
-69.194609235515387
20
11.528708586030925
42
0.41421356237309503
10
-73.194609235515387
20
7.5287085860309215
10
-73.194609235515387
20
-8.8127429754891224
42
0.41421356237309515
10
-69.194609235515387
20
-12.812742975489131
0
LWPOLYLINE
5
138
100
AcDbEntity
8
0
100
AcDbPolyline
90
8
70
1
43
0.0
10
-15.499999999999643
20
87.624999999739828
10
-15.499999999999638
20
95.624999999739813
42
-0.41421356237309503
10
-14.499999999999641
20
96.624999999739813
10
-11.499999999999645
20
96.624999999739799
42
-0.41421356237309503
10
-10.499999999999643
20
95.624999999739799
10
-10.499999999999648
20
87.624999999739813
42
-0.41421356237309503
10
-11.499999999999645
20
86.624999999739813
10
-14.499999999999641
20
86.624999999739828
42
-0.41421356237309503
0
ARC
5
139
100
AcDbEntity
8
0
100
AcDbCircle
10
-11.155999999998034
20
-69.801076183869753
30
-3.5305092183079978e-12
40
1.9999999999999987
210
-1.9044928356530943e-14
220
-2.0947212452992317e-14
230
1
100
AcDbArc
50
227.72330408325917
51
305.31962752233721
0
SPLINE
5
140
100
AcDbEntity
8
0
100
AcDbSpline
70
0
71
3
72
8
73
4
74
0
42
0.000000001
43
0.0000000001
44
0.0000000001
40
-1.6330560217724694
40
-1.6330560217724694
40
-1.6330560217724694
40
-1.6330560217724694
40
-1.2202065047033908
40
-1.2202065047033908
40
-1.2202065047033908
40
-1.2202065047033908
10
-12.501423250974836
20
-71.280885724226565
30
-3.5993430458347575e-12
10
-11.732106926701283
20
-71.336615962937884
30
-3.6015634918840078e-12
10
-10.900650243306508
20
-71.387557296140216
30
-3.6004532688593827e-12
10
-9.9997256588883801
20
-71.43295536079782
30
-3.602673714908633e-12
0
LWPOLYLINE
5
141
100
AcDbEntity
8
0
100
AcDbPolyline
90
8
70
1
43
0.0
10
14.200000000000186
20
-93.13774451646934
10
-14.200000000000212
20
-93.13774451646934
42
-0.41421356237309503
10
-15.200000000000209
20
-92.13774451646934
10
-15.200000000000205
20
-78.88774451646934
42
-0.41421356237309503
10
-14.200000000000209
20
-77.88774451646934
10
14.20000000000018
20
-77.88774451646934
42
-0.4142135623730957
10
15.200000000000182
20
-78.88774451646934
10
15.200000000000182
20
-92.13774451646934
42
-0.41421356237309503
0
ARC
5
142
100
AcDbEntity
8
0
100
AcDbCircle
10
11.155999999998009
20
-69.801076183869753
30
-3.5305092183079978e-12
40
2
210
-1.7972113547964926e-14
220
-2.5364497698846603e-14
230
1
100
AcDbArc
50
234.68037247766273
51
312.27669591674078
0
SPLINE
5
143
100
AcDbEntity
8
0
100
AcDbSpline
70
0
71
3
72
8
73
4
74
0
42
0.000000001
43
0.0000000001
44
0.0000000001
40
-1.6330560217724694
40
-1.6330560217724694
40
-1.6330560217724694
40
-1.6330560217724694
40
-1.2202065047033914
40
-1.2202065047033914
40
-1.2202065047033914
40
-1.2202065047033914
10
12.50142325097481
20
-71.280885724226565
30
-3.5982328228101323e-12
10
11.732106926701256
20
-71.336615962937884
30
-3.6004532688593827e-12
10
10.900650243306488
20
-71.387557296140216
30
-3.6015634918840078e-12
10
9.9997256588883605
20
-71.43295536079782
30
-3.6037839379332581e-12
0
LWPOLYLINE
5
144
100
AcDbEntity
8
0
100
AcDbPolyline
90
8
70
1
43
0.0
10
15.499999999999634
20
95.624999999739813
10
15.499999999999632
20
87.624999999739828
42
-0.41421356237309503
10
14.499999999999636
20
86.624999999739828
10
11.499999999999638
20
86.624999999739813
42
-0.41421356237309503
10
10.499999999999636
20
87.624999999739813
10
10.499999999999641
20
95.624999999739799
42
-0.41421356237309503
10
11.499999999999638
20
96.624999999739799
10
14.499999999999636
20
96.624999999739813
42
-0.41421356237309503
0
LWPOLYLINE
5
145
100
AcDbEntity
8
0
100
AcDbPolyline
90
8
70
1
43
0.0
10
58.194609235515379
20
-8.8127429754891331
42
0.4142135623730957
10
62.194609235515387
20
-12.812742975489135
10
69.194609235515372
20
-12.812742975489133
42
0.41421356237309503
10
73.194609235515372
20
-8.8127429754891313
10
73.194609235515372
20
7.5287085860309144
42
0.41421356237309503
10
69.194609235515372
20
11.528708586030918
10
62.194609235515379
20
11.528708586030916
42
0.41421356237309503
10
58.194609235515379
20
7.5287085860309153
0
CIRCLE
5
146
100
AcDbEntity
8
0
100
AcDbCircle
10
5.8813895823843815e-13
20
109.87499999974006
30
2.7100544031100071e-12
40
2.0500000000000012
210
-3.9849416479294297e-30
220
-3.8479636144077877e-14
230
1
0
CIRCLE
5
147
100
AcDbEntity
8
0
100
AcDbCircle
10
-89.36250205954758
20
9.6949249921701348
30
-4.7184478546569153e-13
40
1.9999999999999929
210
-1.2246467991473554e-16
220
-3.8479636144077915e-14
230
1
0
CIRCLE
5
148
100
AcDbEntity
8
0
100
AcDbCircle
10
-14.194016906841149
20
104.87499999941512
30
3.1141755840735641e-12
40
1.9999999999999929
210
-4.2314606808110841e-30
220
-3.8479636144077877e-14
230
1
0
CIRCLE
5
149
100
AcDbEntity
8
0
100
AcDbCircle
10
-89.362502059548603
20
-10.767618803794047
30
-1.2601031329495527e-12
40
1.9999999999999929
210
-1.2246467991473554e-16
220
-3.8479636144077915e-14
230
1
0
CIRCLE
5
150
100
AcDbEntity
8
0
100
AcDbCircle
10
89.362502059548575
20
-10.767618803794058
30
-1.2601031329495527e-12
40
1.9999999999999929
210
1.2246467991473128e-16
220
-3.8479636144077915e-14
230
1
0
CIRCLE
5
151
100
AcDbEntity
8
0
100
AcDbCircle
10
14.194016906841146
20
104.87499999941512
30
3.1141755840735641e-12
40
1.9999999999999929
210
-4.0637121824280955e-32
220
-3.8479636144077877e-14
230
1
0
CIRCLE
5
152
100
AcDbEntity
8
0
100
AcDbCircle
10
89.362502059547566
20
9.6949249921701242
30
-4.7184478546569153e-13
40
1.9999999999999929
210
1.2246467991473128e-16
220
-3.8479636144077915e-14
230
1
0
ENDSEC
0
SECTION
2
OBJECTS
0
DICTIONARY
5
C
100
AcDbDictionary
3
ACAD_GROUP
350
D
3
ACAD_MLINESTYLE
350
17
0
DICTIONARY
5
D
100
AcDbDictionary
0
DICTIONARY
5
1A
330
C
100
AcDbDictionary
0
DICTIONARY
5
17
100
AcDbDictionary
0
ENDSEC
0
EOF
